Exo2-Regular.ufo
<glyph name="exclam" format="2">
  <advance width="273.4235294117647"/>
  <unicode hex="0021"/>
  <outline>
    <contour>
      <point x="179.11764705882354" y="695.0" type="line"/>
      <point x="94.30588235294118" y="695.0" type="line"/>
      <point x="94.30588235294118" y="389.01176470588234" type="line"/>
      <point x="102.87058823529412" y="211.0235294117647" type="line"/>
      <point x="170.5529411764706" y="211.0235294117647" type="line"/>
      <point x="179.11764705882354" y="389.01176470588234" type="line"/>
    </contour>
    <contour>
      <point x="148.04705882352943" y="118.09411764705882" type="curve" smooth="yes"/>
      <point x="126.37647058823529" y="118.09411764705882" type="line" smooth="yes"/>
      <point x="103.05882352941177" y="118.09411764705882"/>
      <point x="94.68235294117648" y="109.71764705882353"/>
      <point x="94.68235294117648" y="86.4" type="curve" smooth="yes"/>
      <point x="94.68235294117648" y="31.694117647058825" type="line" smooth="yes"/>
      <point x="94.68235294117648" y="8.376470588235295"/>
      <point x="103.05882352941177" y="0.0"/>
      <point x="126.37647058823529" y="0.0" type="curve" smooth="yes"/>
      <point x="148.04705882352943" y="0.0" type="line" smooth="yes"/>
      <point x="171.36470588235295" y="0.0"/>
      <point x="179.74117647058824" y="8.376470588235295"/>
      <point x="179.74117647058824" y="31.694117647058825" type="curve" smooth="yes"/>
      <point x="179.74117647058824" y="86.4" type="line" smooth="yes"/>
      <point x="179.74117647058824" y="109.71764705882353"/>
      <point x="171.36470588235295" y="118.09411764705882"/>
    </contour>
  </outline>
</glyph>
<glyph name="quotedbl" format="2">
  <advance width="353.25882352941176"/>
  <unicode hex="0022"/>
  <outline>
    <contour>
      <point x="283.49411764705883" y="690.0" type="line"/>
      <point x="214.27058823529413" y="690.0" type="line"/>
      <point x="219.91764705882352" y="475.43529411764706" type="line"/>
      <point x="277.84705882352944" y="475.43529411764706" type="line"/>
    </contour>
    <contour>
      <point x="139.71764705882353" y="690.0" type="line"/>
      <point x="70.49411764705883" y="690.0" type="line"/>
      <point x="75.41176470588235" y="475.43529411764706" type="line"/>
      <point x="134.0705882352941" y="475.43529411764706" type="line"/>
    </contour>
  </outline>
</glyph>
<glyph name="numbersign" format="2">
  <advance width="684.5058823529412"/>
  <unicode hex="0023"/>
  <outline>
    <contour>
      <point x="310.90588235294115" y="690.0" type="line"/>
      <point x="242.87058823529412" y="690.0" type="line"/>
      <point x="122.87058823529412" y="0.0" type="line"/>
      <point x="190.90588235294118" y="0.0" type="line"/>
    </contour>
    <contour>
      <point x="561.9058823529411" y="690.0" type="line"/>
      <point x="493.8705882352941" y="690.0" type="line"/>
      <point x="373.8705882352941" y="0.0" type="line"/>
      <point x="441.90588235294115" y="0.0" type="line"/>
    </contour>
    <contour>
      <point x="639.8235294117648" y="502.94117647058823" type="line"/>
      <point x="96.51764705882353" y="502.94117647058823" type="line"/>
      <point x="85.95294117647059" y="448.11764705882354" type="line"/>
      <point x="629.2588235294118" y="448.11764705882354" type="line"/>
    </contour>
    <contour>
      <point x="597.8235294117648" y="267.50588235294117" type="line"/>
      <point x="54.51764705882353" y="267.50588235294117" type="line"/>
      <point x="43.95294117647059" y="212.68235294117648" type="line"/>
      <point x="587.2588235294118" y="212.68235294117648" type="line"/>
    </contour>
  </outline>
</glyph>
<glyph name="dollar" format="2">
  <advance width="564.1058823529412"/>
  <unicode hex="0024"/>
  <outline>
    <contour>
      <point x="281.3764705882353" y="701.7294117647059" type="curve" smooth="yes"/>
      <point x="127.51764705882353" y="702.2705882352941"/>
      <point x="57.32941176470588" y="681.2470588235294"/>
      <point x="57.32941176470588" y="520.3529411764706" type="curve" smooth="yes"/>
      <point x="57.32941176470588" y="414.91764705882355"/>
      <point x="93.6" y="352.8941176470588"/>
      <point x="193.51764705882354" y="328.0352941176471" type="curve" smooth="yes"/>
      <point x="336.3058823529412" y="291.7176470588235" type="line" smooth="yes"/>
      <point x="396.6941176470588" y="277.0705882352941"/>
      <point x="423.3176470588235" y="257.5764705882353"/>
      <point x="423.3176470588235" y="177.75294117647059" type="curve" smooth="yes"/>
      <point x="423.3176470588235" y="85.97647058823529"/>
      <point x="389.8235294117647" y="70.16470588235295"/>
      <point x="283.81176470588235" y="69.62352941176471" type="curve" smooth="yes"/>
      <point x="227.50588235294117" y="69.3529411764706"/>
      <point x="190.36470588235295" y="70.62352941176471"/>
      <point x="73.05882352941177" y="74.43529411764706" type="curve"/>
      <point x="66.87275294117647" y="6.526047058823529" type="line"/>
      <point x="160.89411764705883" y="-10.0"/>
      <point x="235.83529411764707" y="-11.729411764705882"/>
      <point x="281.3529411764706" y="-11.729411764705882" type="curve" smooth="yes"/>
      <point x="442.61176470588236" y="-11.729411764705882"/>
      <point x="512.5058823529412" y="16.67058823529412"/>
      <point x="512.5058823529412" y="176.2941176470588" type="curve" smooth="yes"/>
      <point x="512.5058823529412" y="282.70588235294116"/>
      <point x="478.88235294117646" y="343.83529411764704"/>
      <point x="372.77647058823527" y="370.4235294117647" type="curve" smooth="yes"/>
      <point x="233.63529411764705" y="405.2823529411765" type="line" smooth="yes"/>
      <point x="172.14117647058822" y="419.9294117647059"/>
      <point x="145.78823529411764" y="441.9647058823529"/>
      <point x="145.78823529411764" y="518.1647058823529" type="curve" smooth="yes"/>
      <point x="145.78823529411764" y="619.5647058823529"/>
      <point x="185.47058823529412" y="623.2941176470588"/>
      <point x="285.0235294117647" y="623.2941176470588" type="curve" smooth="yes"/>
      <point x="349.21176470588233" y="623.2941176470588"/>
      <point x="422.15294117647056" y="620.7529411764706"/>
      <point x="479.9647058823529" y="618.2117647058824" type="curve"/>
      <point x="486.09315294117647" y="682.4739529411764" type="line"/>
      <point x="417.1294117647059" y="697.4588235294118"/>
      <point x="345.83529411764704" y="701.4588235294118"/>
    </contour>
    <contour>
      <point x="261.32941176470587" y="353.3764705882353" type="line"/>
      <point x="224.38823529411764" y="-126.97647058823529" type="line"/>
      <point x="270.18823529411765" y="-126.97647058823529" type="line"/>
      <point x="306.4" y="350.83529411764704" type="line"/>
    </contour>
    <contour>
      <point x="344.98823529411766" y="798.8941176470588" type="line"/>
      <point x="299.91764705882355" y="798.8941176470588" type="line"/>
      <point x="266.43529411764706" y="353.3764705882353" type="line"/>
      <point x="312.2352941176471" y="350.83529411764704" type="line"/>
    </contour>
  </outline>
</glyph>
<glyph name="ampersand" format="2">
  <advance width="772.0588235294117"/>
  <unicode hex="0026"/>
  <outline>
    <contour>
      <point x="347.5176470588235" y="700.1882352941177" type="curve" smooth="yes"/>
      <point x="164.68235294117648" y="700.1882352941177"/>
      <point x="86.87058823529412" y="681.0"/>
      <point x="86.87058823529412" y="521.0" type="curve" smooth="yes"/>
      <point x="86.87058823529412" y="421.54117647058825"/>
      <point x="117.6" y="367.7294117647059"/>
      <point x="202.41176470588235" y="360.0" type="curve"/>
      <point x="202.41176470588235" y="356.0" type="line"/>
      <point x="100.6" y="347.0"/>
      <point x="66.87058823529412" y="280.0"/>
      <point x="66.87058823529412" y="174.72941176470587" type="curve" smooth="yes"/>
      <point x="66.87058823529412" y="35.72941176470588"/>
      <point x="124.32941176470588" y="-10.188235294117646"/>
      <point x="268.78823529411767" y="-10.188235294117646" type="curve" smooth="yes"/>
      <point x="386.6823529411765" y="-10.188235294117646"/>
      <point x="455.9294117647059" y="18.894117647058824"/>
      <point x="521.364705882353" y="102.5764705882353" type="curve"/>
      <point x="507.36470588235295" y="156.50588235294117" type="line"/>
      <point x="453.84705882352944" y="95.5764705882353"/>
      <point x="386.7647058823529" y="66.78823529411764"/>
      <point x="289.4" y="66.05882352941177" type="curve" smooth="yes"/>
      <point x="190.11764705882354" y="66.05882352941177"/>
      <point x="159.24705882352941" y="94.5764705882353"/>
      <point x="159.24705882352941" y="189.31764705882352" type="curve" smooth="yes"/>
      <point x="159.24705882352941" y="293.6823529411765"/>
      <point x="197.2" y="323.6588235294118"/>
      <point x="305.6470588235294" y="323.6588235294118" type="curve" smooth="yes"/>
      <point x="701.7529411764706" y="323.6588235294118" type="line"/>
      <point x="702.564705882353" y="390.61176470588236" type="line"/>
      <point x="310.0235294117647" y="390.61176470588236" type="line" smooth="yes"/>
      <point x="209.9294117647059" y="390.61176470588236"/>
      <point x="176.3294117647059" y="414.77647058823527"/>
      <point x="176.3294117647059" y="509.05882352941177" type="curve" smooth="yes"/>
      <point x="176.3294117647059" y="612.2352941176471"/>
      <point x="217.5529411764706" y="627.5882352941177"/>
      <point x="345.05882352941177" y="627.5882352941177" type="curve" smooth="yes"/>
      <point x="392.81176470588235" y="627.5882352941177"/>
      <point x="470.38823529411764" y="626.5882352941177"/>
      <point x="496.6823529411765" y="624.5882352941177" type="curve"/>
      <point x="507.2470588235294" y="690.0" type="line"/>
      <point x="446.70588235294116" y="699.1882352941177"/>
      <point x="389.78823529411767" y="700.1882352941177"/>
    </contour>
    <contour>
      <point x="576.8823529411765" y="518.8941176470588" type="line"/>
      <point x="506.36470588235295" y="518.8941176470588" type="line"/>
      <point x="496.7176470588235" y="362.2705882352941" type="line"/>
      <point x="496.7176470588235" y="105.21176470588236" type="line" smooth="yes"/>
      <point x="496.7176470588235" y="32.917647058823526"/>
      <point x="539.2823529411764" y="-8.91764705882353"/>
      <point x="619.1176470588235" y="-8.91764705882353" type="curve" smooth="yes"/>
      <point x="644.1411764705882" y="-8.91764705882353"/>
      <point x="693.8941176470588" y="-4.729411764705882"/>
      <point x="724.5411764705882" y="3.647058823529412" type="curve"/>
      <point x="714.9764705882353" y="65.6" type="line"/>
      <point x="640.8352941176471" y="65.6" type="line" smooth="yes"/>
      <point x="594.9411764705883" y="65.6"/>
      <point x="576.8823529411765" y="83.84705882352941"/>
      <point x="576.8823529411765" y="131.01176470588234" type="curve" smooth="yes"/>
    </contour>
  </outline>
</glyph>
<glyph name="quotesingle" format="2">
  <advance width="209.48235294117646"/>
  <unicode hex="0027"/>
  <outline>
    <contour>
      <point x="139.71764705882353" y="690.0" type="line"/>
      <point x="70.49411764705883" y="690.0" type="line"/>
      <point x="75.41176470588235" y="475.43529411764706" type="line"/>
      <point x="134.0705882352941" y="475.43529411764706" type="line"/>
    </contour>
  </outline>
</glyph>
<glyph name="parenleft" format="2">
  <advance width="359.3764705882353"/>
  <unicode hex="0028"/>
  <outline>
    <contour>
      <point x="316.94117647058823" y="790.0" type="line"/>
      <point x="135.7058823529412" y="720.564705882353"/>
      <point x="53.68235294117647" y="570.564705882353"/>
      <point x="53.68235294117647" y="312.0" type="curve" smooth="yes"/>
      <point x="53.68235294117647" y="55.43529411764706"/>
      <point x="135.7058823529412" y="-94.56470588235294"/>
      <point x="316.94117647058823" y="-165.0" type="curve"/>
      <point x="327.50588235294117" y="-124.38823529411765" type="line"/>
      <point x="194.36470588235295" y="-55.32941176470588"/>
      <point x="137.30588235294118" y="89.67058823529412"/>
      <point x="137.30588235294118" y="313.0" type="curve" smooth="yes"/>
      <point x="137.30588235294118" y="540.3294117647059"/>
      <point x="194.36470588235295" y="684.3294117647059"/>
      <point x="327.50588235294117" y="749.3882352941176" type="curve"/>
    </contour>
  </outline>
</glyph>
<glyph name="parenright" format="2">
  <advance width="359.3764705882353"/>
  <unicode hex="0029"/>
  <outline>
    <contour>
      <point x="42.43529411764706" y="790.0" type="curve"/>
      <point x="31.870588235294118" y="749.3882352941176" type="line"/>
      <point x="165.01176470588234" y="684.3294117647059"/>
      <point x="222.0705882352941" y="540.3294117647059"/>
      <point x="222.0705882352941" y="313.0" type="curve" smooth="yes"/>
      <point x="222.0705882352941" y="89.67058823529412"/>
      <point x="165.01176470588234" y="-55.32941176470588"/>
      <point x="31.870588235294118" y="-124.38823529411765" type="curve"/>
      <point x="42.43529411764706" y="-165.0" type="line"/>
      <point x="223.6705882352941" y="-94.56470588235294"/>
      <point x="305.6941176470588" y="55.43529411764706"/>
      <point x="305.6941176470588" y="312.0" type="curve" smooth="yes"/>
      <point x="305.6941176470588" y="570.564705882353"/>
      <point x="223.6705882352941" y="720.564705882353"/>
    </contour>
  </outline>
</glyph>
<glyph name="asterisk" format="2">
  <advance width="450.08235294117645"/>
  <unicode hex="002A"/>
  <outline>
    <contour>
      <point x="251.4" y="690.7294117647059" type="line"/>
      <point x="198.95294117647057" y="690.7294117647059" type="line"/>
      <point x="206.3294117647059" y="530.435294117647" type="line"/>
      <point x="105.76470588235294" y="402.43529411764706" type="line"/>
      <point x="148.10588235294117" y="371.9294117647059" type="line"/>
      <point x="224.54117647058823" y="494.47058823529414" type="line"/>
      <point x="301.9764705882353" y="370.9294117647059" type="line"/>
      <point x="343.3176470588235" y="401.43529411764706" type="line"/>
      <point x="242.75294117647059" y="530.435294117647" type="line"/>
    </contour>
    <contour>
      <point x="70.51764705882353" y="601.4823529411765" type="line"/>
      <point x="53.76470588235294" y="552.4941176470588" type="line"/>
      <point x="178.03529411764706" y="518.6" type="line"/>
      <point x="188.6" y="533.1647058823529" type="line"/>
      <point x="189.6" y="555.2941176470588" type="line"/>
    </contour>
    <contour>
      <point x="379.83529411764704" y="600.9411764705883" type="line"/>
      <point x="260.4823529411765" y="555.2941176470588" type="line"/>
      <point x="260.4823529411765" y="533.1647058823529" type="line"/>
      <point x="271.77647058823527" y="518.6" type="line"/>
      <point x="396.5882352941176" y="551.2235294117647" type="line"/>
    </contour>
  </outline>
</glyph>
<glyph name="plus" format="2">
  <advance width="550.8117647058823"/>
  <unicode hex="002B"/>
  <outline>
    <contour>
      <point x="493.7529411764706" y="330.61176470588236" type="line"/>
      <point x="56.32941176470588" y="330.61176470588236" type="line"/>
      <point x="56.32941176470588" y="267.0352941176471" type="line"/>
      <point x="493.7529411764706" y="267.0352941176471" type="line"/>
    </contour>
    <contour>
      <point x="307.6941176470588" y="507.4" type="line"/>
      <point x="241.65882352941176" y="507.4" type="line"/>
      <point x="242.65882352941176" y="90.24705882352941" type="line"/>
      <point x="307.4235294117647" y="90.24705882352941" type="line"/>
    </contour>
  </outline>
</glyph>
<glyph name="comma" format="2">
  <advance width="227.69411764705882"/>
  <unicode hex="002C"/>
  <outline>
    <contour>
      <point x="127.23529411764706" y="118.09411764705882" type="curve" smooth="yes"/>
      <point x="102.18823529411765" y="118.09411764705882" type="line" smooth="yes"/>
      <point x="79.6" y="118.09411764705882"/>
      <point x="70.49411764705883" y="109.71764705882353"/>
      <point x="69.30588235294118" y="86.4" type="curve" smooth="yes"/>
      <point x="69.03529411764706" y="27.50588235294118" type="line" smooth="yes"/>
      <point x="68.76470588235294" y="10.564705882352941"/>
      <point x="77.87058823529412" y="0.0"/>
      <point x="92.81176470588235" y="0.0" type="curve"/>
      <point x="92.81176470588235" y="-48.811764705882354"/>
      <point x="89.62352941176471" y="-79.29411764705883"/>
      <point x="82.97647058823529" y="-120.02352941176471" type="curve"/>
      <point x="123.4235294117647" y="-131.58823529411765" type="line"/>
      <point x="144.63529411764705" y="-86.75294117647059"/>
      <point x="157.2" y="-34.752941176470586"/>
      <point x="158.2" y="22.4" type="curve" smooth="yes"/>
      <point x="157.74117647058824" y="86.4" type="line" smooth="yes"/>
      <point x="158.2" y="109.71764705882353"/>
      <point x="150.5529411764706" y="118.09411764705882"/>
    </contour>
  </outline>
</glyph>
<glyph name="hyphen" format="2">
  <advance width="448.7176470588235"/>
  <unicode hex="002D"/>
  <outline>
    <contour>
      <point x="376.5764705882353" y="285.3411764705882" type="line"/>
      <point x="72.14117647058823" y="285.3411764705882" type="line"/>
      <point x="72.14117647058823" y="220.30588235294118" type="line"/>
      <point x="376.5764705882353" y="220.30588235294118" type="line"/>
    </contour>
  </outline>
</glyph>
<glyph name="period" format="2">
  <advance width="228.61176470588236"/>
  <unicode hex="002E"/>
  <outline>
    <contour>
      <point x="128.42352941176472" y="118.09411764705882" type="curve" smooth="yes"/>
      <point x="100.18823529411765" y="118.09411764705882" type="line" smooth="yes"/>
      <point x="76.87058823529412" y="118.09411764705882"/>
      <point x="68.49411764705883" y="109.71764705882353"/>
      <point x="68.49411764705883" y="86.4" type="curve" smooth="yes"/>
      <point x="68.49411764705883" y="31.694117647058825" type="line" smooth="yes"/>
      <point x="68.49411764705883" y="8.376470588235295"/>
      <point x="76.87058823529412" y="0.0"/>
      <point x="100.18823529411765" y="0.0" type="curve" smooth="yes"/>
      <point x="128.42352941176472" y="0.0" type="line" smooth="yes"/>
      <point x="151.74117647058824" y="0.0"/>
      <point x="160.11764705882354" y="8.376470588235295"/>
      <point x="160.11764705882354" y="31.694117647058825" type="curve" smooth="yes"/>
      <point x="160.11764705882354" y="86.4" type="line" smooth="yes"/>
      <point x="160.11764705882354" y="109.71764705882353"/>
      <point x="151.74117647058824" y="118.09411764705882"/>
    </contour>
  </outline>
</glyph>
<glyph name="slash" format="2">
  <advance width="517.3411764705883"/>
  <unicode hex="002F"/>
  <outline>
    <contour>
      <point x="490.2823529411765" y="690.0" type="line"/>
      <point x="420.05882352941177" y="690.0" type="line"/>
      <point x="27.058823529411764" y="-65.56470588235294" type="line"/>
      <point x="97.28235294117647" y="-65.56470588235294" type="line"/>
    </contour>
  </outline>
</glyph>
<glyph name="zero" format="2">
  <advance width="602.964705882353"/>
  <unicode hex="0030"/>
  <outline>
    <contour>
      <point x="301.4823529411765" y="702.7294117647059" type="curve" smooth="yes"/>
      <point x="124.43529411764706" y="702.7294117647059"/>
      <point x="63.870588235294115" y="597.4823529411765"/>
      <point x="63.870588235294115" y="345.0" type="curve" smooth="yes"/>
      <point x="63.870588235294115" y="92.51764705882353"/>
      <point x="124.43529411764706" y="-12.729411764705882"/>
      <point x="301.4823529411765" y="-12.729411764705882" type="curve" smooth="yes"/>
      <point x="478.52941176470586" y="-12.729411764705882"/>
      <point x="539.0941176470589" y="92.51764705882353"/>
      <point x="539.0941176470589" y="345.0" type="curve" smooth="yes"/>
      <point x="539.0941176470589" y="597.4823529411765"/>
      <point x="478.52941176470586" y="702.7294117647059"/>
    </contour>
    <contour>
      <point x="300.7529411764706" y="626.4823529411765" type="curve" smooth="yes"/>
      <point x="416.49411764705883" y="626.4823529411765"/>
      <point x="453.28235294117644" y="548.9294117647058"/>
      <point x="453.28235294117644" y="345.0" type="curve" smooth="yes"/>
      <point x="453.28235294117644" y="141.0705882352941"/>
      <point x="416.49411764705883" y="63.51764705882353"/>
      <point x="300.7529411764706" y="63.51764705882353" type="curve" smooth="yes"/>
      <point x="186.47058823529412" y="63.51764705882353"/>
      <point x="149.68235294117648" y="141.0705882352941"/>
      <point x="149.68235294117648" y="345.0" type="curve" smooth="yes"/>
      <point x="149.68235294117648" y="548.9294117647058"/>
      <point x="186.47058823529412" y="626.4823529411765"/>
    </contour>
  </outline>
</glyph>
<glyph name="one" format="2">
  <advance width="398.4235294117647"/>
  <unicode hex="0031"/>
  <outline>
    <contour>
      <point x="286.01176470588234" y="690.0" type="line"/>
      <point x="198.28235294117647" y="690.0" type="line"/>
      <point x="22.41176470588235" y="619.1882352941177" type="line"/>
      <point x="33.976470588235294" y="554.3176470588236" type="line"/>
      <point x="202.74117647058824" y="607.1058823529412" type="line"/>
      <point x="199.28235294117647" y="587.0"/>
      <point x="198.28235294117647" y="567.3529411764706"/>
      <point x="198.28235294117647" y="547.2470588235294" type="curve" smooth="yes"/>
      <point x="198.28235294117647" y="0.0" type="line"/>
      <point x="286.01176470588234" y="0.0" type="line"/>
    </contour>
  </outline>
</glyph>
<glyph name="two" format="2">
  <advance width="562.1058823529412"/>
  <unicode hex="0032"/>
  <outline>
    <contour>
      <point x="271.29411764705884" y="702.0" type="curve" smooth="yes"/>
      <point x="209.45882352941177" y="702.0"/>
      <point x="154.9764705882353" y="698.0"/>
      <point x="60.705882352941174" y="676.4588235294118" type="curve"/>
      <point x="66.70588235294117" y="608.1294117647059" type="line"/>
      <point x="153.16470588235293" y="621.7529411764706"/>
      <point x="200.16470588235293" y="624.2941176470588"/>
      <point x="264.6235294117647" y="624.2941176470588" type="curve" smooth="yes"/>
      <point x="344.38823529411764" y="624.2941176470588"/>
      <point x="391.6941176470588" y="616.4823529411765"/>
      <point x="394.2352941176471" y="549.3882352941176" type="curve" smooth="yes"/>
      <point x="396.50588235294117" y="483.16470588235296"/>
      <point x="355.50588235294117" y="414.45882352941175"/>
      <point x="268.3411764705882" y="318.8588235294118" type="curve" smooth="yes"/>
      <point x="68.45882352941176" y="92.91764705882353" type="line" smooth="yes"/>
      <point x="58.16470588235294" y="81.62352941176471"/>
      <point x="55.43529411764706" y="70.32941176470588"/>
      <point x="55.43529411764706" y="54.84705882352941" type="curve" smooth="yes"/>
      <point x="55.43529411764706" y="0.0" type="line"/>
      <point x="508.4" y="0.0" type="line"/>
      <point x="508.4" y="84.72941176470589" type="line"/>
      <point x="273.81176470588235" y="84.72941176470589" type="line" smooth="yes"/>
      <point x="238.18823529411765" y="84.72941176470589"/>
      <point x="197.45882352941177" y="84.0"/>
      <point x="161.83529411764707" y="81.08235294117647" type="curve"/>
      <point x="360.2823529411765" y="301.67058823529413" type="line" smooth="yes"/>
      <point x="451.8235294117647" y="403.83529411764704"/>
      <point x="483.2352941176471" y="466.3529411764706"/>
      <point x="483.2352941176471" y="553.0588235294117" type="curve" smooth="yes"/>
      <point x="483.2352941176471" y="677.6235294117647"/>
      <point x="402.94117647058823" y="702.0"/>
    </contour>
  </outline>
</glyph>
<glyph name="three" format="2">
  <advance width="556.3764705882353"/>
  <unicode hex="0033"/>
  <outline>
    <contour>
      <point x="257.94117647058823" y="702.7294117647059" type="curve" smooth="yes"/>
      <point x="193.56470588235294" y="702.7294117647059"/>
      <point x="131.81176470588235" y="696.7294117647059"/>
      <point x="63.705882352941174" y="685.0" type="curve"/>
      <point x="70.70588235294117" y="616.6705882352941" type="line"/>
      <point x="117.16470588235295" y="621.2117647058824"/>
      <point x="180.6235294117647" y="625.0235294117647"/>
      <point x="245.81176470588235" y="625.0235294117647" type="curve" smooth="yes"/>
      <point x="352.09411764705885" y="625.0235294117647"/>
      <point x="385.15294117647056" y="610.3411764705883"/>
      <point x="386.6941176470588" y="523.035294117647" type="curve" smooth="yes"/>
      <point x="387.4235294117647" y="459.22352941176473"/>
      <point x="376.3411764705882" y="398.2352941176471"/>
      <point x="265.78823529411767" y="397.4235294117647" type="curve" smooth="yes"/>
      <point x="138.24705882352941" y="396.61176470588236" type="line"/>
      <point x="138.24705882352941" y="328.28235294117644" type="line"/>
      <point x="265.78823529411767" y="328.01176470588234" type="line" smooth="yes"/>
      <point x="379.61176470588236" y="327.74117647058824"/>
      <point x="402.50588235294117" y="276.45882352941175"/>
      <point x="402.50588235294117" y="201.48235294117646" type="curve" smooth="yes"/>
      <point x="402.50588235294117" y="99.65882352941176"/>
      <point x="360.1764705882353" y="65.70588235294117"/>
      <point x="249.41176470588235" y="65.70588235294117" type="curve" smooth="yes"/>
      <point x="185.24705882352941" y="65.70588235294117"/>
      <point x="126.18823529411765" y="69.51764705882353"/>
      <point x="58.247058823529414" y="75.51764705882353" type="curve"/>
      <point x="52.247058823529414" y="5.0" type="line"/>
      <point x="121.62352941176471" y="-4.729411764705882"/>
      <point x="196.72941176470587" y="-12.729411764705882"/>
      <point x="271.1058823529412" y="-12.729411764705882" type="curve" smooth="yes"/>
      <point x="434.1294117647059" y="-12.729411764705882"/>
      <point x="491.77647058823527" y="52.35294117647059"/>
      <point x="489.50588235294117" y="192.0" type="curve" smooth="yes"/>
      <point x="487.50588235294117" y="286.56470588235294"/>
      <point x="459.6941176470588" y="350.0"/>
      <point x="369.52941176470586" y="365.0" type="curve"/>
      <point x="369.52941176470586" y="369.0" type="line"/>
      <point x="448.88235294117646" y="384.54117647058825"/>
      <point x="471.2352941176471" y="454.43529411764706"/>
      <point x="471.2352941176471" y="543.0" type="curve" smooth="yes"/>
      <point x="471.2352941176471" y="664.7294117647059"/>
      <point x="408.7529411764706" y="702.7294117647059"/>
    </contour>
  </outline>
</glyph>
<glyph name="four" format="2">
  <advance width="614.6941176470589"/>
  <unicode hex="0034"/>
  <outline>
    <contour>
      <point x="329.88235294117646" y="690.0" type="line"/>
      <point x="243.34117647058824" y="690.0" type="line"/>
      <point x="47.32941176470588" y="276.18823529411765" type="line" smooth="yes"/>
      <point x="23.682352941176468" y="224.6"/>
      <point x="55.976470588235294" y="169.01176470588234"/>
      <point x="113.02352941176471" y="169.01176470588234" type="curve" smooth="yes"/>
      <point x="479.47058823529414" y="169.01176470588234" type="line"/>
      <point x="570.635294117647" y="178.11764705882354" type="line"/>
      <point x="570.635294117647" y="240.61176470588236" type="line"/>
      <point x="162.05882352941177" y="240.61176470588236" type="line" smooth="yes"/>
      <point x="138.7058823529412" y="240.61176470588236"/>
      <point x="125.16470588235295" y="255.4"/>
      <point x="137.43529411764706" y="281.5882352941176" type="curve" smooth="yes"/>
    </contour>
    <contour>
      <point x="482.0705882352941" y="557.8117647058823" type="line"/>
      <point x="414.47058823529414" y="557.8117647058823" type="line"/>
      <point x="398.7176470588235" y="444.45882352941175" type="line"/>
      <point x="398.7176470588235" y="0.0" type="line"/>
      <point x="482.0705882352941" y="0.0" type="line"/>
    </contour>
  </outline>
</glyph>
<glyph name="five" format="2">
  <advance width="536.2117647058824"/>
  <unicode hex="0035"/>
  <outline>
    <contour>
      <point x="459.88235294117646" y="690.0" type="line"/>
      <point x="94.51764705882353" y="690.0" type="line"/>
      <point x="79.05882352941177" y="394.2705882352941" type="line" smooth="yes"/>
      <point x="78.05882352941177" y="373.1411764705882"/>
      <point x="92.08235294117647" y="356.9294117647059"/>
      <point x="112.48235294117647" y="355.47058823529414" type="curve" smooth="yes"/>
      <point x="157.8470588235294" y="351.8235294117647" type="line" smooth="yes"/>
      <point x="333.32941176470587" y="340.88235294117646"/>
      <point x="396.0705882352941" y="335.25882352941176"/>
      <point x="393.88235294117646" y="206.64705882352942" type="curve" smooth="yes"/>
      <point x="392.4235294117647" y="115.98823529411764"/>
      <point x="368.0705882352941" y="66.16470588235295"/>
      <point x="236.9764705882353" y="66.16470588235295" type="curve" smooth="yes"/>
      <point x="190.9764705882353" y="66.16470588235295"/>
      <point x="123.97647058823529" y="72.97647058823529"/>
      <point x="62.247058823529414" y="84.32941176470588" type="curve"/>
      <point x="51.870588235294115" y="13.08235294117647" type="line"/>
      <point x="126.43529411764706" y="-3.7294117647058824"/>
      <point x="201.91764705882352" y="-12.0"/>
      <point x="257.21176470588233" y="-12.0" type="curve" smooth="yes"/>
      <point x="446.4823529411765" y="-12.0"/>
      <point x="479.88235294117646" y="96.45882352941176"/>
      <point x="479.88235294117646" y="206.64705882352942" type="curve" smooth="yes"/>
      <point x="480.61176470588236" y="355.84705882352944"/>
      <point x="411.3058823529412" y="408.0235294117647"/>
      <point x="230.27058823529413" y="421.2352941176471" type="curve" smooth="yes"/>
      <point x="156.30588235294118" y="427.0705882352941" type="line"/>
      <point x="166.11764705882354" y="614.7529411764706" type="line"/>
      <point x="456.15294117647056" y="614.7529411764706" type="line"/>
    </contour>
  </outline>
</glyph>
<glyph name="six" format="2">
  <advance width="572.0235294117647"/>
  <unicode hex="0036"/>
  <outline>
    <contour>
      <point x="334.0" y="702.0" type="curve" smooth="yes"/>
      <point x="151.72941176470587" y="702.0"/>
      <point x="66.41176470588235" y="652.4588235294118"/>
      <point x="66.41176470588235" y="327.52941176470586" type="curve" smooth="yes"/>
      <point x="66.41176470588235" y="67.16470588235295"/>
      <point x="104.43529411764706" y="-12.0"/>
      <point x="298.83529411764704" y="-12.0" type="curve" smooth="yes"/>
      <point x="484.8588235294118" y="-12.0"/>
      <point x="517.4235294117647" y="80.94117647058823"/>
      <point x="517.4235294117647" y="222.7764705882353" type="curve" smooth="yes"/>
      <point x="517.4235294117647" y="390.0235294117647"/>
      <point x="472.6941176470588" y="450.4823529411765"/>
      <point x="327.50588235294117" y="450.4823529411765" type="curve" smooth="yes"/>
      <point x="231.50588235294117" y="450.4823529411765"/>
      <point x="181.42352941176472" y="423.4823529411765"/>
      <point x="116.15294117647059" y="329.3764705882353" type="curve"/>
      <point x="120.15294117647059" y="284.9294117647059" type="line"/>
      <point x="195.88235294117646" y="359.0705882352941"/>
      <point x="238.48235294117646" y="378.88235294117646"/>
      <point x="305.08235294117645" y="378.88235294117646" type="curve" smooth="yes"/>
      <point x="406.90588235294115" y="378.88235294117646"/>
      <point x="433.3411764705882" y="335.9294117647059"/>
      <point x="433.3411764705882" y="222.85882352941178" type="curve" smooth="yes"/>
      <point x="433.3411764705882" y="120.2"/>
      <point x="418.36470588235295" y="63.247058823529414"/>
      <point x="299.83529411764704" y="63.247058823529414" type="curve" smooth="yes"/>
      <point x="163.74117647058824" y="63.247058823529414"/>
      <point x="152.95294117647057" y="123.90588235294118"/>
      <point x="152.95294117647057" y="324.52941176470586" type="curve" smooth="yes"/>
      <point x="152.95294117647057" y="586.8823529411765"/>
      <point x="197.47058823529412" y="627.2117647058824"/>
      <point x="334.0" y="627.2117647058824" type="curve" smooth="yes"/>
      <point x="394.21176470588233" y="627.2117647058824"/>
      <point x="420.8588235294118" y="627.2117647058824"/>
      <point x="465.4235294117647" y="623.1294117647059" type="curve"/>
      <point x="473.4235294117647" y="687.0823529411765" type="line"/>
      <point x="417.4" y="702.0"/>
      <point x="361.6470588235294" y="702.0"/>
    </contour>
  </outline>
</glyph>
<glyph name="seven" format="2">
  <advance width="512.2941176470588"/>
  <unicode hex="0037"/>
  <outline>
    <contour>
      <point x="429.3764705882353" y="690.0" type="curve" smooth="yes"/>
      <point x="38.51764705882353" y="690.0" type="line"/>
      <point x="42.705882352941174" y="615.4823529411765" type="line"/>
      <point x="387.1294117647059" y="615.4823529411765" type="line"/>
      <point x="378.7529411764706" y="598.8352941176471"/>
      <point x="371.56470588235294" y="581.7294117647059"/>
      <point x="366.1058823529412" y="564.3529411764706" type="curve" smooth="yes"/>
      <point x="171.90588235294118" y="0.0" type="line"/>
      <point x="259.63529411764705" y="0.0" type="line"/>
      <point x="474.6941176470588" y="629.3058823529411" type="line" smooth="yes"/>
      <point x="486.88235294117646" y="667.3294117647059"/>
      <point x="470.4" y="690.0"/>
    </contour>
  </outline>
</glyph>
<glyph name="eight" format="2">
  <advance width="607.3529411764706"/>
  <unicode hex="0038"/>
  <outline>
    <contour>
      <point x="303.81176470588235" y="700.1882352941177" type="curve" smooth="yes"/>
      <point x="128.87058823529412" y="700.1882352941177"/>
      <point x="84.41176470588235" y="644.1882352941177"/>
      <point x="84.41176470588235" y="518.0" type="curve" smooth="yes"/>
      <point x="84.41176470588235" y="428.4823529411765"/>
      <point x="112.68235294117648" y="368.0"/>
      <point x="182.68235294117648" y="360.0" type="curve"/>
      <point x="182.68235294117648" y="356.0" type="line"/>
      <point x="95.76470588235294" y="347.0"/>
      <point x="68.95294117647059" y="279.5176470588235"/>
      <point x="68.95294117647059" y="172.0" type="curve" smooth="yes"/>
      <point x="68.95294117647059" y="46.10588235294118"/>
      <point x="117.14117647058823" y="-10.188235294117646"/>
      <point x="303.81176470588235" y="-10.188235294117646" type="curve" smooth="yes"/>
      <point x="493.4823529411765" y="-10.188235294117646"/>
      <point x="538.4" y="46.10588235294118"/>
      <point x="538.4" y="172.0" type="curve" smooth="yes"/>
      <point x="538.4" y="279.5176470588235"/>
      <point x="511.5882352941176" y="347.0"/>
      <point x="424.67058823529413" y="356.0" type="curve"/>
      <point x="424.67058823529413" y="360.0" type="line"/>
      <point x="494.67058823529413" y="368.0"/>
      <point x="522.9411764705883" y="428.4823529411765"/>
      <point x="522.9411764705883" y="518.0" type="curve" smooth="yes"/>
      <point x="522.9411764705883" y="644.1882352941177"/>
      <point x="479.7529411764706" y="699.7294117647059"/>
    </contour>
    <contour>
      <point x="305.54117647058825" y="322.9294117647059" type="curve" smooth="yes"/>
      <point x="426.52941176470586" y="322.9294117647059"/>
      <point x="454.3176470588235" y="299.01176470588234"/>
      <point x="454.3176470588235" y="190.23529411764707" type="curve" smooth="yes"/>
      <point x="454.3176470588235" y="96.92941176470589"/>
      <point x="427.0705882352941" y="65.6"/>
      <point x="304.54117647058825" y="65.6" type="curve" smooth="yes"/>
      <point x="181.8235294117647" y="65.6"/>
      <point x="152.30588235294118" y="96.92941176470589"/>
      <point x="152.30588235294118" y="190.23529411764707" type="curve" smooth="yes"/>
      <point x="152.30588235294118" y="297.01176470588234"/>
      <point x="181.28235294117647" y="321.9294117647059"/>
    </contour>
    <contour>
      <point x="304.54117647058825" y="629.0470588235294" type="curve" smooth="yes"/>
      <point x="418.52941176470586" y="629.0470588235294"/>
      <point x="442.50588235294117" y="599.7176470588236"/>
      <point x="442.50588235294117" y="509.9764705882353" type="curve" smooth="yes"/>
      <point x="442.50588235294117" y="416.52941176470586"/>
      <point x="421.52941176470586" y="393.0705882352941"/>
      <point x="305.54117647058825" y="393.0705882352941" type="curve" smooth="yes"/>
      <point x="192.09411764705882" y="393.0705882352941"/>
      <point x="164.8470588235294" y="415.25882352941176"/>
      <point x="164.8470588235294" y="509.9764705882353" type="curve" smooth="yes"/>
      <point x="164.8470588235294" y="599.7176470588236"/>
      <point x="191.09411764705882" y="629.0470588235294"/>
    </contour>
  </outline>
</glyph>
<glyph name="nine" format="2">
  <advance width="572.2941176470588"/>
  <unicode hex="0039"/>
  <outline>
    <contour>
      <point x="275.83529411764704" y="702.0" type="curve" smooth="yes"/>
      <point x="110.18823529411765" y="702.0"/>
      <point x="54.6" y="622.564705882353"/>
      <point x="55.32941176470588" y="464.5176470588235" type="curve" smooth="yes"/>
      <point x="55.32941176470588" y="334.56470588235294"/>
      <point x="100.14117647058823" y="239.51764705882354"/>
      <point x="241.78823529411764" y="239.51764705882354" type="curve" smooth="yes"/>
      <point x="337.5176470588235" y="239.51764705882354"/>
      <point x="387.6" y="266.5176470588235"/>
      <point x="452.8705882352941" y="360.6235294117647" type="curve"/>
      <point x="448.8705882352941" y="404.3411764705882" type="line"/>
      <point x="373.1411764705882" y="330.9294117647059"/>
      <point x="331.2705882352941" y="310.38823529411764"/>
      <point x="264.94117647058823" y="310.38823529411764" type="curve" smooth="yes"/>
      <point x="165.9294117647059" y="310.38823529411764"/>
      <point x="137.95294117647057" y="365.4235294117647"/>
      <point x="138.68235294117648" y="464.70588235294116" type="curve" smooth="yes"/>
      <point x="137.95294117647057" y="568.9058823529411"/>
      <point x="160.74117647058824" y="627.4823529411765"/>
      <point x="275.1058823529412" y="627.4823529411765" type="curve" smooth="yes"/>
      <point x="412.98823529411766" y="627.4823529411765"/>
      <point x="418.25882352941176" y="566.364705882353"/>
      <point x="418.25882352941176" y="355.3764705882353" type="curve" smooth="yes"/>
      <point x="418.25882352941176" y="114.54117647058824"/>
      <point x="375.4117647058824" y="63.51764705882353"/>
      <point x="235.75294117647059" y="63.51764705882353" type="curve" smooth="yes"/>
      <point x="166.81176470588235" y="63.51764705882353"/>
      <point x="142.9764705882353" y="64.05882352941177"/>
      <point x="95.41176470588235" y="67.6" type="curve"/>
      <point x="87.41176470588235" y="2.9176470588235297" type="line"/>
      <point x="148.89411764705883" y="-12.0"/>
      <point x="205.3764705882353" y="-12.0"/>
      <point x="236.48235294117646" y="-12.0" type="curve" smooth="yes"/>
      <point x="427.88235294117646" y="-12.0"/>
      <point x="502.61176470588236" y="44.294117647058826"/>
      <point x="503.3411764705882" y="353.2705882352941" type="curve" smooth="yes"/>
      <point x="503.3411764705882" y="619.1882352941177"/>
      <point x="476.67058823529413" y="702.0"/>
    </contour>
  </outline>
</glyph>
<glyph name="less" format="2">
  <advance width="530.0588235294117"/>
  <unicode hex="003C"/>
  <outline>
    <contour>
      <point x="459.45882352941175" y="505.77647058823527" type="line"/>
      <point x="53.32941176470588" y="331.52941176470586" type="line"/>
      <point x="53.32941176470588" y="264.3058823529412" type="line"/>
      <point x="459.45882352941175" y="93.14117647058823" type="line"/>
      <point x="459.45882352941175" y="161.09411764705882" type="line"/>
      <point x="126.92941176470589" y="297.91764705882355" type="line"/>
      <point x="459.45882352941175" y="437.8235294117647" type="line"/>
    </contour>
  </outline>
</glyph>
<glyph name="equal" format="2">
  <advance width="585.3529411764706"/>
  <unicode hex="003D"/>
  <outline>
    <contour>
      <point x="511.7529411764706" y="430.3411764705882" type="line"/>
      <point x="73.6" y="430.3411764705882" type="line"/>
      <point x="73.6" y="366.7647058823529" type="line"/>
      <point x="511.7529411764706" y="366.7647058823529" type="line"/>
    </contour>
    <contour>
      <point x="511.7529411764706" y="219.0705882352941" type="line"/>
      <point x="73.6" y="219.0705882352941" type="line"/>
      <point x="73.6" y="155.49411764705883" type="line"/>
      <point x="511.7529411764706" y="155.49411764705883" type="line"/>
    </contour>
  </outline>
</glyph>
<glyph name="greater" format="2">
  <advance width="530.0588235294117"/>
  <unicode hex="003E"/>
  <outline>
    <contour>
      <point x="70.6" y="505.77647058823527" type="line"/>
      <point x="70.6" y="437.8235294117647" type="line"/>
      <point x="403.1294117647059" y="297.91764705882355" type="line"/>
      <point x="70.6" y="161.09411764705882" type="line"/>
      <point x="70.6" y="93.14117647058823" type="line"/>
      <point x="476.7294117647059" y="264.3058823529412" type="line"/>
      <point x="476.7294117647059" y="331.52941176470586" type="line"/>
    </contour>
  </outline>
</glyph>
<glyph name="question" format="2">
  <advance width="504.81176470588235"/>
  <unicode hex="003F"/>
  <outline>
    <contour>
      <point x="259.56470588235294" y="712.0" type="curve" smooth="yes"/>
      <point x="140.81176470588235" y="712.0"/>
      <point x="108.89411764705882" y="702.5411764705882"/>
      <point x="39.78823529411765" y="691.0823529411765" type="curve"/>
      <point x="44.78823529411765" y="630.0470588235294" type="line"/>
      <point x="111.78823529411764" y="636.1294117647059"/>
      <point x="142.51764705882354" y="639.6705882352941"/>
      <point x="242.05882352941177" y="639.6705882352941" type="curve" smooth="yes"/>
      <point x="334.25882352941176" y="639.6705882352941"/>
      <point x="374.4" y="608.6117647058824"/>
      <point x="372.21176470588233" y="542.4117647058823" type="curve" smooth="yes"/>
      <point x="369.29411764705884" y="431.77647058823527"/>
      <point x="203.63529411764705" y="395.54117647058825"/>
      <point x="207.28235294117647" y="211.0235294117647" type="curve"/>
      <point x="280.15294117647056" y="211.0235294117647" type="line"/>
      <point x="285.98823529411766" y="383.6470588235294"/>
      <point x="462.1294117647059" y="406.91764705882355"/>
      <point x="462.1294117647059" y="557.0" type="curve" smooth="yes"/>
      <point x="462.1294117647059" y="663.0"/>
      <point x="394.1294117647059" y="712.0"/>
    </contour>
    <contour>
      <point x="254.64705882352942" y="118.09411764705882" type="curve" smooth="yes"/>
      <point x="232.24705882352941" y="118.09411764705882" type="line" smooth="yes"/>
      <point x="208.9294117647059" y="118.09411764705882"/>
      <point x="200.5529411764706" y="109.71764705882353"/>
      <point x="200.5529411764706" y="86.4" type="curve" smooth="yes"/>
      <point x="200.5529411764706" y="31.694117647058825" type="line" smooth="yes"/>
      <point x="200.5529411764706" y="8.376470588235295"/>
      <point x="208.9294117647059" y="0.0"/>
      <point x="232.24705882352941" y="0.0" type="curve" smooth="yes"/>
      <point x="254.64705882352942" y="0.0" type="line" smooth="yes"/>
      <point x="277.9647058823529" y="0.0"/>
      <point x="286.3411764705882" y="8.376470588235295"/>
      <point x="286.3411764705882" y="31.694117647058825" type="curve" smooth="yes"/>
      <point x="286.3411764705882" y="86.4" type="line" smooth="yes"/>
      <point x="286.3411764705882" y="109.71764705882353"/>
      <point x="277.9647058823529" y="118.09411764705882"/>
    </contour>
  </outline>
</glyph>
<glyph name="at" format="2">
  <advance width="717.8"/>
  <unicode hex="0040"/>
  <outline>
    <contour>
      <point x="495.2352941176471" y="584.5058823529412" type="curve" smooth="yes"/>
      <point x="351.5882352941176" y="584.5058823529412" type="line" smooth="yes"/>
      <point x="102.68235294117648" y="583.2352941176471"/>
      <point x="75.03529411764706" y="546.1294117647059"/>
      <point x="75.03529411764706" y="266.18823529411765" type="curve" smooth="yes"/>
      <point x="75.03529411764706" y="-21.83529411764706"/>
      <point x="106.41176470588235" y="-60.48235294117647"/>
      <point x="386.3411764705882" y="-57.94117647058823" type="curve" smooth="yes"/>
      <point x="472.1764705882353" y="-57.94117647058823"/>
      <point x="558.0117647058823" y="-54.752941176470586"/>
      <point x="643.1176470588235" y="-49.83529411764706" type="curve"/>
      <point x="643.1176470588235" y="13.658823529411766" type="line"/>
      <point x="385.3411764705882" y="13.658823529411766" type="line" smooth="yes"/>
      <point x="180.2" y="13.658823529411766"/>
      <point x="155.9294117647059" y="21.176470588235297"/>
      <point x="155.9294117647059" y="266.45882352941175" type="curve" smooth="yes"/>
      <point x="155.9294117647059" y="502.74117647058824"/>
      <point x="179.01176470588234" y="513.635294117647"/>
      <point x="351.8588235294118" y="513.635294117647" type="curve" smooth="yes"/>
      <point x="479.6470588235294" y="513.635294117647" type="line" smooth="yes"/>
      <point x="545.9529411764706" y="513.9058823529411"/>
      <point x="565.5764705882353" y="492.78823529411767"/>
      <point x="565.5764705882353" y="439.78823529411767" type="curve" smooth="yes"/>
      <point x="565.5764705882353" y="397.0470588235294" type="line"/>
      <point x="358.8588235294118" y="397.0470588235294" type="line" smooth="yes"/>
      <point x="283.21176470588233" y="397.0470588235294"/>
      <point x="244.12941176470588" y="358.4"/>
      <point x="244.12941176470588" y="293.94117647058823" type="curve" smooth="yes"/>
      <point x="244.12941176470588" y="242.85882352941178" type="line" smooth="yes"/>
      <point x="244.12941176470588" y="164.18823529411765"/>
      <point x="297.4235294117647" y="124.0"/>
      <point x="374.6941176470588" y="124.0" type="curve" smooth="yes"/>
      <point x="458.4" y="124.0"/>
      <point x="537.7058823529412" y="170.35294117647058"/>
      <point x="573.6" y="207.08235294117648" type="curve"/>
      <point x="582.2470588235294" y="131.91764705882352" type="line"/>
      <point x="645.9294117647058" y="131.91764705882352" type="line"/>
      <point x="645.9294117647058" y="442.70588235294116" type="line" smooth="yes"/>
      <point x="645.9294117647058" y="546.4"/>
      <point x="590.8235294117648" y="584.5058823529412"/>
    </contour>
    <contour>
      <point x="565.5764705882353" y="345.0352941176471" type="line"/>
      <point x="565.5764705882353" y="257.98823529411766" type="line"/>
      <point x="520.2470588235294" y="215.63529411764705"/>
      <point x="446.77647058823527" y="191.68235294117648"/>
      <point x="390.47058823529414" y="191.95294117647057" type="curve" smooth="yes"/>
      <point x="347.3529411764706" y="192.2235294117647"/>
      <point x="323.56470588235294" y="210.28235294117647"/>
      <point x="323.56470588235294" y="257.71764705882356" type="curve" smooth="yes"/>
      <point x="323.56470588235294" y="283.7294117647059" type="line" smooth="yes"/>
      <point x="323.56470588235294" y="323.2470588235294"/>
      <point x="340.9764705882353" y="339.0352941176471"/>
      <point x="388.0352941176471" y="341.0352941176471" type="curve" smooth="yes"/>
    </contour>
  </outline>
</glyph>
<glyph name="A" format="2">
  <advance width="621.964705882353"/>
  <unicode hex="0041"/>
  <anchor x="310.4823529411765" y="-12.0" name="bottom"/>
  <anchor x="611.7176470588236" y="0.0" name="ogonek"/>
  <anchor x="311.4823529411765" y="726.8705882352941" name="top"/>
  <outline>
    <contour>
      <point x="357.2823529411765" y="690.0" type="curve" smooth="yes"/>
      <point x="264.6823529411765" y="690.0" type="line" smooth="yes"/>
      <point x="249.2" y="690.0"/>
      <point x="236.1764705882353" y="681.1647058823529"/>
      <point x="231.98823529411766" y="665.6823529411764" type="curve" smooth="yes"/>
      <point x="10.24705882352941" y="0.0" type="line"/>
      <point x="100.70588235294117" y="0.0" type="line"/>
      <point x="280.1294117647059" y="566.0470588235294" type="line" smooth="yes"/>
      <point x="285.67058823529413" y="584.3176470588236"/>
      <point x="291.67058823529413" y="603.7764705882353"/>
      <point x="297.21176470588233" y="622.0470588235294" type="curve"/>
      <point x="324.7529411764706" y="622.0470588235294" type="line"/>
      <point x="329.56470588235294" y="603.7764705882353"/>
      <point x="336.29411764705884" y="584.3176470588236"/>
      <point x="341.83529411764704" y="566.0470588235294" type="curve" smooth="yes"/>
      <point x="521.2588235294118" y="0.0" type="line"/>
      <point x="611.7176470588236" y="0.0" type="line"/>
      <point x="389.9764705882353" y="665.6823529411764" type="line" smooth="yes"/>
      <point x="385.78823529411767" y="681.1647058823529"/>
      <point x="372.7647058823529" y="690.0"/>
    </contour>
    <contour>
      <point x="485.4823529411765" y="291.50588235294117" type="line"/>
      <point x="135.48235294117646" y="291.50588235294117" type="line"/>
      <point x="135.48235294117646" y="215.52941176470588" type="line"/>
      <point x="485.4823529411765" y="215.52941176470588" type="line"/>
    </contour>
  </outline>
</glyph>
<glyph name="B" format="2">
  <advance width="620.0235294117647"/>
  <unicode hex="0042"/>
  <outline>
    <contour>
      <point x="310.8588235294118" y="698.0" type="curve" smooth="yes"/>
      <point x="209.18823529411765" y="698.0"/>
      <point x="156.24705882352941" y="697.0"/>
      <point x="86.95294117647059" y="690.0" type="curve"/>
      <point x="100.95294117647059" y="620.2117647058824" type="line"/>
      <point x="141.0" y="623.6705882352941"/>
      <point x="209.0" y="623.2117647058824"/>
      <point x="307.21176470588233" y="623.2117647058824" type="curve" smooth="yes"/>
      <point x="417.6588235294118" y="623.2117647058824"/>
      <point x="455.8" y="601.5058823529412"/>
      <point x="455.8" y="507.78823529411767" type="curve" smooth="yes"/>
      <point x="455.8" y="414.77647058823527"/>
      <point x="421.2" y="391.61176470588236"/>
      <point x="321.3764705882353" y="391.3411764705882" type="curve" smooth="yes"/>
      <point x="99.95294117647059" y="391.3411764705882" type="line"/>
      <point x="99.95294117647059" y="323.6588235294118" type="line"/>
      <point x="322.1058823529412" y="323.6588235294118" type="line" smooth="yes"/>
      <point x="434.74117647058824" y="322.38823529411764"/>
      <point x="472.88235294117646" y="293.6823529411765"/>
      <point x="472.88235294117646" y="186.58823529411765" type="curve" smooth="yes"/>
      <point x="472.88235294117646" y="89.2235294117647"/>
      <point x="437.01176470588234" y="66.78823529411764"/>
      <point x="328.45882352941175" y="66.78823529411764" type="curve" smooth="yes"/>
      <point x="218.43529411764706" y="66.78823529411764"/>
      <point x="130.41176470588235" y="67.78823529411764"/>
      <point x="100.95294117647059" y="69.78823529411764" type="curve"/>
      <point x="86.95294117647059" y="0.0" type="line"/>
      <point x="165.24705882352941" y="-7.0"/>
      <point x="224.45882352941177" y="-8.0"/>
      <point x="341.5882352941176" y="-8.0" type="curve" smooth="yes"/>
      <point x="499.77647058823527" y="-8.0"/>
      <point x="561.6117647058824" y="30.0"/>
      <point x="561.6117647058824" y="172.0" type="curve" smooth="yes"/>
      <point x="561.6117647058824" y="282.0"/>
      <point x="526.8823529411765" y="347.0"/>
      <point x="423.88235294117646" y="356.0" type="curve"/>
      <point x="423.88235294117646" y="360.0" type="line"/>
      <point x="506.61176470588236" y="368.0"/>
      <point x="540.8823529411765" y="419.0"/>
      <point x="540.8823529411765" y="518.0" type="curve" smooth="yes"/>
      <point x="540.8823529411765" y="660.0"/>
      <point x="480.4235294117647" y="698.0"/>
    </contour>
    <contour>
      <point x="173.2235294117647" y="690.0" type="line"/>
      <point x="86.95294117647059" y="690.0" type="line"/>
      <point x="86.95294117647059" y="0.0" type="line"/>
      <point x="173.2235294117647" y="0.0" type="line"/>
    </contour>
  </outline>
</glyph>
<glyph name="D" format="2">
  <advance width="664.1058823529412"/>
  <unicode hex="0044"/>
  <anchor x="323.18823529411765" y="-12.0" name="bottom"/>
  <anchor x="318.16470588235296" y="734.1647058823529" name="top"/>
  <outline>
    <contour>
      <point x="332.7294117647059" y="699.0" type="curve" smooth="yes"/>
      <point x="237.7058823529412" y="699.0"/>
      <point x="158.78823529411764" y="695.0"/>
      <point x="86.95294117647059" y="690.0" type="curve"/>
      <point x="125.4" y="620.2117647058824" type="line"/>
      <point x="187.48235294117646" y="620.7529411764706"/>
      <point x="250.3764705882353" y="622.7529411764706"/>
      <point x="332.7294117647059" y="622.7529411764706" type="curve" smooth="yes"/>
      <point x="465.1764705882353" y="622.7529411764706"/>
      <point x="509.5882352941176" y="553.5294117647059"/>
      <point x="509.5882352941176" y="345.0" type="curve" smooth="yes"/>
      <point x="509.5882352941176" y="136.47058823529412"/>
      <point x="465.1764705882353" y="67.97647058823529"/>
      <point x="332.7294117647059" y="67.97647058823529" type="curve" smooth="yes"/>
      <point x="249.18823529411765" y="67.97647058823529"/>
      <point x="180.72941176470587" y="69.97647058823529"/>
      <point x="124.75294117647059" y="71.70588235294117" type="curve"/>
      <point x="86.95294117647059" y="0.0" type="line"/>
      <point x="159.05882352941177" y="-5.0"/>
      <point x="238.16470588235293" y="-9.0"/>
      <point x="332.7294117647059" y="-9.0" type="curve" smooth="yes"/>
      <point x="530.8588235294118" y="-9.0"/>
      <point x="601.964705882353" y="78.43529411764706"/>
      <point x="601.964705882353" y="345.0" type="curve" smooth="yes"/>
      <point x="601.964705882353" y="611.564705882353"/>
      <point x="530.8588235294118" y="699.0"/>
    </contour>
    <contour>
      <point x="174.68235294117648" y="690.0" type="line"/>
      <point x="86.95294117647059" y="690.0" type="line"/>
      <point x="86.95294117647059" y="0.0" type="line"/>
      <point x="174.68235294117648" y="0.0" type="line"/>
    </contour>
  </outline>
</glyph>
<glyph name="E" format="2">
  <advance width="560.4823529411765"/>
  <unicode hex="0045"/>
  <guideline x="150.30588235294118" y="550.9882352941177" angle="0.0"/>
  <anchor x="299.91764705882355" y="0.0" name="bottom"/>
  <anchor x="509.77647058823527" y="5.458823529411765" name="ogonek"/>
  <anchor x="310.0" y="747.4941176470588" name="top"/>
  <outline>
    <contour>
      <point x="214.31764705882352" y="691.4588235294118" type="curve" smooth="yes"/>
      <point x="133.43529411764706" y="691.4588235294118"/>
      <point x="81.68235294117648" y="644.8117647058823"/>
      <point x="80.95294117647059" y="571.2235294117647" type="curve" smooth="yes"/>
      <point x="80.95294117647059" y="118.7764705882353" type="line" smooth="yes"/>
      <point x="81.68235294117648" y="45.188235294117646"/>
      <point x="132.7058823529412" y="-1.4588235294117649"/>
      <point x="214.31764705882352" y="-1.4588235294117649" type="curve" smooth="yes"/>
      <point x="313.0470588235294" y="-1.4588235294117649"/>
      <point x="417.61176470588236" y="-1.4588235294117649"/>
      <point x="509.77647058823527" y="5.458823529411765" type="curve"/>
      <point x="505.5882352941176" y="73.05882352941177" type="line"/>
      <point x="228.8" y="73.05882352941177" type="line" smooth="yes"/>
      <point x="188.09411764705882" y="73.05882352941177"/>
      <point x="169.41176470588235" y="93.2"/>
      <point x="169.41176470588235" y="139.74117647058824" type="curve" smooth="yes"/>
      <point x="169.41176470588235" y="549.5294117647059" type="line" smooth="yes"/>
      <point x="169.41176470588235" y="596.0705882352942"/>
      <point x="188.09411764705882" y="616.2117647058824"/>
      <point x="228.8" y="616.2117647058824" type="curve" smooth="yes"/>
      <point x="505.5882352941176" y="616.2117647058824" type="line"/>
      <point x="509.77647058823527" y="684.5411764705882" type="line"/>
      <point x="417.61176470588236" y="691.4588235294118"/>
      <point x="313.0470588235294" y="691.4588235294118"/>
    </contour>
    <contour>
      <point x="98.68235294117648" y="399.9647058823529" type="line"/>
      <point x="98.68235294117648" y="329.09411764705885" type="line"/>
      <point x="466.77647058823527" y="329.36470588235295" type="line"/>
      <point x="466.77647058823527" y="399.6941176470588" type="line"/>
    </contour>
  </outline>
</glyph>
<glyph name="F" format="2">
  <advance width="538.7529411764706"/>
  <unicode hex="0046"/>
  <outline>
    <contour>
      <point x="218.04705882352943" y="691.4588235294118" type="curve" smooth="yes"/>
      <point x="137.16470588235293" y="691.4588235294118"/>
      <point x="84.68235294117648" y="645.5411764705882"/>
      <point x="84.68235294117648" y="566.8470588235294" type="curve" smooth="yes"/>
      <point x="84.68235294117648" y="0.0" type="line"/>
      <point x="173.14117647058822" y="0.0" type="line"/>
      <point x="173.14117647058822" y="549.5294117647059" type="line" smooth="yes"/>
      <point x="173.14117647058822" y="596.0705882352942"/>
      <point x="193.28235294117647" y="616.2117647058824"/>
      <point x="239.8235294117647" y="616.2117647058824" type="curve" smooth="yes"/>
      <point x="499.4" y="616.2117647058824" type="line"/>
      <point x="504.3176470588235" y="683.8117647058823" type="line"/>
      <point x="414.88235294117646" y="691.4588235294118"/>
      <point x="314.0470588235294" y="691.4588235294118"/>
    </contour>
    <contour>
      <point x="101.68235294117648" y="390.1294117647059" type="line"/>
      <point x="101.68235294117648" y="318.52941176470586" type="line"/>
      <point x="461.3176470588235" y="318.8" type="line"/>
      <point x="461.3176470588235" y="389.8588235294118" type="line"/>
    </contour>
  </outline>
</glyph>
<glyph name="G" format="2">
  <advance width="627.8352941176471"/>
  <unicode hex="0047"/>
  <anchor x="329.21176470588233" y="-3.2470588235294118" name="bottom"/>
  <anchor x="327.6470588235294" y="741.4588235294118" name="top"/>
  <outline>
    <contour>
      <point x="350.0470588235294" y="702.7294117647059" type="curve" smooth="yes"/>
      <point x="137.16470588235293" y="702.7294117647059"/>
      <point x="62.141176470588235" y="621.1294117647059"/>
      <point x="62.141176470588235" y="347.18823529411765" type="curve" smooth="yes"/>
      <point x="62.141176470588235" y="99.37647058823529"/>
      <point x="124.68235294117648" y="-12.729411764705882"/>
      <point x="279.9294117647059" y="-12.729411764705882" type="curve" smooth="yes"/>
      <point x="384.78823529411767" y="-12.729411764705882"/>
      <point x="460.5176470588235" y="43.48235294117647"/>
      <point x="498.47058823529414" y="85.78823529411764" type="curve"/>
      <point x="485.90588235294115" y="139.52941176470588" type="line"/>
      <point x="434.36470588235295" y="101.74117647058824"/>
      <point x="380.2" y="63.51764705882353"/>
      <point x="303.81176470588235" y="63.51764705882353" type="curve" smooth="yes"/>
      <point x="193.01176470588234" y="63.51764705882353"/>
      <point x="154.51764705882354" y="137.98823529411766"/>
      <point x="154.51764705882354" y="341.3529411764706" type="curve" smooth="yes"/>
      <point x="154.51764705882354" y="582.0588235294117"/>
      <point x="206.2235294117647" y="624.2941176470588"/>
      <point x="355.15294117647056" y="624.2941176470588" type="curve" smooth="yes"/>
      <point x="406.32941176470587" y="624.2941176470588"/>
      <point x="470.4823529411765" y="622.0235294117647"/>
      <point x="533.4823529411765" y="615.9411764705883" type="curve"/>
      <point x="542.4" y="682.0823529411765" type="line"/>
      <point x="482.67058823529413" y="697.0"/>
      <point x="419.6235294117647" y="702.7294117647059"/>
    </contour>
    <contour>
      <point x="559.964705882353" y="398.54117647058825" type="line"/>
      <point x="474.4235294117647" y="398.54117647058825" type="line"/>
      <point x="474.4235294117647" y="121.94117647058823" type="line"/>
      <point x="481.98823529411766" y="101.91764705882353" type="line"/>
      <point x="495.5529411764706" y="0.0" type="line"/>
      <point x="559.964705882353" y="0.0" type="line"/>
    </contour>
  </outline>
</glyph>
<glyph name="H" format="2">
  <advance width="667.9411764705883"/>
  <unicode hex="0048"/>
  <anchor x="334.3764705882353" y="0.0" name="bottom"/>
  <anchor x="329.0" y="345.0" name="center"/>
  <anchor x="334.3764705882353" y="742.0823529411765" name="top"/>
  <outline>
    <contour>
      <point x="174.68235294117648" y="690.0" type="line"/>
      <point x="86.95294117647059" y="690.0" type="line"/>
      <point x="86.95294117647059" y="0.0" type="line"/>
      <point x="174.68235294117648" y="0.0" type="line"/>
    </contour>
    <contour>
      <point x="503.52941176470586" y="406.52941176470586" type="line"/>
      <point x="166.68235294117648" y="406.52941176470586" type="line"/>
      <point x="166.68235294117648" y="330.5529411764706" type="line"/>
      <point x="503.52941176470586" y="330.5529411764706" type="line"/>
    </contour>
    <contour>
      <point x="580.9882352941177" y="690.0" type="line"/>
      <point x="493.25882352941176" y="690.0" type="line"/>
      <point x="493.25882352941176" y="0.0" type="line"/>
      <point x="580.9882352941177" y="0.0" type="line"/>
    </contour>
  </outline>
</glyph>
<glyph name="I" format="2">
  <advance width="261.63529411764705"/>
  <unicode hex="0049"/>
  <anchor x="128.12941176470588" y="0.0" name="bottom"/>
  <anchor x="165.2" y="0.0" name="ogonek"/>
  <anchor x="131.04705882352943" y="734.1647058823529" name="top"/>
  <outline>
    <contour>
      <point x="174.68235294117648" y="690.0" type="line"/>
      <point x="86.95294117647059" y="690.0" type="line"/>
      <point x="86.95294117647059" y="0.0" type="line"/>
      <point x="174.68235294117648" y="0.0" type="line"/>
    </contour>
  </outline>
</glyph>
<glyph name="J" format="2">
  <advance width="340.0470588235294"/>
  <unicode hex="004A"/>
  <anchor x="207.64705882352942" y="-0.27058823529411763" name="bottom"/>
  <anchor x="211.64705882352942" y="735.5176470588235" name="top"/>
  <outline>
    <contour>
      <point x="256.09411764705885" y="690.0" type="line"/>
      <point x="168.36470588235295" y="690.0" type="line"/>
      <point x="168.36470588235295" y="141.52941176470588" type="line" smooth="yes"/>
      <point x="168.36470588235295" y="92.03529411764706"/>
      <point x="142.65882352941176" y="66.32941176470588"/>
      <point x="89.51764705882353" y="66.32941176470588" type="curve" smooth="yes"/>
      <point x="39.54117647058823" y="66.32941176470588" type="line"/>
      <point x="29.976470588235294" y="3.647058823529412" type="line"/>
      <point x="52.35294117647059" y="-3.7294117647058824"/>
      <point x="96.4" y="-8.91764705882353"/>
      <point x="122.4235294117647" y="-8.91764705882353" type="curve" smooth="yes"/>
      <point x="208.8" y="-9.188235294117646"/>
      <point x="256.09411764705885" y="44.48235294117647"/>
      <point x="256.09411764705885" y="144.90588235294118" type="curve" smooth="yes"/>
    </contour>
  </outline>
</glyph>
<glyph name="K" format="2">
  <advance width="591.1764705882352"/>
  <unicode hex="004B"/>
  <anchor x="295.21176470588233" y="0.0" name="bottom"/>
  <anchor x="298.1294117647059" y="720.635294117647" name="top"/>
  <outline>
    <contour>
      <point x="557.9529411764706" y="690.0" type="line"/>
      <point x="461.5764705882353" y="690.0" type="line"/>
      <point x="228.08235294117648" y="360.7294117647059" type="line"/>
      <point x="473.47058823529414" y="0.0" type="line"/>
      <point x="572.035294117647" y="0.0" type="line"/>
      <point x="361.964705882353" y="309.74117647058824" type="line" smooth="yes"/>
      <point x="351.0470588235294" y="326.3058823529412"/>
      <point x="336.21176470588233" y="342.32941176470587"/>
      <point x="318.81176470588235" y="357.54117647058825" type="curve"/>
      <point x="318.81176470588235" y="360.2705882352941" type="line"/>
      <point x="335.4823529411765" y="375.94117647058823"/>
      <point x="345.21176470588233" y="386.4"/>
      <point x="356.8588235294118" y="403.9647058823529" type="curve" smooth="yes"/>
    </contour>
    <contour>
      <point x="174.41176470588235" y="690.0" type="line"/>
      <point x="86.95294117647059" y="690.0" type="line"/>
      <point x="86.95294117647059" y="0.0" type="line"/>
      <point x="174.41176470588235" y="0.0" type="line"/>
      <point x="174.41176470588235" y="250.6" type="line" smooth="yes"/>
      <point x="174.41176470588235" y="285.78823529411767"/>
      <point x="169.30588235294118" y="322.81176470588235"/>
      <point x="161.9294117647059" y="361.0" type="curve"/>
      <point x="170.49411764705883" y="399.6470588235294"/>
      <point x="174.41176470588235" y="434.3176470588235"/>
      <point x="174.41176470588235" y="474.4235294117647" type="curve" smooth="yes"/>
    </contour>
    <contour>
      <point x="275.9647058823529" y="395.0705882352941" type="line"/>
      <point x="143.36470588235295" y="395.0705882352941" type="line"/>
      <point x="143.36470588235295" y="324.2" type="line"/>
      <point x="275.9647058823529" y="324.2" type="line"/>
    </contour>
  </outline>
</glyph>
<glyph name="L" format="2">
  <advance width="513.564705882353"/>
  <unicode hex="004C"/>
  <anchor x="300.6470588235294" y="0.0" name="bottom"/>
  <anchor x="130.58823529411765" y="735.5176470588235" name="top"/>
  <outline>
    <contour>
      <point x="172.41176470588235" y="690.0" type="line"/>
      <point x="84.68235294117648" y="690.0" type="line"/>
      <point x="84.68235294117648" y="128.98823529411766" type="line" smooth="yes"/>
      <point x="84.68235294117648" y="53.94117647058823"/>
      <point x="122.5764705882353" y="-1.4588235294117649"/>
      <point x="224.61176470588236" y="-1.4588235294117649" type="curve" smooth="yes"/>
      <point x="314.4235294117647" y="-1.4588235294117649"/>
      <point x="405.2352941176471" y="-0.7294117647058824"/>
      <point x="492.1294117647059" y="6.188235294117647" type="curve"/>
      <point x="488.4823529411765" y="73.78823529411764" type="line"/>
      <point x="239.09411764705882" y="73.78823529411764" type="line" smooth="yes"/>
      <point x="192.5529411764706" y="73.78823529411764"/>
      <point x="172.41176470588235" y="93.92941176470589"/>
      <point x="172.41176470588235" y="140.47058823529412" type="curve" smooth="yes"/>
    </contour>
  </outline>
</glyph>
<glyph name="N" format="2">
  <advance width="704.7764705882353"/>
  <unicode hex="004E"/>
  <anchor x="359.3176470588235" y="0.0" name="bottom"/>
  <anchor x="363.83529411764704" y="734.1647058823529" name="top"/>
  <outline>
    <contour>
      <point x="617.8235294117648" y="690.0" type="line"/>
      <point x="530.8235294117648" y="690.0" type="line"/>
      <point x="530.8235294117648" y="190.04705882352943" type="line" smooth="yes"/>
      <point x="530.8235294117648" y="154.94117647058823"/>
      <point x="532.2823529411764" y="120.56470588235294"/>
      <point x="534.4705882352941" y="85.45882352941177" type="curve"/>
      <point x="517.4117647058823" y="85.45882352941177" type="line"/>
      <point x="502.4117647058824" y="119.02352941176471"/>
      <point x="484.0352941176471" y="156.96470588235294"/>
      <point x="470.49411764705883" y="185.42352941176472" type="curve" smooth="yes"/>
      <point x="244.29411764705884" y="662.2235294117647" type="line" smooth="yes"/>
      <point x="235.91764705882352" y="681.1647058823529"/>
      <point x="224.81176470588235" y="690.0"/>
      <point x="205.14117647058822" y="690.0" type="curve" smooth="yes"/>
      <point x="121.6470588235294" y="690.0" type="line" smooth="yes"/>
      <point x="99.24705882352941" y="690.0"/>
      <point x="86.95294117647059" y="678.435294117647"/>
      <point x="86.95294117647059" y="655.3058823529411" type="curve" smooth="yes"/>
      <point x="86.95294117647059" y="0.0" type="line"/>
      <point x="174.68235294117648" y="0.0" type="line"/>
      <point x="174.68235294117648" y="516.5764705882353" type="line" smooth="yes"/>
      <point x="174.68235294117648" y="546.8705882352941"/>
      <point x="173.95294117647057" y="577.8941176470588"/>
      <point x="171.03529411764706" y="608.1882352941177" type="curve"/>
      <point x="186.5529411764706" y="608.1882352941177" type="line"/>
      <point x="194.90588235294118" y="580.0823529411765"/>
      <point x="214.47058823529412" y="542.7647058823529"/>
      <point x="226.47058823529412" y="516.8470588235294" type="curve" smooth="yes"/>
      <point x="458.94117647058823" y="27.776470588235295" type="line" smooth="yes"/>
      <point x="467.3176470588235" y="8.83529411764706"/>
      <point x="478.4235294117647" y="0.0"/>
      <point x="498.09411764705885" y="0.0" type="curve" smooth="yes"/>
      <point x="583.8588235294118" y="0.0" type="line" smooth="yes"/>
      <point x="606.2588235294118" y="0.0"/>
      <point x="617.8235294117648" y="11.564705882352941"/>
      <point x="617.8235294117648" y="34.694117647058825" type="curve" smooth="yes"/>
    </contour>
  </outline>
</glyph>
<glyph name="O" format="2">
  <advance width="667.8352941176471"/>
  <unicode hex="004F"/>
  <anchor x="332.45882352941175" y="0.0" name="bottom"/>
  <anchor x="371.4823529411765" y="0.0" name="ogonek"/>
  <anchor x="335.6470588235294" y="734.1647058823529" name="top"/>
  <outline>
    <contour>
      <point x="333.91764705882355" y="702.7294117647059" type="curve" smooth="yes"/>
      <point x="132.51764705882354" y="702.7294117647059"/>
      <point x="61.411764705882355" y="614.564705882353"/>
      <point x="61.411764705882355" y="345.0" type="curve" smooth="yes"/>
      <point x="61.411764705882355" y="75.43529411764706"/>
      <point x="132.51764705882354" y="-12.729411764705882"/>
      <point x="333.91764705882355" y="-12.729411764705882" type="curve" smooth="yes"/>
      <point x="535.3176470588236" y="-12.729411764705882"/>
      <point x="606.4235294117647" y="75.43529411764706"/>
      <point x="606.4235294117647" y="345.0" type="curve" smooth="yes"/>
      <point x="606.4235294117647" y="614.564705882353"/>
      <point x="535.3176470588236" y="702.7294117647059"/>
    </contour>
    <contour>
      <point x="333.91764705882355" y="624.2941176470588" type="curve" smooth="yes"/>
      <point x="469.63529411764705" y="624.2941176470588"/>
      <point x="514.0470588235294" y="555.8"/>
      <point x="514.0470588235294" y="345.0" type="curve" smooth="yes"/>
      <point x="514.0470588235294" y="134.2"/>
      <point x="469.63529411764705" y="65.70588235294117"/>
      <point x="333.91764705882355" y="65.70588235294117" type="curve" smooth="yes"/>
      <point x="198.2" y="65.70588235294117"/>
      <point x="153.78823529411764" y="134.2"/>
      <point x="153.78823529411764" y="345.0" type="curve" smooth="yes"/>
      <point x="153.78823529411764" y="555.8"/>
      <point x="198.2" y="624.2941176470588"/>
    </contour>
  </outline>
</glyph>
<glyph name="Q" format="2">
  <advance width="669.2941176470588"/>
  <unicode hex="0051"/>
  <outline>
    <contour>
      <point x="334.6470588235294" y="702.7294117647059" type="curve" smooth="yes"/>
      <point x="133.24705882352941" y="702.7294117647059"/>
      <point x="62.141176470588235" y="614.564705882353"/>
      <point x="62.141176470588235" y="345.0" type="curve" smooth="yes"/>
      <point x="62.141176470588235" y="75.43529411764706"/>
      <point x="133.24705882352941" y="-12.729411764705882"/>
      <point x="334.6470588235294" y="-12.729411764705882" type="curve" smooth="yes"/>
      <point x="536.0470588235294" y="-12.729411764705882"/>
      <point x="607.1529411764706" y="75.43529411764706"/>
      <point x="607.1529411764706" y="345.0" type="curve" smooth="yes"/>
      <point x="607.1529411764706" y="614.564705882353"/>
      <point x="536.0470588235294" y="702.7294117647059"/>
    </contour>
    <contour>
      <point x="293.6235294117647" y="-42.976470588235294" type="curve"/>
      <point x="269.22352941176473" y="-96.36470588235294" type="line"/>
      <point x="340.6235294117647" y="-138.8"/>
      <point x="427.0" y="-179.63529411764705"/>
      <point x="531.0470588235294" y="-201.11764705882354" type="curve"/>
      <point x="559.2" y="-113.38823529411765" type="line"/>
      <point x="459.63529411764705" y="-99.11764705882354"/>
      <point x="372.4" y="-76.76470588235294"/>
    </contour>
    <contour>
      <point x="334.6470588235294" y="624.2941176470588" type="curve" smooth="yes"/>
      <point x="470.36470588235295" y="624.2941176470588"/>
      <point x="514.7764705882353" y="555.8"/>
      <point x="514.7764705882353" y="345.0" type="curve" smooth="yes"/>
      <point x="514.7764705882353" y="134.2"/>
      <point x="470.36470588235295" y="65.70588235294117"/>
      <point x="334.6470588235294" y="65.70588235294117" type="curve" smooth="yes"/>
      <point x="198.9294117647059" y="65.70588235294117"/>
      <point x="154.51764705882354" y="134.2"/>
      <point x="154.51764705882354" y="345.0" type="curve" smooth="yes"/>
      <point x="154.51764705882354" y="555.8"/>
      <point x="198.9294117647059" y="624.2941176470588"/>
    </contour>
  </outline>
</glyph>
<glyph name="R" format="2">
  <advance width="617.9411764705883"/>
  <unicode hex="0052"/>
  <anchor x="315.1294117647059" y="0.0" name="bottom"/>
  <anchor x="303.0" y="734.1647058823529" name="top"/>
  <outline>
    <contour>
      <point x="324.7294117647059" y="698.7294117647059" type="curve" smooth="yes"/>
      <point x="213.7058823529412" y="698.7294117647059"/>
      <point x="162.05882352941177" y="697.7294117647059"/>
      <point x="86.95294117647059" y="690.0" type="curve"/>
      <point x="100.95294117647059" y="620.9411764705883" type="line"/>
      <point x="129.41176470588235" y="621.4823529411765"/>
      <point x="212.78823529411764" y="623.2117647058824"/>
      <point x="323.2705882352941" y="623.2117647058824" type="curve" smooth="yes"/>
      <point x="424.74117647058824" y="623.2117647058824"/>
      <point x="459.0705882352941" y="596.2352941176471"/>
      <point x="459.0705882352941" y="494.5176470588235" type="curve" smooth="yes"/>
      <point x="459.0705882352941" y="393.3411764705882"/>
      <point x="424.74117647058824" y="364.90588235294115"/>
      <point x="323.2705882352941" y="363.63529411764705" type="curve" smooth="yes"/>
      <point x="99.95294117647059" y="363.63529411764705" type="line"/>
      <point x="96.95294117647059" y="290.9294117647059" type="line"/>
      <point x="132.81176470588235" y="289.6588235294118"/>
      <point x="203.41176470588235" y="288.11764705882354"/>
      <point x="326.43529411764706" y="288.11764705882354" type="curve" smooth="yes"/>
      <point x="372.1411764705882" y="288.11764705882354"/>
      <point x="400.38823529411764" y="268.22352941176473"/>
      <point x="417.5529411764706" y="215.81176470588235" type="curve" smooth="yes"/>
      <point x="479.15294117647056" y="0.0" type="line"/>
      <point x="572.8" y="0.0" type="line"/>
      <point x="506.2823529411765" y="218.08235294117648" type="line" smooth="yes"/>
      <point x="491.01176470588234" y="276.4823529411765"/>
      <point x="455.0705882352941" y="307.91764705882355"/>
      <point x="420.8" y="317.45882352941175" type="curve"/>
      <point x="420.8" y="322.18823529411765" type="line"/>
      <point x="512.4470588235295" y="334.45882352941175"/>
      <point x="547.8" y="388.4823529411765"/>
      <point x="547.8" y="499.6235294117647" type="curve" smooth="yes"/>
      <point x="547.8" y="654.8117647058823"/>
      <point x="484.5882352941176" y="698.7294117647059"/>
    </contour>
    <contour>
      <point x="173.95294117647057" y="690.0" type="line"/>
      <point x="86.95294117647059" y="690.0" type="line"/>
      <point x="86.95294117647059" y="0.0" type="line"/>
      <point x="173.95294117647057" y="0.0" type="line"/>
    </contour>
  </outline>
</glyph>
<glyph name="S" format="2">
  <advance width="561.2941176470588"/>
  <unicode hex="0053"/>
  <anchor x="283.45882352941175" y="-11.729411764705882" name="bottom"/>
  <anchor x="285.1058823529412" y="734.1647058823529" name="top"/>
  <outline>
    <contour>
      <point x="279.1058823529412" y="701.7294117647059" type="curve" smooth="yes"/>
      <point x="125.24705882352941" y="702.2705882352941"/>
      <point x="55.05882352941177" y="681.2470588235294"/>
      <point x="55.05882352941177" y="520.3529411764706" type="curve" smooth="yes"/>
      <point x="55.05882352941177" y="414.91764705882355"/>
      <point x="91.32941176470588" y="352.8941176470588"/>
      <point x="191.24705882352941" y="328.0352941176471" type="curve" smooth="yes"/>
      <point x="334.0352941176471" y="291.7176470588235" type="line" smooth="yes"/>
      <point x="394.4235294117647" y="277.0705882352941"/>
      <point x="421.0470588235294" y="257.5764705882353"/>
      <point x="421.0470588235294" y="177.75294117647059" type="curve" smooth="yes"/>
      <point x="421.0470588235294" y="83.05882352941177"/>
      <point x="387.5529411764706" y="67.24705882352941"/>
      <point x="281.54117647058825" y="66.70588235294117" type="curve" smooth="yes"/>
      <point x="225.23529411764707" y="66.43529411764706"/>
      <point x="188.09411764705882" y="67.70588235294117"/>
      <point x="70.78823529411764" y="71.51764705882353" type="curve"/>
      <point x="64.87058823529412" y="6.564705882352941" type="line"/>
      <point x="158.6235294117647" y="-10.0"/>
      <point x="233.56470588235294" y="-11.729411764705882"/>
      <point x="279.08235294117645" y="-11.729411764705882" type="curve" smooth="yes"/>
      <point x="440.3411764705882" y="-11.729411764705882"/>
      <point x="510.2352941176471" y="16.67058823529412"/>
      <point x="510.2352941176471" y="176.2941176470588" type="curve" smooth="yes"/>
      <point x="510.2352941176471" y="282.70588235294116"/>
      <point x="476.61176470588236" y="343.83529411764704"/>
      <point x="370.50588235294117" y="370.4235294117647" type="curve" smooth="yes"/>
      <point x="231.36470588235295" y="405.2823529411765" type="line" smooth="yes"/>
      <point x="169.87058823529412" y="419.9294117647059"/>
      <point x="143.51764705882354" y="441.9647058823529"/>
      <point x="143.51764705882354" y="518.1647058823529" type="curve" smooth="yes"/>
      <point x="143.51764705882354" y="619.5647058823529"/>
      <point x="183.2" y="623.2941176470588"/>
      <point x="282.7529411764706" y="623.2941176470588" type="curve" smooth="yes"/>
      <point x="346.94117647058823" y="623.2941176470588"/>
      <point x="419.88235294117646" y="620.7529411764706"/>
      <point x="477.6941176470588" y="618.2117647058824" type="curve"/>
      <point x="483.61176470588236" y="682.435294117647" type="line"/>
      <point x="414.8588235294118" y="697.4588235294118"/>
      <point x="343.56470588235294" y="701.4588235294118"/>
    </contour>
  </outline>
</glyph>
<glyph name="T" format="2">
  <advance width="580.7764705882353"/>
  <unicode hex="0054"/>
  <anchor x="289.29411764705884" y="0.0" name="bottom"/>
  <anchor x="288.56470588235294" y="345.0" name="center"/>
  <anchor x="290.29411764705884" y="734.1647058823529" name="top"/>
  <outline>
    <contour>
      <point x="334.11764705882354" y="690.0" type="line"/>
      <point x="245.65882352941176" y="690.0" type="line"/>
      <point x="245.65882352941176" y="0.0" type="line"/>
      <point x="334.11764705882354" y="0.0" type="line"/>
    </contour>
    <contour>
      <point x="556.6941176470589" y="690.0" type="line"/>
      <point x="24.08235294117647" y="690.0" type="line"/>
      <point x="24.08235294117647" y="611.8352941176471" type="line"/>
      <point x="556.6941176470589" y="611.8352941176471" type="line"/>
    </contour>
  </outline>
</glyph>
<glyph name="U" format="2">
  <advance width="666.2705882352941"/>
  <unicode hex="0055"/>
  <anchor x="331.08235294117645" y="0.0" name="bottom"/>
  <anchor x="374.0" y="-9.0" name="ogonek"/>
  <anchor x="334.2705882352941" y="734.1647058823529" name="top"/>
  <outline>
    <contour>
      <point x="584.3176470588236" y="690.0" type="line"/>
      <point x="495.8588235294118" y="690.0" type="line"/>
      <point x="495.8588235294118" y="264.4823529411765" type="line" smooth="yes"/>
      <point x="495.8588235294118" y="116.11764705882354"/>
      <point x="452.7176470588235" y="65.70588235294117"/>
      <point x="333.2705882352941" y="65.70588235294117" type="curve" smooth="yes"/>
      <point x="212.09411764705882" y="65.70588235294117"/>
      <point x="169.68235294117648" y="116.11764705882354"/>
      <point x="169.68235294117648" y="264.4823529411765" type="curve" smooth="yes"/>
      <point x="169.68235294117648" y="690.0" type="line"/>
      <point x="81.95294117647059" y="690.0" type="line"/>
      <point x="81.95294117647059" y="264.4823529411765" type="line" smooth="yes"/>
      <point x="81.95294117647059" y="63.72941176470588"/>
      <point x="150.05882352941177" y="-12.729411764705882"/>
      <point x="336.91764705882355" y="-12.729411764705882" type="curve" smooth="yes"/>
      <point x="517.6705882352941" y="-12.729411764705882"/>
      <point x="584.3176470588236" y="63.72941176470588"/>
      <point x="584.3176470588236" y="264.4823529411765" type="curve" smooth="yes"/>
    </contour>
  </outline>
</glyph>
<glyph name="V" format="2">
  <advance width="608.7764705882353"/>
  <unicode hex="0056"/>
  <outline>
    <contour>
      <point x="592.2588235294118" y="690.0" type="line"/>
      <point x="501.0705882352941" y="690.0" type="line"/>
      <point x="338.6470588235294" y="143.68235294117648" type="line" smooth="yes"/>
      <point x="331.1058823529412" y="118.68235294117648"/>
      <point x="323.83529411764704" y="92.95294117647059"/>
      <point x="318.0235294117647" y="67.95294117647059" type="curve"/>
      <point x="291.4823529411765" y="67.95294117647059" type="line"/>
      <point x="284.94117647058823" y="92.95294117647059"/>
      <point x="278.4" y="118.41176470588235"/>
      <point x="270.8588235294118" y="143.41176470588235" type="curve" smooth="yes"/>
      <point x="107.70588235294117" y="690.0" type="line"/>
      <point x="16.517647058823528" y="690.0" type="line"/>
      <point x="226.25882352941176" y="25.04705882352941" type="line" smooth="yes"/>
      <point x="230.4470588235294" y="10.564705882352941"/>
      <point x="243.47058823529412" y="0.0"/>
      <point x="259.6823529411765" y="0.0" type="curve" smooth="yes"/>
      <point x="349.09411764705885" y="0.0" type="line" smooth="yes"/>
      <point x="365.3058823529412" y="0.0"/>
      <point x="378.32941176470587" y="10.564705882352941"/>
      <point x="382.5176470588235" y="25.04705882352941" type="curve" smooth="yes"/>
    </contour>
  </outline>
</glyph>
<glyph name="X" format="2">
  <advance width="611.2352941176471"/>
  <unicode hex="0058"/>
  <outline>
    <contour>
      <point x="573.364705882353" y="690.0" type="line"/>
      <point x="477.7176470588235" y="690.0" type="line"/>
      <point x="300.8941176470588" y="357.08235294117645" type="line"/>
      <point x="489.98823529411766" y="0.0" type="line"/>
      <point x="586.364705882353" y="0.0" type="line"/>
      <point x="391.43529411764706" y="357.08235294117645" type="line"/>
    </contour>
    <contour>
      <point x="132.78823529411764" y="690.0" type="line"/>
      <point x="37.870588235294115" y="690.0" type="line"/>
      <point x="219.0705882352941" y="357.08235294117645" type="line"/>
      <point x="24.870588235294118" y="0.0" type="line"/>
      <point x="120.51764705882353" y="0.0" type="line"/>
      <point x="309.61176470588236" y="357.08235294117645" type="line"/>
    </contour>
    <contour>
      <point x="358.36470588235295" y="392.4235294117647" type="line"/>
      <point x="251.65882352941176" y="392.4235294117647" type="line"/>
      <point x="251.65882352941176" y="324.47058823529414" type="line"/>
      <point x="358.36470588235295" y="324.47058823529414" type="line"/>
    </contour>
  </outline>
</glyph>
<glyph name="Y" format="2">
  <advance width="568.7176470588236"/>
  <unicode hex="0059"/>
  <anchor x="282.67058823529413" y="0.0" name="bottom"/>
  <anchor x="285.5882352941176" y="723.9529411764706" name="top"/>
  <outline>
    <contour>
      <point x="556.6588235294117" y="690.0" type="line"/>
      <point x="464.47058823529414" y="690.0" type="line"/>
      <point x="319.4823529411765" y="398.3058823529412" type="line" smooth="yes"/>
      <point x="307.7529411764706" y="374.38823529411764"/>
      <point x="297.4" y="346.01176470588234"/>
      <point x="288.3176470588235" y="321.09411764705885" type="curve"/>
      <point x="281.1294117647059" y="321.09411764705885" type="line"/>
      <point x="271.77647058823527" y="346.01176470588234"/>
      <point x="261.6941176470588" y="374.38823529411764"/>
      <point x="249.69411764705882" y="398.5764705882353" type="curve" smooth="yes"/>
      <point x="104.70588235294117" y="690.0" type="line"/>
      <point x="11.058823529411764" y="690.0" type="line"/>
      <point x="245.2235294117647" y="233.95294117647057" type="line"/>
      <point x="324.22352941176473" y="233.95294117647057" type="line"/>
    </contour>
    <contour>
      <point x="328.22352941176473" y="296.3176470588235" type="line"/>
      <point x="240.49411764705883" y="296.3176470588235" type="line"/>
      <point x="240.49411764705883" y="0.0" type="line"/>
      <point x="328.22352941176473" y="0.0" type="line"/>
    </contour>
  </outline>
</glyph>
<glyph name="Z" format="2">
  <advance width="566.0235294117647"/>
  <unicode hex="005A"/>
  <anchor x="289.67058823529413" y="0.0" name="bottom"/>
  <anchor x="281.18823529411765" y="734.1647058823529" name="top"/>
  <outline>
    <contour>
      <point x="416.3764705882353" y="616.2117647058824" type="line"/>
      <point x="48.35294117647059" y="74.78823529411764" type="line"/>
      <point x="144.91764705882352" y="73.78823529411764" type="line"/>
      <point x="512.2117647058824" y="615.2117647058824" type="line"/>
    </contour>
    <contour>
      <point x="518.6705882352941" y="74.78823529411764" type="line"/>
      <point x="48.35294117647059" y="74.78823529411764" type="line"/>
      <point x="48.35294117647059" y="0.0" type="line"/>
      <point x="518.6705882352941" y="0.0" type="line"/>
    </contour>
    <contour>
      <point x="512.2117647058824" y="690.0" type="line"/>
      <point x="53.54117647058823" y="690.0" type="line"/>
      <point x="53.54117647058823" y="615.2117647058824" type="line"/>
      <point x="512.2117647058824" y="615.2117647058824" type="line"/>
    </contour>
  </outline>
</glyph>
<glyph name="bracketleft" format="2">
  <advance width="328.77647058823527"/>
  <unicode hex="005B"/>
  <outline>
    <contour>
      <point x="287.52941176470586" y="768.0" type="line"/>
      <point x="145.0235294117647" y="768.0" type="line" smooth="yes"/>
      <point x="113.89411764705882" y="768.0"/>
      <point x="91.41176470588235" y="745.5176470588235"/>
      <point x="91.41176470588235" y="714.3882352941176" type="curve" smooth="yes"/>
      <point x="91.41176470588235" y="-111.38823529411765" type="line" smooth="yes"/>
      <point x="91.41176470588235" y="-149.08235294117648"/>
      <point x="113.89411764705882" y="-165.0"/>
      <point x="145.0235294117647" y="-165.0" type="curve" smooth="yes"/>
      <point x="287.52941176470586" y="-165.0" type="line"/>
      <point x="287.52941176470586" y="-108.71764705882353" type="line"/>
      <point x="186.49411764705883" y="-108.71764705882353" type="line" smooth="yes"/>
      <point x="178.03529411764706" y="-108.71764705882353"/>
      <point x="171.57647058823528" y="-102.25882352941176"/>
      <point x="171.57647058823528" y="-93.07058823529411" type="curve" smooth="yes"/>
      <point x="171.57647058823528" y="696.0705882352942" type="line" smooth="yes"/>
      <point x="171.57647058823528" y="705.2588235294118"/>
      <point x="178.03529411764706" y="711.7176470588236"/>
      <point x="186.49411764705883" y="711.7176470588236" type="curve" smooth="yes"/>
      <point x="287.52941176470586" y="711.7176470588236" type="line"/>
    </contour>
  </outline>
</glyph>
<glyph name="backslash" format="2">
  <advance width="518.0705882352942"/>
  <unicode hex="005C"/>
  <outline>
    <contour>
      <point x="98.01176470588236" y="690.0" type="line"/>
      <point x="27.058823529411764" y="690.0" type="line"/>
      <point x="420.05882352941177" y="-65.56470588235294" type="line"/>
      <point x="491.01176470588234" y="-65.56470588235294" type="line"/>
    </contour>
  </outline>
</glyph>
<glyph name="bracketright" format="2">
  <advance width="328.77647058823527"/>
  <unicode hex="005D"/>
  <outline>
    <contour>
      <point x="183.0235294117647" y="768.0" type="curve" smooth="yes"/>
      <point x="41.247058823529414" y="768.0" type="line"/>
      <point x="41.247058823529414" y="711.7176470588236" type="line"/>
      <point x="141.5529411764706" y="711.7176470588236" type="line" smooth="yes"/>
      <point x="150.74117647058824" y="711.7176470588236"/>
      <point x="157.2" y="705.2588235294118"/>
      <point x="157.2" y="696.0705882352942" type="curve" smooth="yes"/>
      <point x="157.2" y="-93.07058823529411" type="line" smooth="yes"/>
      <point x="157.2" y="-102.25882352941176"/>
      <point x="150.74117647058824" y="-108.71764705882353"/>
      <point x="141.5529411764706" y="-108.71764705882353" type="curve" smooth="yes"/>
      <point x="41.247058823529414" y="-108.71764705882353" type="line"/>
      <point x="41.247058823529414" y="-165.0" type="line"/>
      <point x="183.0235294117647" y="-165.0" type="line" smooth="yes"/>
      <point x="214.88235294117646" y="-165.0"/>
      <point x="237.36470588235295" y="-142.51764705882354"/>
      <point x="237.36470588235295" y="-111.38823529411765" type="curve" smooth="yes"/>
      <point x="237.36470588235295" y="714.3882352941176" type="line" smooth="yes"/>
      <point x="237.36470588235295" y="745.5176470588235"/>
      <point x="214.88235294117646" y="768.0"/>
    </contour>
  </outline>
</glyph>
<glyph name="asciicircum" format="2">
  <advance width="426.2823529411765"/>
  <unicode hex="005E"/>
  <outline>
    <contour>
      <point x="244.48451764705882" y="600.4528235294117" type="line"/>
      <point x="182.75774117647057" y="600.4528235294117" type="line"/>
      <point x="30.0" y="389.7471764705883" type="line"/>
      <point x="64.86338823529412" y="367.9577411764706" type="line"/>
      <point x="209.62112941176468" y="541.8" type="line"/>
      <point x="217.62112941176468" y="541.8" type="line"/>
      <point x="361.7471764705883" y="367.9577411764706" type="line"/>
      <point x="396.2633882352941" y="389.7471764705883" type="line"/>
    </contour>
  </outline>
</glyph>
<glyph name="underscore" format="2">
  <advance width="437.56470588235294"/>
  <unicode hex="005F"/>
  <outline>
    <contour>
      <point x="437.56470588235294" y="0.0" type="line"/>
      <point x="0.0" y="0.0" type="line"/>
      <point x="0.0" y="-65.03529411764706" type="line"/>
      <point x="437.56470588235294" y="-65.03529411764706" type="line"/>
    </contour>
  </outline>
</glyph>
<glyph name="grave" format="2">
  <advance width="314.5260470588235"/>
  <unicode hex="0060"/>
  <anchor x="200.18943529411763" y="543.8845176470588" name="_top"/>
  <outline>
    <contour>
      <point x="84.7764705882353" y="723.3176470588236" type="line"/>
      <point x="36.141176470588235" y="658.1764705882352" type="line"/>
      <point x="227.8" y="537.6" type="line"/>
      <point x="257.11764705882354" y="576.8588235294118" type="line"/>
    </contour>
  </outline>
</glyph>
<glyph name="a" format="2">
  <advance width="548.9411764705883"/>
  <unicode hex="0061"/>
  <anchor x="263.3764705882353" y="-12.0" name="bottom"/>
  <anchor x="473.25882352941176" y="0.0" name="ogonek"/>
  <anchor x="273.56470588235294" y="553.6235294117647" name="top"/>
  <outline>
    <contour>
      <point x="308.16470588235296" y="499.29411764705884" type="curve" smooth="yes"/>
      <point x="235.1529411764706" y="499.29411764705884"/>
      <point x="140.24705882352941" y="488.0235294117647"/>
      <point x="72.6" y="476.83529411764704" type="curve"/>
      <point x="80.70588235294117" y="414.3411764705882" type="line"/>
      <point x="155.35294117647058" y="421.15294117647056"/>
      <point x="238.81176470588235" y="426.6941176470588"/>
      <point x="290.38823529411764" y="426.6941176470588" type="curve" smooth="yes"/>
      <point x="367.36470588235295" y="426.6941176470588"/>
      <point x="388.7176470588235" y="402.9529411764706"/>
      <point x="389.4470588235294" y="342.6823529411765" type="curve" smooth="yes"/>
      <point x="389.4470588235294" y="117.10588235294118" type="line"/>
      <point x="394.5529411764706" y="106.0" type="line"/>
      <point x="407.84705882352944" y="0.0" type="line"/>
      <point x="474.71764705882356" y="0.0" type="line"/>
      <point x="474.71764705882356" y="342.6823529411765" type="line" smooth="yes"/>
      <point x="474.71764705882356" y="461.29411764705884"/>
      <point x="416.4235294117647" y="499.29411764705884"/>
    </contour>
    <contour>
      <point x="435.0235294117647" y="300.21176470588233" type="line"/>
      <point x="186.10588235294117" y="300.21176470588233" type="line" smooth="yes"/>
      <point x="100.70588235294117" y="300.21176470588233"/>
      <point x="51.411764705882355" y="256.29411764705884"/>
      <point x="51.411764705882355" y="179.91764705882352" type="curve" smooth="yes"/>
      <point x="51.411764705882355" y="126.67058823529412" type="line" smooth="yes"/>
      <point x="51.411764705882355" y="39.188235294117646"/>
      <point x="109.81176470588235" y="-8.91764705882353"/>
      <point x="196.83529411764707" y="-8.91764705882353" type="curve" smooth="yes"/>
      <point x="302.77647058823527" y="-8.91764705882353"/>
      <point x="386.3529411764706" y="61.56470588235294"/>
      <point x="414.8705882352941" y="99.91764705882353" type="curve"/>
      <point x="414.8705882352941" y="162.8470588235294" type="line"/>
      <point x="355.0352941176471" y="94.71764705882353"/>
      <point x="269.7294117647059" y="63.411764705882355"/>
      <point x="213.61176470588236" y="63.95294117647059" type="curve" smooth="yes"/>
      <point x="161.47058823529412" y="64.2235294117647"/>
      <point x="137.68235294117648" y="86.28235294117647"/>
      <point x="137.68235294117648" y="136.88235294117646" type="curve" smooth="yes"/>
      <point x="137.68235294117648" y="168.24705882352941" type="line" smooth="yes"/>
      <point x="137.68235294117648" y="209.2"/>
      <point x="154.09411764705882" y="232.90588235294118"/>
      <point x="201.42352941176472" y="234.63529411764705" type="curve" smooth="yes"/>
      <point x="434.0235294117647" y="235.71764705882353" type="line"/>
    </contour>
  </outline>
</glyph>
<glyph name="b" format="2">
  <advance width="570.4"/>
  <unicode hex="0062"/>
  <outline>
    <contour>
      <point x="339.52941176470586" y="499.29411764705884" type="curve" smooth="yes"/>
      <point x="271.3411764705882" y="499.29411764705884"/>
      <point x="204.42352941176472" y="466.1294117647059"/>
      <point x="145.09411764705882" y="402.4" type="curve"/>
      <point x="150.9294117647059" y="345.11764705882354" type="line"/>
      <point x="213.23529411764707" y="393.88235294117646"/>
      <point x="256.56470588235294" y="425.2352941176471"/>
      <point x="310.3529411764706" y="425.2352941176471" type="curve" smooth="yes"/>
      <point x="404.22352941176473" y="425.2352941176471"/>
      <point x="427.25882352941176" y="378.8235294117647"/>
      <point x="427.98823529411766" y="245.10588235294117" type="curve" smooth="yes"/>
      <point x="427.25882352941176" y="107.01176470588236"/>
      <point x="391.6588235294118" y="60.6"/>
      <point x="298.3764705882353" y="59.87058823529412" type="curve" smooth="yes"/>
      <point x="251.31764705882352" y="59.141176470588235"/>
      <point x="196.85882352941178" y="65.14117647058823"/>
      <point x="144.36470588235295" y="81.49411764705883" type="curve"/>
      <point x="75.95294117647059" y="22.647058823529413" type="line"/>
      <point x="141.11764705882354" y="0.0"/>
      <point x="232.10588235294117" y="-12.0"/>
      <point x="299.83529411764704" y="-12.0" type="curve" smooth="yes"/>
      <point x="466.8235294117647" y="-12.0"/>
      <point x="515.7176470588236" y="78.4235294117647"/>
      <point x="515.7176470588236" y="245.10588235294117" type="curve" smooth="yes"/>
      <point x="515.7176470588236" y="427.83529411764704"/>
      <point x="460.4235294117647" y="499.29411764705884"/>
    </contour>
    <contour>
      <point x="161.2235294117647" y="700.0" type="line"/>
      <point x="75.95294117647059" y="700.0" type="line"/>
      <point x="75.95294117647059" y="22.647058823529413" type="line"/>
      <point x="161.2235294117647" y="19.0" type="line"/>
      <point x="160.49411764705883" y="393.6941176470588" type="line"/>
      <point x="151.65882352941176" y="408.2352941176471" type="line"/>
      <point x="160.03529411764706" y="443.61176470588236"/>
      <point x="161.2235294117647" y="476.09411764705885"/>
      <point x="161.2235294117647" y="518.0117647058823" type="curve" smooth="yes"/>
    </contour>
  </outline>
</glyph>
<glyph name="c" format="2">
  <advance width="488.94117647058823"/>
  <unicode hex="0063"/>
  <anchor x="277.9764705882353" y="-12.0" name="bottom"/>
  <anchor x="267.8941176470588" y="554.3529411764706" name="top"/>
  <outline>
    <contour>
      <point x="285.81176470588235" y="499.29411764705884" type="curve" smooth="yes"/>
      <point x="117.32941176470588" y="499.29411764705884"/>
      <point x="54.411764705882355" y="431.56470588235294"/>
      <point x="54.411764705882355" y="243.64705882352942" type="curve" smooth="yes"/>
      <point x="54.411764705882355" y="55.72941176470588"/>
      <point x="116.6" y="-12.0"/>
      <point x="285.3529411764706" y="-12.0" type="curve" smooth="yes"/>
      <point x="342.1058823529412" y="-12.0"/>
      <point x="403.1294117647059" y="-3.541176470588235"/>
      <point x="451.50588235294117" y="13.023529411764706" type="curve"/>
      <point x="443.1294117647059" y="70.41176470588235" type="line"/>
      <point x="393.29411764705884" y="62.141176470588235"/>
      <point x="329.4823529411765" y="59.87058823529412"/>
      <point x="300.0235294117647" y="59.87058823529412" type="curve" smooth="yes"/>
      <point x="184.2" y="59.87058823529412"/>
      <point x="143.6" y="100.92941176470589"/>
      <point x="143.6" y="243.64705882352942" type="curve" smooth="yes"/>
      <point x="143.6" y="385.63529411764705"/>
      <point x="184.2" y="426.6941176470588"/>
      <point x="300.0235294117647" y="426.6941176470588" type="curve" smooth="yes"/>
      <point x="334.21176470588233" y="426.6941176470588"/>
      <point x="387.83529411764704" y="425.15294117647056"/>
      <point x="431.5882352941176" y="421.25882352941176" type="curve"/>
      <point x="442.6941176470588" y="475.7294117647059" type="line"/>
      <point x="394.8588235294118" y="493.83529411764704"/>
      <point x="329.1058823529412" y="499.29411764705884"/>
    </contour>
  </outline>
</glyph>
<glyph name="d" format="2">
  <advance width="572.6705882352941"/>
  <unicode hex="0064"/>
  <anchor x="294.0235294117647" y="-12.0" name="bottom"/>
  <anchor x="450.81176470588235" y="706.0" name="top"/>
  <outline>
    <contour>
      <point x="239.89411764705883" y="499.29411764705884" type="curve" smooth="yes"/>
      <point x="115.3529411764706" y="499.29411764705884"/>
      <point x="55.68235294117647" y="435.1294117647059"/>
      <point x="55.68235294117647" y="245.10588235294117" type="curve" smooth="yes"/>
      <point x="55.68235294117647" y="74.7764705882353"/>
      <point x="103.68235294117648" y="-12.0"/>
      <point x="227.49411764705883" y="-12.0" type="curve" smooth="yes"/>
      <point x="305.8941176470588" y="-12.0"/>
      <point x="374.45882352941175" y="28.294117647058822"/>
      <point x="427.9529411764706" y="76.70588235294117" type="curve"/>
      <point x="420.47058823529414" y="136.98823529411766" type="line"/>
      <point x="347.22352941176473" y="84.03529411764706"/>
      <point x="311.91764705882355" y="62.05882352941177"/>
      <point x="255.21176470588236" y="62.05882352941177" type="curve" smooth="yes"/>
      <point x="175.9294117647059" y="62.05882352941177"/>
      <point x="143.41176470588235" y="101.90588235294118"/>
      <point x="143.41176470588235" y="245.83529411764707" type="curve" smooth="yes"/>
      <point x="143.41176470588235" y="389.7647058823529"/>
      <point x="175.9294117647059" y="425.2352941176471"/>
      <point x="260.3176470588235" y="425.2352941176471" type="curve" smooth="yes"/>
      <point x="314.1058823529412" y="425.2352941176471"/>
      <point x="357.43529411764706" y="412.61176470588236"/>
      <point x="419.74117647058824" y="394.9294117647059" type="curve"/>
      <point x="424.84705882352944" y="447.83529411764704" type="line"/>
      <point x="366.9764705882353" y="482.4823529411765"/>
      <point x="303.70588235294116" y="499.29411764705884"/>
    </contour>
    <contour>
      <point x="494.4470588235294" y="700.0" type="line"/>
      <point x="409.1764705882353" y="700.0" type="line"/>
      <point x="409.1764705882353" y="550.3176470588236" type="line" smooth="yes"/>
      <point x="409.1764705882353" y="510.94117647058823"/>
      <point x="410.36470588235295" y="478.45882352941175"/>
      <point x="415.09411764705885" y="440.54117647058825" type="curve"/>
      <point x="409.1764705882353" y="426.0" type="line"/>
      <point x="409.1764705882353" y="92.37647058823529" type="line"/>
      <point x="418.47058823529414" y="84.72941176470589" type="line"/>
      <point x="427.5764705882353" y="0.0" type="line"/>
      <point x="494.4470588235294" y="0.0" type="line"/>
    </contour>
  </outline>
</glyph>
<glyph name="e" format="2">
  <advance width="537.2117647058824"/>
  <unicode hex="0065"/>
  <anchor x="269.56470588235294" y="-8.75294117647059" name="bottom"/>
  <anchor x="475.61176470588236" y="16.211764705882352" name="ogonek"/>
  <anchor x="281.3764705882353" y="553.6235294117647" name="top"/>
  <outline>
    <contour>
      <point x="277.91764705882355" y="499.29411764705884" type="curve" smooth="yes"/>
      <point x="121.16470588235295" y="499.29411764705884"/>
      <point x="54.411764705882355" y="436.21176470588233"/>
      <point x="54.411764705882355" y="244.91764705882352" type="curve" smooth="yes"/>
      <point x="54.411764705882355" y="57.54117647058823"/>
      <point x="119.32941176470588" y="-12.0"/>
      <point x="286.6470588235294" y="-12.0" type="curve" smooth="yes"/>
      <point x="343.0235294117647" y="-12.0"/>
      <point x="430.4823529411765" y="-4.0"/>
      <point x="475.61176470588236" y="15.48235294117647" type="curve"/>
      <point x="467.2352941176471" y="72.14117647058823" type="line"/>
      <point x="417.1058823529412" y="65.41176470588235"/>
      <point x="350.2705882352941" y="59.87058823529412"/>
      <point x="297.67058823529413" y="59.87058823529412" type="curve" smooth="yes"/>
      <point x="185.5529411764706" y="59.87058823529412"/>
      <point x="142.87058823529412" y="93.34117647058824"/>
      <point x="142.87058823529412" y="249.56470588235294" type="curve" smooth="yes"/>
      <point x="142.87058823529412" y="387.84705882352944"/>
      <point x="175.5529411764706" y="427.4235294117647"/>
      <point x="281.83529411764704" y="427.4235294117647" type="curve" smooth="yes"/>
      <point x="369.1411764705882" y="427.4235294117647"/>
      <point x="401.25882352941176" y="401.90588235294115"/>
      <point x="401.8" y="340.1411764705882" type="curve" smooth="yes"/>
      <point x="402.3411764705882" y="303.50588235294117"/>
      <point x="393.01176470588234" y="267.9647058823529"/>
      <point x="349.32941176470587" y="267.9647058823529" type="curve" smooth="yes"/>
      <point x="86.6470588235294" y="267.9647058823529" type="line"/>
      <point x="86.6470588235294" y="202.2" type="line"/>
      <point x="371.21176470588233" y="202.2" type="line" smooth="yes"/>
      <point x="452.1294117647059" y="202.2"/>
      <point x="487.88235294117646" y="252.76470588235293"/>
      <point x="487.3411764705882" y="339.9529411764706" type="curve" smooth="yes"/>
      <point x="486.8" y="444.81176470588235"/>
      <point x="424.8" y="499.29411764705884"/>
    </contour>
  </outline>
</glyph>
<glyph name="f" format="2">
  <advance width="380.25882352941176"/>
  <unicode hex="0066"/>
  <outline>
    <contour>
      <point x="257.94117647058823" y="716.9176470588235" type="curve" smooth="yes"/>
      <point x="153.54117647058823" y="716.9176470588235"/>
      <point x="116.16470588235295" y="664.6235294117647"/>
      <point x="116.16470588235295" y="574.435294117647" type="curve" smooth="yes"/>
      <point x="116.16470588235295" y="0.0" type="line"/>
      <point x="201.43529411764706" y="0.0" type="line"/>
      <point x="201.43529411764706" y="564.9529411764706" type="line" smooth="yes"/>
      <point x="201.43529411764706" y="624.3411764705883"/>
      <point x="223.87058823529412" y="646.7764705882353"/>
      <point x="287.8235294117647" y="646.7764705882353" type="curve" smooth="yes"/>
      <point x="388.3411764705882" y="646.7764705882353" type="line"/>
      <point x="394.90588235294115" y="710.0" type="line"/>
      <point x="356.52941176470586" y="715.1882352941177"/>
      <point x="289.5882352941176" y="716.9176470588235"/>
    </contour>
    <contour>
      <point x="356.8235294117647" y="486.56470588235294" type="line"/>
      <point x="120.70588235294117" y="486.56470588235294" type="line"/>
      <point x="28.435294117647057" y="481.56470588235294" type="line"/>
      <point x="28.435294117647057" y="420.0705882352941" type="line"/>
      <point x="356.8235294117647" y="420.0705882352941" type="line"/>
    </contour>
  </outline>
</glyph>
<glyph name="g" format="2">
  <advance width="558.1294117647059"/>
  <unicode hex="0067"/>
  <anchor x="272.18823529411765" y="554.3529411764706" name="top"/>
  <outline>
    <contour>
      <point x="271.18823529411765" y="499.29411764705884" type="curve" smooth="yes"/>
      <point x="114.2235294117647" y="499.29411764705884"/>
      <point x="61.68235294117647" y="453.4"/>
      <point x="61.68235294117647" y="343.0" type="curve" smooth="yes"/>
      <point x="61.68235294117647" y="236.7058823529412"/>
      <point x="114.49411764705883" y="189.43529411764706"/>
      <point x="270.45882352941175" y="189.43529411764706" type="curve" smooth="yes"/>
      <point x="426.4235294117647" y="189.43529411764706"/>
      <point x="478.6941176470588" y="236.7058823529412"/>
      <point x="478.6941176470588" y="343.7294117647059" type="curve" smooth="yes"/>
      <point x="478.6941176470588" y="453.4"/>
      <point x="426.6941176470588" y="499.29411764705884"/>
    </contour>
    <contour>
      <point x="270.45882352941175" y="434.25882352941176" type="curve" smooth="yes"/>
      <point x="367.9294117647059" y="434.25882352941176"/>
      <point x="399.98823529411766" y="409.49411764705883"/>
      <point x="399.98823529411766" y="343.7294117647059" type="curve" smooth="yes"/>
      <point x="399.98823529411766" y="279.88235294117646"/>
      <point x="367.6588235294118" y="253.74117647058824"/>
      <point x="270.45882352941175" y="253.74117647058824" type="curve" smooth="yes"/>
      <point x="173.25882352941176" y="253.74117647058824"/>
      <point x="139.65882352941176" y="279.88235294117646"/>
      <point x="139.65882352941176" y="343.7294117647059" type="curve" smooth="yes"/>
      <point x="139.65882352941176" y="409.49411764705883"/>
      <point x="172.98823529411766" y="434.25882352941176"/>
    </contour>
    <contour>
      <point x="536.4235294117647" y="486.56470588235294" type="line"/>
      <point x="371.67058823529413" y="486.56470588235294" type="line"/>
      <point x="406.67058823529413" y="429.5529411764706" type="line"/>
      <point x="531.2352941176471" y="440.11764705882354" type="line"/>
    </contour>
    <contour>
      <point x="133.08235294117648" y="221.24705882352941" type="line"/>
      <point x="68.89411764705882" y="186.64705882352942"/>
      <point x="60.51764705882353" y="61.92941176470588"/>
      <point x="165.51764705882354" y="47.305882352941175" type="curve" smooth="yes"/>
      <point x="341.1764705882353" y="22.517647058823528" type="line" smooth="yes"/>
      <point x="410.25882352941176" y="12.435294117647059"/>
      <point x="425.25882352941176" y="2.4000000000000004"/>
      <point x="425.25882352941176" y="-47.01176470588236" type="curve" smooth="yes"/>
      <point x="425.25882352941176" y="-113.7764705882353"/>
      <point x="392.9529411764706" y="-129.91764705882352"/>
      <point x="275.45882352941175" y="-129.91764705882352" type="curve" smooth="yes"/>
      <point x="155.61176470588236" y="-129.91764705882352"/>
      <point x="124.03529411764706" y="-115.96470588235294"/>
      <point x="124.03529411764706" y="-47.01176470588236" type="curve" smooth="yes"/>
      <point x="124.03529411764706" y="-1.5176470588235293"/>
      <point x="143.24705882352941" y="22.647058823529413"/>
      <point x="183.95294117647057" y="52.83529411764706" type="curve" smooth="yes"/>
      <point x="232.76470588235293" y="90.4" type="line"/>
      <point x="193.90588235294118" y="103.96470588235294" type="line"/>
      <point x="133.6705882352941" y="71.48235294117647" type="line" smooth="yes"/>
      <point x="67.72941176470589" y="37.83529411764706"/>
      <point x="40.95294117647059" y="9.047058823529412"/>
      <point x="40.95294117647059" y="-54.305882352941175" type="curve" smooth="yes"/>
      <point x="40.95294117647059" y="-165.05882352941177"/>
      <point x="99.68235294117648" y="-201.78823529411764"/>
      <point x="276.18823529411765" y="-201.78823529411764" type="curve" smooth="yes"/>
      <point x="450.0705882352941" y="-201.78823529411764"/>
      <point x="508.3411764705882" y="-165.05882352941177"/>
      <point x="508.3411764705882" y="-51.38823529411765" type="curve" smooth="yes"/>
      <point x="508.3411764705882" y="29.71764705882353"/>
      <point x="476.67058823529413" y="71.5529411764706"/>
      <point x="384.6470588235294" y="85.82352941176471" type="curve" smooth="yes"/>
      <point x="202.58823529411765" y="114.71764705882353" type="line" smooth="yes"/>
      <point x="141.14117647058822" y="124.4235294117647"/>
      <point x="147.95294117647057" y="184.2941176470588"/>
      <point x="181.52941176470588" y="213.87058823529412" type="curve"/>
    </contour>
  </outline>
</glyph>
<glyph name="h" format="2">
  <advance width="580.6705882352941"/>
  <unicode hex="0068"/>
  <anchor x="298.94117647058823" y="-8.75294117647059" name="bottom"/>
  <anchor x="291.29411764705884" y="240.0" name="center"/>
  <anchor x="119.58823529411765" y="705.7294117647059" name="top"/>
  <outline>
    <contour>
      <point x="373.8" y="499.29411764705884" type="curve" smooth="yes"/>
      <point x="299.52941176470586" y="499.29411764705884"/>
      <point x="225.71764705882353" y="463.4823529411765"/>
      <point x="150.01176470588234" y="405.8588235294118" type="curve"/>
      <point x="153.65882352941176" y="344.9294117647059" type="line"/>
      <point x="236.71764705882353" y="397.8"/>
      <point x="290.6941176470588" y="426.6941176470588"/>
      <point x="350.56470588235294" y="426.6941176470588" type="curve" smooth="yes"/>
      <point x="401.22352941176473" y="426.6941176470588"/>
      <point x="420.4470588235294" y="405.5529411764706"/>
      <point x="420.4470588235294" y="341.22352941176473" type="curve" smooth="yes"/>
      <point x="420.4470588235294" y="0.0" type="line"/>
      <point x="505.71764705882356" y="0.0" type="line"/>
      <point x="505.71764705882356" y="365.3764705882353" type="line" smooth="yes"/>
      <point x="505.71764705882356" y="452.83529411764704"/>
      <point x="459.52941176470586" y="499.29411764705884"/>
    </contour>
    <contour>
      <point x="163.2235294117647" y="700.0" type="line"/>
      <point x="77.95294117647059" y="700.0" type="line"/>
      <point x="77.95294117647059" y="0.0" type="line"/>
      <point x="163.2235294117647" y="0.0" type="line"/>
      <point x="163.2235294117647" y="378.91764705882355" type="line"/>
      <point x="154.38823529411764" y="394.18823529411765" type="line"/>
      <point x="160.57647058823528" y="422.6470588235294"/>
      <point x="164.49411764705883" y="463.1294117647059"/>
      <point x="164.49411764705883" y="506.88235294117646" type="curve" smooth="yes"/>
    </contour>
  </outline>
</glyph>
<glyph name="i" format="2">
  <advance width="248.4470588235294"/>
  <unicode hex="0069"/>
  <anchor x="125.58823529411765" y="-8.75294117647059" name="bottom"/>
  <anchor x="160.65882352941176" y="0.0" name="ogonek"/>
  <anchor x="125.04705882352941" y="554.3529411764706" name="top"/>
  <outline>
    <contour>
      <point x="166.49411764705883" y="486.56470588235294" type="line"/>
      <point x="81.95294117647059" y="486.56470588235294" type="line"/>
      <point x="81.95294117647059" y="0.0" type="line"/>
      <point x="166.49411764705883" y="0.0" type="line"/>
    </contour>
    <contour>
      <point x="144.1764705882353" y="693.5882352941177" type="curve" smooth="yes"/>
      <point x="104.27058823529411" y="693.5882352941177" type="line" smooth="yes"/>
      <point x="86.78823529411764" y="693.5882352941177"/>
      <point x="78.41176470588235" y="683.7529411764706"/>
      <point x="78.41176470588235" y="667.7294117647059" type="curve" smooth="yes"/>
      <point x="78.41176470588235" y="610.8352941176471" type="line" smooth="yes"/>
      <point x="78.41176470588235" y="593.3529411764706"/>
      <point x="86.78823529411764" y="584.9764705882353"/>
      <point x="104.27058823529411" y="584.9764705882353" type="curve" smooth="yes"/>
      <point x="144.1764705882353" y="584.9764705882353" type="line" smooth="yes"/>
      <point x="161.65882352941176" y="584.9764705882353"/>
      <point x="170.03529411764706" y="593.3529411764706"/>
      <point x="170.03529411764706" y="610.8352941176471" type="curve" smooth="yes"/>
      <point x="170.03529411764706" y="667.7294117647059" type="line" smooth="yes"/>
      <point x="170.03529411764706" y="683.7529411764706"/>
      <point x="161.65882352941176" y="693.5882352941177"/>
    </contour>
  </outline>
</glyph>
<glyph name="j" format="2">
  <advance width="249.90588235294118"/>
  <unicode hex="006A"/>
  <outline>
    <contour>
      <point x="167.95294117647057" y="486.56470588235294" type="line"/>
      <point x="82.68235294117648" y="486.56470588235294" type="line"/>
      <point x="82.68235294117648" y="-11.717647058823529" type="line" smooth="yes"/>
      <point x="82.68235294117648" y="-74.52941176470588"/>
      <point x="64.6" y="-119.25882352941176"/>
      <point x="26.95294117647059" y="-166.4470588235294" type="curve"/>
      <point x="74.23529411764706" y="-203.43529411764706" type="line"/>
      <point x="131.74117647058824" y="-159.89411764705883"/>
      <point x="167.95294117647057" y="-89.84705882352941"/>
      <point x="167.95294117647057" y="-11.717647058823529" type="curve" smooth="yes"/>
    </contour>
    <contour>
      <point x="145.63529411764705" y="693.5882352941177" type="curve" smooth="yes"/>
      <point x="105.72941176470589" y="693.5882352941177" type="line"/>
      <point x="88.24705882352941" y="693.5882352941177"/>
      <point x="79.87058823529412" y="683.7529411764706"/>
      <point x="79.87058823529412" y="667.7294117647059" type="curve" smooth="yes"/>
      <point x="79.87058823529412" y="610.8352941176471" type="line"/>
      <point x="79.87058823529412" y="593.3529411764706"/>
      <point x="88.24705882352941" y="584.9764705882353"/>
      <point x="105.72941176470589" y="584.9764705882353" type="curve" smooth="yes"/>
      <point x="145.63529411764705" y="584.9764705882353" type="line"/>
      <point x="163.11764705882354" y="584.9764705882353"/>
      <point x="171.49411764705883" y="593.3529411764706"/>
      <point x="171.49411764705883" y="610.8352941176471" type="curve" smooth="yes"/>
      <point x="171.49411764705883" y="667.7294117647059" type="line"/>
      <point x="171.49411764705883" y="683.7529411764706"/>
      <point x="163.11764705882354" y="693.5882352941177"/>
    </contour>
  </outline>
</glyph>
<glyph name="k" format="2">
  <advance width="509.47058823529414"/>
  <unicode hex="006B"/>
  <anchor x="257.88235294117646" y="0.0" name="bottom"/>
  <outline>
    <contour>
      <point x="475.78823529411767" y="486.56470588235294" type="line"/>
      <point x="376.6823529411765" y="486.56470588235294" type="line"/>
      <point x="199.94117647058823" y="278.91764705882355" type="line"/>
      <point x="392.9529411764706" y="0.0" type="line"/>
      <point x="491.78823529411767" y="0.0" type="line"/>
      <point x="323.2352941176471" y="234.14117647058822" type="line" smooth="yes"/>
      <point x="314.3176470588235" y="248.7058823529412"/>
      <point x="298.21176470588233" y="266.2705882352941"/>
      <point x="289.29411764705884" y="273.0" type="curve"/>
      <point x="289.29411764705884" y="275.0" type="line"/>
      <point x="298.21176470588233" y="281.18823529411765"/>
      <point x="314.3176470588235" y="295.56470588235294"/>
      <point x="323.2352941176471" y="308.1294117647059" type="curve" smooth="yes"/>
    </contour>
    <contour>
      <point x="163.2235294117647" y="700.0" type="line"/>
      <point x="77.95294117647059" y="700.0" type="line"/>
      <point x="77.95294117647059" y="0.0" type="line"/>
      <point x="163.2235294117647" y="0.0" type="line"/>
      <point x="163.2235294117647" y="166.05882352941177" type="line" smooth="yes"/>
      <point x="163.2235294117647" y="200.51764705882354"/>
      <point x="159.57647058823528" y="238.27058823529413"/>
      <point x="154.38823529411764" y="276.45882352941175" type="curve"/>
      <point x="161.30588235294118" y="315.1058823529412"/>
      <point x="164.49411764705883" y="348.3176470588235"/>
      <point x="164.49411764705883" y="389.15294117647056" type="curve" smooth="yes"/>
    </contour>
    <contour>
      <point x="246.4470588235294" y="305.6941176470588" type="line"/>
      <point x="132.90588235294118" y="305.6941176470588" type="line"/>
      <point x="132.90588235294118" y="244.30588235294118" type="line"/>
      <point x="246.4470588235294" y="244.30588235294118" type="line"/>
    </contour>
  </outline>
</glyph>
<glyph name="l" format="2">
  <advance width="296.98823529411766"/>
  <unicode hex="006C"/>
  <anchor x="187.45882352941177" y="-8.75294117647059" name="bottom"/>
  <anchor x="121.85882352941177" y="750.6" name="top"/>
  <outline>
    <contour>
      <point x="164.2235294117647" y="700.0" type="line"/>
      <point x="78.95294117647059" y="700.0" type="line"/>
      <point x="78.95294117647059" y="115.4235294117647" type="line" smooth="yes"/>
      <point x="78.95294117647059" y="35.10588235294118"/>
      <point x="125.51764705882353" y="-8.91764705882353"/>
      <point x="198.18823529411765" y="-8.91764705882353" type="curve" smooth="yes"/>
      <point x="222.0235294117647" y="-8.91764705882353"/>
      <point x="268.15294117647056" y="-4.729411764705882"/>
      <point x="286.98823529411766" y="3.647058823529412" type="curve"/>
      <point x="276.6941176470588" y="68.51764705882353" type="line"/>
      <point x="229.63529411764705" y="68.51764705882353" type="line" smooth="yes"/>
      <point x="186.65882352941176" y="68.51764705882353"/>
      <point x="163.49411764705883" y="90.68235294117648"/>
      <point x="163.49411764705883" y="133.9294117647059" type="curve" smooth="yes"/>
    </contour>
  </outline>
</glyph>
<glyph name="m" format="2">
  <advance width="875.6235294117647"/>
  <unicode hex="006D"/>
  <anchor x="439.81176470588235" y="-8.75294117647059" name="bottom"/>
  <anchor x="450.0" y="558.0" name="top"/>
  <outline>
    <contour>
      <point x="670.8352941176471" y="499.29411764705884" type="curve" smooth="yes"/>
      <point x="602.564705882353" y="499.29411764705884"/>
      <point x="536.9411764705883" y="468.21176470588233"/>
      <point x="467.0470588235294" y="405.1294117647059" type="curve"/>
      <point x="472.15294117647056" y="344.9294117647059" type="line"/>
      <point x="552.3176470588236" y="402.90588235294115"/>
      <point x="588.6235294117647" y="426.6941176470588"/>
      <point x="641.035294117647" y="426.6941176470588" type="curve" smooth="yes"/>
      <point x="695.4470588235295" y="426.6941176470588"/>
      <point x="716.1294117647059" y="401.1764705882353"/>
      <point x="716.8588235294118" y="341.22352941176473" type="curve" smooth="yes"/>
      <point x="716.8588235294118" y="0.0" type="line"/>
      <point x="800.6705882352941" y="0.0" type="line"/>
      <point x="800.6705882352941" y="365.3764705882353" type="line" smooth="yes"/>
      <point x="800.6705882352941" y="452.83529411764704"/>
      <point x="755.2117647058824" y="499.29411764705884"/>
    </contour>
    <contour>
      <point x="148.01176470588234" y="486.56470588235294" type="line"/>
      <point x="78.2235294117647" y="486.56470588235294" type="line"/>
      <point x="78.2235294117647" y="0.0" type="line"/>
      <point x="162.76470588235293" y="0.0" type="line"/>
      <point x="162.76470588235293" y="378.91764705882355" type="line"/>
      <point x="153.9294117647059" y="394.18823529411765" type="line"/>
    </contour>
    <contour>
      <point x="351.88235294117646" y="499.29411764705884" type="curve" smooth="yes"/>
      <point x="282.15294117647056" y="499.29411764705884"/>
      <point x="216.52941176470588" y="466.7529411764706"/>
      <point x="147.36470588235295" y="405.1294117647059" type="curve"/>
      <point x="153.2" y="344.9294117647059" type="line"/>
      <point x="234.8235294117647" y="404.36470588235295"/>
      <point x="271.8588235294118" y="426.6941176470588"/>
      <point x="322.81176470588235" y="426.6941176470588" type="curve" smooth="yes"/>
      <point x="374.3058823529412" y="426.6941176470588"/>
      <point x="399.36470588235295" y="404.09411764705885"/>
      <point x="398.63529411764705" y="341.22352941176473" type="curve" smooth="yes"/>
      <point x="398.63529411764705" y="0.0" type="line"/>
      <point x="480.98823529411766" y="0.0" type="line"/>
      <point x="480.98823529411766" y="365.3764705882353" type="line" smooth="yes"/>
      <point x="480.25882352941176" y="453.56470588235294"/>
      <point x="434.8" y="499.29411764705884"/>
    </contour>
  </outline>
</glyph>
<glyph name="n" format="2">
  <advance width="580.9411764705883"/>
  <unicode hex="006E"/>
  <anchor x="296.67058823529413" y="-8.75294117647059" name="bottom"/>
  <anchor x="303.21176470588233" y="553.6235294117647" name="top"/>
  <outline>
    <contour>
      <point x="374.0705882352941" y="499.29411764705884" type="curve" smooth="yes"/>
      <point x="299.8" y="499.29411764705884"/>
      <point x="225.98823529411766" y="464.56470588235294"/>
      <point x="150.28235294117647" y="405.8588235294118" type="curve"/>
      <point x="153.9294117647059" y="344.9294117647059" type="line"/>
      <point x="236.98823529411766" y="396.3411764705882"/>
      <point x="290.9647058823529" y="426.6941176470588"/>
      <point x="350.83529411764704" y="426.6941176470588" type="curve" smooth="yes"/>
      <point x="401.49411764705883" y="426.6941176470588"/>
      <point x="420.7176470588235" y="405.5529411764706"/>
      <point x="420.7176470588235" y="341.22352941176473" type="curve" smooth="yes"/>
      <point x="420.7176470588235" y="0.0" type="line"/>
      <point x="505.98823529411766" y="0.0" type="line"/>
      <point x="505.98823529411766" y="365.3764705882353" type="line" smooth="yes"/>
      <point x="505.98823529411766" y="452.83529411764704"/>
      <point x="459.8" y="499.29411764705884"/>
    </contour>
    <contour>
      <point x="150.2" y="486.56470588235294" type="line"/>
      <point x="78.2235294117647" y="486.56470588235294" type="line"/>
      <point x="78.2235294117647" y="0.0" type="line"/>
      <point x="163.49411764705883" y="0.0" type="line"/>
      <point x="162.76470588235293" y="378.91764705882355" type="line"/>
      <point x="156.8470588235294" y="394.18823529411765" type="line"/>
    </contour>
  </outline>
</glyph>
<glyph name="o" format="2">
  <advance width="568.0235294117647"/>
  <unicode hex="006F"/>
  <anchor x="282.18823529411765" y="-8.75294117647059" name="bottom"/>
  <anchor x="326.3176470588235" y="2.0" name="ogonek"/>
  <anchor x="285.56470588235294" y="549.9764705882353" name="top"/>
  <outline>
    <contour>
      <point x="284.3764705882353" y="499.29411764705884" type="curve" smooth="yes"/>
      <point x="116.97647058823529" y="499.29411764705884"/>
      <point x="54.68235294117647" y="429.3764705882353"/>
      <point x="54.68235294117647" y="242.91764705882352" type="curve" smooth="yes"/>
      <point x="54.68235294117647" y="56.45882352941177"/>
      <point x="116.97647058823529" y="-12.729411764705882"/>
      <point x="284.3764705882353" y="-12.729411764705882" type="curve" smooth="yes"/>
      <point x="451.77647058823527" y="-12.729411764705882"/>
      <point x="513.3411764705883" y="56.45882352941177"/>
      <point x="513.3411764705883" y="242.91764705882352" type="curve" smooth="yes"/>
      <point x="513.3411764705883" y="429.3764705882353"/>
      <point x="451.77647058823527" y="499.29411764705884"/>
    </contour>
    <contour>
      <point x="284.3764705882353" y="427.4235294117647" type="curve" smooth="yes"/>
      <point x="390.47058823529414" y="427.4235294117647"/>
      <point x="424.88235294117646" y="385.28235294117644"/>
      <point x="424.88235294117646" y="242.91764705882352" type="curve" smooth="yes"/>
      <point x="424.88235294117646" y="101.28235294117647"/>
      <point x="390.47058823529414" y="59.141176470588235"/>
      <point x="284.3764705882353" y="59.141176470588235" type="curve" smooth="yes"/>
      <point x="177.5529411764706" y="59.141176470588235"/>
      <point x="143.87058823529412" y="101.28235294117647"/>
      <point x="143.87058823529412" y="242.91764705882352" type="curve" smooth="yes"/>
      <point x="143.87058823529412" y="385.28235294117644"/>
      <point x="177.5529411764706" y="427.4235294117647"/>
    </contour>
  </outline>
</glyph>
<glyph name="p" format="2">
  <advance width="579.964705882353"/>
  <unicode hex="0070"/>
  <outline>
    <contour>
      <point x="356.84705882352944" y="499.29411764705884" type="curve" smooth="yes"/>
      <point x="285.01176470588234" y="499.29411764705884"/>
      <point x="204.04705882352943" y="462.6470588235294"/>
      <point x="150.5529411764706" y="404.67058823529413" type="curve"/>
      <point x="159.49411764705883" y="347.84705882352944" type="line"/>
      <point x="228.36470588235295" y="399.61176470588236"/>
      <point x="275.3411764705882" y="425.2352941176471"/>
      <point x="329.1294117647059" y="425.2352941176471" type="curve" smooth="yes"/>
      <point x="406.22352941176473" y="425.2352941176471"/>
      <point x="436.5529411764706" y="378.8235294117647"/>
      <point x="436.5529411764706" y="241.45882352941177" type="curve" smooth="yes"/>
      <point x="436.5529411764706" y="98.25882352941177"/>
      <point x="404.0352941176471" y="62.05882352941177"/>
      <point x="318.91764705882355" y="62.05882352941177" type="curve" smooth="yes"/>
      <point x="265.8588235294118" y="62.05882352941177"/>
      <point x="222.52941176470588" y="74.68235294117648"/>
      <point x="160.2235294117647" y="92.36470588235294" type="curve"/>
      <point x="155.11764705882354" y="40.54117647058823" type="line"/>
      <point x="212.98823529411766" y="4.811764705882353"/>
      <point x="276.25882352941176" y="-12.0"/>
      <point x="340.0705882352941" y="-12.0" type="curve" smooth="yes"/>
      <point x="464.61176470588236" y="-12.0"/>
      <point x="524.2823529411764" y="52.89411764705882"/>
      <point x="524.2823529411764" y="240.72941176470587" type="curve" smooth="yes"/>
      <point x="524.2823529411764" y="410.32941176470587"/>
      <point x="476.2823529411765" y="499.29411764705884"/>
    </contour>
    <contour>
      <point x="148.01176470588234" y="486.56470588235294" type="line"/>
      <point x="78.2235294117647" y="486.56470588235294" type="line"/>
      <point x="78.2235294117647" y="-200.51764705882354" type="line"/>
      <point x="162.76470588235293" y="-200.51764705882354" type="line"/>
      <point x="162.76470588235293" y="-60.48235294117647" type="line" smooth="yes"/>
      <point x="163.49411764705883" y="-21.83529411764706"/>
      <point x="163.03529411764706" y="10.647058823529411"/>
      <point x="159.03529411764706" y="48.56470588235294" type="curve"/>
      <point x="162.76470588235293" y="60.56470588235294" type="line"/>
      <point x="162.76470588235293" y="372.9529411764706" type="line"/>
      <point x="157.11764705882354" y="386.43529411764706" type="line"/>
    </contour>
  </outline>
</glyph>
<glyph name="q" format="2">
  <advance width="569.9411764705883"/>
  <unicode hex="0071"/>
  <outline>
    <contour>
      <point x="273.83529411764704" y="499.29411764705884" type="curve" smooth="yes"/>
      <point x="103.5764705882353" y="499.29411764705884"/>
      <point x="54.68235294117647" y="410.8705882352941"/>
      <point x="54.68235294117647" y="242.18823529411765" type="curve" smooth="yes"/>
      <point x="54.68235294117647" y="64.54117647058824"/>
      <point x="109.24705882352941" y="-12.729411764705882"/>
      <point x="222.3294117647059" y="-12.729411764705882" type="curve" smooth="yes"/>
      <point x="297.8705882352941" y="-12.729411764705882"/>
      <point x="366.6235294117647" y="22.270588235294117"/>
      <point x="429.5764705882353" y="77.51764705882353" type="curve"/>
      <point x="418.74117647058824" y="134.4470588235294" type="line"/>
      <point x="354.70588235294116" y="89.68235294117648"/>
      <point x="311.18823529411765" y="62.05882352941177"/>
      <point x="250.4" y="62.05882352941177" type="curve" smooth="yes"/>
      <point x="165.4470588235294" y="62.05882352941177"/>
      <point x="142.41176470588235" y="116.84705882352941"/>
      <point x="142.41176470588235" y="236.08235294117648" type="curve" smooth="yes"/>
      <point x="142.41176470588235" y="384.5529411764706"/>
      <point x="176.5529411764706" y="425.2352941176471"/>
      <point x="273.45882352941175" y="427.4235294117647" type="curve" smooth="yes"/>
      <point x="316.2705882352941" y="428.15294117647056"/>
      <point x="373.08235294117645" y="421.88235294117646"/>
      <point x="425.3058823529412" y="405.8" type="curve"/>
      <point x="493.71764705882356" y="464.6470588235294" type="line"/>
      <point x="428.5529411764706" y="487.29411764705884"/>
      <point x="336.29411764705884" y="499.29411764705884"/>
    </contour>
    <contour>
      <point x="409.1764705882353" y="468.29411764705884" type="line"/>
      <point x="409.1764705882353" y="90.24705882352941" type="line"/>
      <point x="418.01176470588234" y="75.70588235294117" type="line"/>
      <point x="409.63529411764705" y="40.32941176470588"/>
      <point x="408.4470588235294" y="7.847058823529411"/>
      <point x="408.4470588235294" y="-34.07058823529412" type="curve" smooth="yes"/>
      <point x="409.1764705882353" y="-200.51764705882354" type="line"/>
      <point x="493.71764705882356" y="-200.51764705882354" type="line"/>
      <point x="493.71764705882356" y="464.6470588235294" type="line"/>
    </contour>
  </outline>
</glyph>
<glyph name="r" format="2">
  <advance width="400.50588235294117"/>
  <unicode hex="0072"/>
  <anchor x="121.85882352941177" y="-8.75294117647059" name="bottom"/>
  <anchor x="220.27058823529413" y="554.3529411764706" name="top"/>
  <outline>
    <contour>
      <point x="144.36470588235295" y="486.56470588235294" type="line"/>
      <point x="78.2235294117647" y="486.56470588235294" type="line"/>
      <point x="78.2235294117647" y="0.0" type="line"/>
      <point x="163.49411764705883" y="0.0" type="line"/>
      <point x="163.49411764705883" y="378.91764705882355" type="line"/>
      <point x="154.65882352941176" y="394.18823529411765" type="line"/>
    </contour>
    <contour>
      <point x="383.3411764705882" y="499.29411764705884" type="line"/>
      <point x="361.4235294117647" y="499.29411764705884" type="line"/>
      <point x="293.0705882352941" y="499.29411764705884"/>
      <point x="219.34117647058824" y="464.4823529411765"/>
      <point x="146.63529411764705" y="405.1294117647059" type="curve"/>
      <point x="153.9294117647059" y="352.22352941176473" type="line"/>
      <point x="236.1764705882353" y="394.3411764705882"/>
      <point x="288.4235294117647" y="419.4"/>
      <point x="345.29411764705884" y="419.4" type="curve" smooth="yes"/>
      <point x="373.2352941176471" y="419.4" type="line"/>
    </contour>
  </outline>
</glyph>
<glyph name="s" format="2">
  <advance width="507.7529411764706"/>
  <unicode hex="0073"/>
  <anchor x="248.72941176470587" y="-11.0" name="bottom"/>
  <anchor x="258.1058823529412" y="554.3529411764706" name="top"/>
  <outline>
    <contour>
      <point x="240.45882352941177" y="499.29411764705884" type="curve" smooth="yes"/>
      <point x="107.41176470588235" y="500.56470588235294"/>
      <point x="50.32941176470588" y="477.9764705882353"/>
      <point x="50.32941176470588" y="365.0" type="curve" smooth="yes"/>
      <point x="50.32941176470588" y="284.91764705882355"/>
      <point x="81.49411764705883" y="247.54117647058823"/>
      <point x="160.16470588235293" y="228.6" type="curve" smooth="yes"/>
      <point x="300.28235294117644" y="196.9294117647059" type="line" smooth="yes"/>
      <point x="346.8235294117647" y="185.8235294117647"/>
      <point x="376.52941176470586" y="177.41176470588235"/>
      <point x="376.52941176470586" y="128.56470588235294" type="curve" smooth="yes"/>
      <point x="376.52941176470586" y="71.2235294117647"/>
      <point x="342.74117647058824" y="61.141176470588235"/>
      <point x="233.68235294117648" y="60.6" type="curve" smooth="yes"/>
      <point x="171.14117647058822" y="60.32941176470588"/>
      <point x="113.74117647058823" y="61.6"/>
      <point x="66.05882352941177" y="65.41176470588235" type="curve"/>
      <point x="60.141176470588235" y="2.9176470588235297" type="line"/>
      <point x="142.6235294117647" y="-10.0"/>
      <point x="215.58823529411765" y="-11.0"/>
      <point x="250.91764705882352" y="-11.0" type="curve" smooth="yes"/>
      <point x="392.3411764705882" y="-11.0"/>
      <point x="458.88235294117646" y="8.75294117647059"/>
      <point x="458.88235294117646" y="128.56470588235294" type="curve" smooth="yes"/>
      <point x="458.88235294117646" y="211.85882352941178"/>
      <point x="422.8" y="244.48235294117646"/>
      <point x="345.50588235294117" y="262.9647058823529" type="curve" smooth="yes"/>
      <point x="203.9294117647059" y="295.36470588235295" type="line" smooth="yes"/>
      <point x="156.57647058823528" y="306.47058823529414"/>
      <point x="132.68235294117648" y="314.4235294117647"/>
      <point x="132.68235294117648" y="365.0" type="curve" smooth="yes"/>
      <point x="132.68235294117648" y="425.9647058823529"/>
      <point x="162.63529411764705" y="427.50588235294117"/>
      <point x="252.85882352941178" y="426.9647058823529" type="curve" smooth="yes"/>
      <point x="314.0470588235294" y="426.6941176470588"/>
      <point x="376.8588235294118" y="424.4235294117647"/>
      <point x="438.0470588235294" y="421.88235294117646" type="curve"/>
      <point x="444.6941176470588" y="483.6470588235294" type="line"/>
      <point x="384.9647058823529" y="492.83529411764704"/>
      <point x="303.56470588235294" y="498.29411764705884"/>
    </contour>
  </outline>
</glyph>
<glyph name="t" format="2">
  <advance width="381.2823529411765"/>
  <unicode hex="0074"/>
  <anchor x="246.7764705882353" y="-8.91764705882353" name="bottom"/>
  <anchor x="159.52941176470588" y="644.6470588235294" name="top"/>
  <outline>
    <contour>
      <point x="199.7058823529412" y="631.0" type="line"/>
      <point x="115.16470588235295" y="631.0" type="line"/>
      <point x="115.16470588235295" y="122.71764705882353" type="line" smooth="yes"/>
      <point x="115.16470588235295" y="38.023529411764706"/>
      <point x="157.72941176470587" y="-8.91764705882353"/>
      <point x="239.75294117647059" y="-8.91764705882353" type="curve" smooth="yes"/>
      <point x="264.0470588235294" y="-8.91764705882353"/>
      <point x="318.1764705882353" y="-4.729411764705882"/>
      <point x="349.5529411764706" y="3.647058823529412" type="curve"/>
      <point x="339.98823529411766" y="68.51764705882353" type="line"/>
      <point x="265.84705882352944" y="68.51764705882353" type="line" smooth="yes"/>
      <point x="218.49411764705883" y="68.51764705882353"/>
      <point x="199.7058823529412" y="86.76470588235294"/>
      <point x="199.7058823529412" y="133.9294117647059" type="curve" smooth="yes"/>
    </contour>
    <contour>
      <point x="355.09411764705885" y="486.56470588235294" type="line"/>
      <point x="122.62352941176471" y="486.56470588235294" type="line"/>
      <point x="26.705882352941178" y="481.56470588235294" type="line"/>
      <point x="26.705882352941178" y="420.0705882352941" type="line"/>
      <point x="355.09411764705885" y="420.0705882352941" type="line"/>
    </contour>
  </outline>
</glyph>
<glyph name="u" format="2">
  <advance width="570.2117647058824"/>
  <unicode hex="0075"/>
  <anchor x="276.0" y="-11.0" name="bottom"/>
  <anchor x="494.1764705882353" y="0.0" name="ogonek"/>
  <anchor x="285.1058823529412" y="557.2705882352941" name="top"/>
  <outline>
    <contour>
      <point x="160.2235294117647" y="486.56470588235294" type="line"/>
      <point x="74.95294117647059" y="486.56470588235294" type="line"/>
      <point x="74.95294117647059" y="121.18823529411765" type="line" smooth="yes"/>
      <point x="74.95294117647059" y="33.0"/>
      <point x="120.41176470588235" y="-12.729411764705882"/>
      <point x="207.6" y="-12.729411764705882" type="curve" smooth="yes"/>
      <point x="281.05882352941177" y="-12.729411764705882"/>
      <point x="351.1411764705882" y="17.623529411764707"/>
      <point x="427.22352941176473" y="77.78823529411764" type="curve"/>
      <point x="416.28235294117644" y="136.52941176470588" type="line"/>
      <point x="340.1411764705882" y="87.30588235294118"/>
      <point x="290.6235294117647" y="60.6"/>
      <point x="236.6705882352941" y="60.6" type="curve" smooth="yes"/>
      <point x="180.90588235294118" y="60.6"/>
      <point x="159.49411764705883" y="83.2"/>
      <point x="160.2235294117647" y="145.34117647058824" type="curve" smooth="yes"/>
    </contour>
    <contour>
      <point x="491.98823529411766" y="486.56470588235294" type="line"/>
      <point x="407.4470588235294" y="486.56470588235294" type="line"/>
      <point x="407.4470588235294" y="106.91764705882353" type="line"/>
      <point x="415.5529411764706" y="92.37647058823529" type="line"/>
      <point x="424.38823529411764" y="0.0" type="line"/>
      <point x="491.98823529411766" y="0.0" type="line"/>
    </contour>
  </outline>
</glyph>
<glyph name="v" format="2">
  <advance width="529.6117647058824"/>
  <unicode hex="0076"/>
  <outline>
    <contour>
      <point x="511.2823529411765" y="486.56470588235294" type="line"/>
      <point x="421.09411764705885" y="486.56470588235294" type="line"/>
      <point x="301.18823529411765" y="146.09411764705882" type="line" smooth="yes"/>
      <point x="291.1058823529412" y="118.01176470588236"/>
      <point x="281.0235294117647" y="88.74117647058824"/>
      <point x="270.94117647058823" y="60.65882352941176" type="curve"/>
      <point x="257.94117647058823" y="60.65882352941176" type="line"/>
      <point x="248.58823529411765" y="88.47058823529412"/>
      <point x="238.7764705882353" y="118.01176470588236"/>
      <point x="228.69411764705882" y="145.8235294117647" type="curve" smooth="yes"/>
      <point x="108.51764705882353" y="486.56470588235294" type="line"/>
      <point x="18.32941176470588" y="486.56470588235294" type="line"/>
      <point x="196.36470588235295" y="21.129411764705882" type="line" smooth="yes"/>
      <point x="200.8235294117647" y="8.105882352941176"/>
      <point x="212.11764705882354" y="0.0"/>
      <point x="226.14117647058822" y="0.0" type="curve" smooth="yes"/>
      <point x="302.74117647058824" y="0.0" type="line" smooth="yes"/>
      <point x="317.49411764705883" y="0.0"/>
      <point x="328.05882352941177" y="8.105882352941176"/>
      <point x="333.2470588235294" y="21.129411764705882" type="curve" smooth="yes"/>
    </contour>
  </outline>
</glyph>
<glyph name="w" format="2">
  <advance width="823.6705882352941"/>
  <unicode hex="0077"/>
  <anchor x="412.56470588235294" y="554.3529411764706" name="top"/>
  <outline>
    <contour>
      <point x="799.1529411764706" y="486.56470588235294" type="line"/>
      <point x="711.1529411764706" y="486.56470588235294" type="line"/>
      <point x="609.6235294117647" y="127.84705882352941" type="line" smooth="yes"/>
      <point x="602.3529411764706" y="102.92941176470589"/>
      <point x="598.5411764705882" y="79.74117647058824"/>
      <point x="593.4588235294118" y="54.82352941176471" type="curve"/>
      <point x="580.1882352941177" y="54.82352941176471" type="line"/>
      <point x="574.6470588235294" y="79.74117647058824"/>
      <point x="568.3764705882353" y="103.65882352941176"/>
      <point x="562.8352941176471" y="127.84705882352941" type="curve" smooth="yes"/>
      <point x="482.78823529411767" y="459.32941176470587" type="line" smooth="yes"/>
      <point x="479.32941176470587" y="476.0"/>
      <point x="467.0352941176471" y="486.56470588235294"/>
      <point x="450.8235294117647" y="486.56470588235294" type="curve" smooth="yes"/>
      <point x="373.5764705882353" y="486.56470588235294" type="line" smooth="yes"/>
      <point x="356.63529411764705" y="486.56470588235294"/>
      <point x="345.0705882352941" y="476.0"/>
      <point x="341.61176470588236" y="460.05882352941177" type="curve" smooth="yes"/>
      <point x="260.83529411764704" y="127.84705882352941" type="line" smooth="yes"/>
      <point x="255.2941176470588" y="103.65882352941176"/>
      <point x="249.0235294117647" y="79.01176470588236"/>
      <point x="243.48235294117646" y="54.82352941176471" type="curve"/>
      <point x="230.21176470588236" y="54.82352941176471" type="line"/>
      <point x="225.85882352941178" y="78.74117647058824"/>
      <point x="220.58823529411765" y="103.65882352941176"/>
      <point x="214.04705882352943" y="127.5764705882353" type="curve" smooth="yes"/>
      <point x="112.51764705882353" y="486.56470588235294" type="line"/>
      <point x="24.517647058823528" y="486.56470588235294" type="line"/>
      <point x="167.4470588235294" y="24.317647058823532" type="line" smooth="yes"/>
      <point x="170.90588235294118" y="8.83529411764706"/>
      <point x="183.9294117647059" y="0.0"/>
      <point x="200.14117647058822" y="0.0" type="curve" smooth="yes"/>
      <point x="275.74117647058824" y="0.0" type="line" smooth="yes"/>
      <point x="292.6823529411765" y="0.0"/>
      <point x="306.43529411764706" y="10.564705882352941"/>
      <point x="309.8941176470588" y="27.235294117647058" type="curve" smooth="yes"/>
      <point x="388.67058823529413" y="357.5529411764706" type="line" smooth="yes"/>
      <point x="394.4823529411765" y="383.01176470588234"/>
      <point x="400.29411764705884" y="408.47058823529414"/>
      <point x="406.1058823529412" y="434.6588235294118" type="curve"/>
      <point x="417.56470588235294" y="434.6588235294118" type="line"/>
      <point x="424.1058823529412" y="408.47058823529414"/>
      <point x="428.18823529411765" y="383.01176470588234"/>
      <point x="434.0" y="357.5529411764706" type="curve" smooth="yes"/>
      <point x="513.7764705882353" y="27.235294117647058" type="line" smooth="yes"/>
      <point x="517.2352941176471" y="10.564705882352941"/>
      <point x="530.9882352941177" y="0.0"/>
      <point x="547.2" y="0.0" type="curve" smooth="yes"/>
      <point x="624.2588235294118" y="0.0" type="line" smooth="yes"/>
      <point x="640.4705882352941" y="0.0"/>
      <point x="652.7647058823529" y="8.83529411764706"/>
      <point x="656.9529411764706" y="24.317647058823532" type="curve" smooth="yes"/>
    </contour>
  </outline>
</glyph>
<glyph name="x" format="2">
  <advance width="528.3411764705883"/>
  <unicode hex="0078"/>
  <outline>
    <contour>
      <point x="493.2" y="486.56470588235294" type="line"/>
      <point x="401.2" y="486.56470588235294" type="line"/>
      <point x="254.08235294117648" y="251.45882352941177" type="line"/>
      <point x="412.74117647058824" y="0.0" type="line"/>
      <point x="505.47058823529414" y="0.0" type="line"/>
      <point x="342.43529411764706" y="251.45882352941177" type="line"/>
    </contour>
    <contour>
      <point x="127.14117647058823" y="486.56470588235294" type="line"/>
      <point x="35.141176470588235" y="486.56470588235294" type="line"/>
      <point x="185.90588235294118" y="251.45882352941177" type="line"/>
      <point x="22.870588235294118" y="0.0" type="line"/>
      <point x="115.6" y="0.0" type="line"/>
      <point x="274.25882352941176" y="251.45882352941177" type="line"/>
    </contour>
    <contour>
      <point x="316.6588235294118" y="286.0705882352941" type="line"/>
      <point x="212.14117647058822" y="286.0705882352941" type="line"/>
      <point x="212.14117647058822" y="219.57647058823528" type="line"/>
      <point x="316.6588235294118" y="219.57647058823528" type="line"/>
    </contour>
  </outline>
</glyph>
<glyph name="y" format="2">
  <advance width="528.6117647058824"/>
  <unicode hex="0079"/>
  <anchor x="431.9294117647059" y="-11.0" name="bottom"/>
  <anchor x="266.94117647058823" y="554.3529411764706" name="top"/>
  <outline>
    <contour>
      <point x="509.8235294117647" y="486.56470588235294" type="line"/>
      <point x="418.1764705882353" y="486.56470588235294" type="line"/>
      <point x="290.7529411764706" y="124.14117647058823" type="line" smooth="yes"/>
      <point x="281.7529411764706" y="97.76470588235294"/>
      <point x="270.29411764705884" y="62.82352941176471"/>
      <point x="259.83529411764704" y="37.44705882352941" type="curve" smooth="yes"/>
      <point x="235.72941176470587" y="-21.223529411764705" type="line" smooth="yes"/>
      <point x="210.91764705882352" y="-81.74117647058823"/>
      <point x="172.81176470588235" y="-124.88235294117646"/>
      <point x="93.54117647058824" y="-150.04705882352943" type="curve"/>
      <point x="102.45882352941176" y="-205.6235294117647" type="line"/>
      <point x="223.47058823529412" y="-200.31764705882352"/>
      <point x="282.54117647058825" y="-112.87058823529412"/>
      <point x="315.08235294117645" y="-27.305882352941175" type="curve" smooth="yes"/>
    </contour>
    <contour>
      <point x="109.24705882352941" y="486.56470588235294" type="line"/>
      <point x="18.32941176470588" y="486.56470588235294" type="line"/>
      <point x="194.90588235294118" y="21.858823529411765" type="line" smooth="yes"/>
      <point x="199.36470588235295" y="8.105882352941176"/>
      <point x="210.65882352941176" y="0.0"/>
      <point x="225.41176470588235" y="0.0" type="curve" smooth="yes"/>
      <point x="250.89411764705883" y="0.0" type="line"/>
      <point x="279.1294117647059" y="65.03529411764706" type="line"/>
      <point x="256.4823529411765" y="65.03529411764706" type="line"/>
      <point x="251.6705882352941" y="84.95294117647059"/>
      <point x="245.12941176470588" y="104.41176470588235"/>
      <point x="238.12941176470588" y="123.6" type="curve" smooth="yes"/>
    </contour>
  </outline>
</glyph>
<glyph name="z" format="2">
  <advance width="509.94117647058823"/>
  <unicode hex="007A"/>
  <anchor x="258.6470588235294" y="-11.0" name="bottom"/>
  <anchor x="254.48235294117646" y="554.3529411764706" name="top"/>
  <outline>
    <contour>
      <point x="363.4" y="418.15294117647056" type="line"/>
      <point x="48.62352941176471" y="69.41176470588235" type="line"/>
      <point x="143.54117647058823" y="68.41176470588235" type="line"/>
      <point x="457.5882352941176" y="417.15294117647056" type="line"/>
    </contour>
    <contour>
      <point x="461.3176470588235" y="69.41176470588235" type="line"/>
      <point x="48.62352941176471" y="69.41176470588235" type="line"/>
      <point x="48.62352941176471" y="0.0" type="line"/>
      <point x="461.3176470588235" y="0.0" type="line"/>
    </contour>
    <contour>
      <point x="457.5882352941176" y="486.56470588235294" type="line"/>
      <point x="52.35294117647059" y="486.56470588235294" type="line"/>
      <point x="52.35294117647059" y="417.15294117647056" type="line"/>
      <point x="457.5882352941176" y="417.15294117647056" type="line"/>
    </contour>
  </outline>
</glyph>
<glyph name="braceleft" format="2">
  <advance width="319.15294117647056"/>
  <unicode hex="007B"/>
  <outline>
    <contour>
      <point x="275.71764705882356" y="768.0" type="line"/>
      <point x="153.08235294117648" y="777.4823529411765"/>
      <point x="104.2235294117647" y="728.8117647058823"/>
      <point x="104.2235294117647" y="635.435294117647" type="curve" smooth="yes"/>
      <point x="104.2235294117647" y="436.4823529411765" type="line" smooth="yes"/>
      <point x="104.2235294117647" y="374.3176470588235"/>
      <point x="93.68235294117648" y="374.3176470588235"/>
      <point x="45.78823529411765" y="359.0470588235294" type="curve"/>
      <point x="45.78823529411765" y="296.9529411764706" type="line"/>
      <point x="90.41176470588235" y="279.6823529411765"/>
      <point x="108.2235294117647" y="275.4117647058824"/>
      <point x="108.2235294117647" y="223.51764705882354" type="curve" smooth="yes"/>
      <point x="108.2235294117647" y="-32.43529411764706" type="line" smooth="yes"/>
      <point x="108.2235294117647" y="-125.81176470588235"/>
      <point x="157.08235294117648" y="-174.48235294117646"/>
      <point x="279.71764705882356" y="-165.0" type="curve"/>
      <point x="279.71764705882356" y="-111.25882352941176" type="line"/>
      <point x="209.9294117647059" y="-111.25882352941176"/>
      <point x="189.8470588235294" y="-87.11764705882354"/>
      <point x="189.8470588235294" y="-26.6" type="curve" smooth="yes"/>
      <point x="189.8470588235294" y="209.87058823529412" type="line" smooth="yes"/>
      <point x="189.11764705882354" y="279.8705882352941"/>
      <point x="169.9294117647059" y="305.2705882352941"/>
      <point x="96.71764705882353" y="328.0" type="curve"/>
      <point x="167.65882352941176" y="342.0"/>
      <point x="186.57647058823528" y="367.67058823529413"/>
      <point x="185.8470588235294" y="450.1294117647059" type="curve" smooth="yes"/>
      <point x="185.8470588235294" y="628.8705882352941" type="line" smooth="yes"/>
      <point x="185.8470588235294" y="689.6588235294117"/>
      <point x="205.9294117647059" y="714.2588235294118"/>
      <point x="275.71764705882356" y="714.2588235294118" type="curve"/>
    </contour>
  </outline>
</glyph>
<glyph name="bar" format="2">
  <advance width="246.4"/>
  <unicode hex="007C"/>
  <outline>
    <contour>
      <point x="154.25882352941176" y="781.0" type="line"/>
      <point x="92.14117647058823" y="781.0" type="line"/>
      <point x="92.14117647058823" y="-169.0" type="line"/>
      <point x="154.25882352941176" y="-169.0" type="line"/>
    </contour>
  </outline>
</glyph>
<glyph name="braceright" format="2">
  <advance width="319.88235294117646"/>
  <unicode hex="007D"/>
  <outline>
    <contour>
      <point x="44.16470588235294" y="768.0" type="curve"/>
      <point x="44.16470588235294" y="714.2588235294118" type="line"/>
      <point x="113.95294117647059" y="714.2588235294118"/>
      <point x="134.03529411764706" y="689.6588235294117"/>
      <point x="134.03529411764706" y="628.8705882352941" type="curve" smooth="yes"/>
      <point x="134.03529411764706" y="450.1294117647059" type="line" smooth="yes"/>
      <point x="133.30588235294118" y="367.67058823529413"/>
      <point x="152.2235294117647" y="342.0"/>
      <point x="223.16470588235293" y="328.0" type="curve"/>
      <point x="149.95294117647057" y="305.2705882352941"/>
      <point x="130.76470588235293" y="279.8705882352941"/>
      <point x="130.03529411764706" y="209.87058823529412" type="curve" smooth="yes"/>
      <point x="130.03529411764706" y="-26.6" type="line" smooth="yes"/>
      <point x="130.03529411764706" y="-87.11764705882354"/>
      <point x="109.95294117647059" y="-111.25882352941176"/>
      <point x="40.16470588235294" y="-111.25882352941176" type="curve"/>
      <point x="40.16470588235294" y="-165.0" type="line"/>
      <point x="162.8" y="-174.48235294117646"/>
      <point x="211.65882352941176" y="-125.81176470588235"/>
      <point x="211.65882352941176" y="-32.43529411764706" type="curve" smooth="yes"/>
      <point x="211.65882352941176" y="223.51764705882354" type="line" smooth="yes"/>
      <point x="211.65882352941176" y="275.4117647058824"/>
      <point x="229.47058823529412" y="279.6823529411765"/>
      <point x="274.09411764705885" y="296.9529411764706" type="curve"/>
      <point x="274.09411764705885" y="359.0470588235294" type="line"/>
      <point x="226.2" y="374.3176470588235"/>
      <point x="215.65882352941176" y="374.3176470588235"/>
      <point x="215.65882352941176" y="436.4823529411765" type="curve" smooth="yes"/>
      <point x="215.65882352941176" y="635.435294117647" type="line" smooth="yes"/>
      <point x="215.65882352941176" y="728.8117647058823"/>
      <point x="166.8" y="777.4823529411765"/>
    </contour>
  </outline>
</glyph>
<glyph name="asciitilde" format="2">
  <advance width="524.9764705882353"/>
  <unicode hex="007E"/>
  <outline>
    <contour>
      <point x="153.9764705882353" y="347.50588235294117" type="curve" smooth="yes"/>
      <point x="104.05882352941177" y="350.0470588235294"/>
      <point x="67.49411764705883" y="311.4823529411765"/>
      <point x="76.78823529411764" y="227.87058823529412" type="curve"/>
      <point x="120.7764705882353" y="227.87058823529412" type="line"/>
      <point x="120.7764705882353" y="270.3058823529412"/>
      <point x="129.75294117647059" y="287.9294117647059"/>
      <point x="165.64705882352942" y="283.9294117647059" type="curve" smooth="yes"/>
      <point x="224.68235294117648" y="278.2"/>
      <point x="292.61176470588236" y="228.95294117647057"/>
      <point x="372.0" y="225.41176470588235" type="curve" smooth="yes"/>
      <point x="424.1058823529412" y="222.14117647058822"/>
      <point x="458.4823529411765" y="262.6235294117647"/>
      <point x="449.18823529411765" y="342.50588235294117" type="curve"/>
      <point x="405.2" y="342.50588235294117" type="line"/>
      <point x="405.2" y="301.3411764705882"/>
      <point x="395.49411764705883" y="285.25882352941176"/>
      <point x="359.6" y="288.98823529411766" type="curve" smooth="yes"/>
      <point x="297.4" y="294.71764705882356"/>
      <point x="224.2" y="343.9647058823529"/>
    </contour>
  </outline>
</glyph>
<glyph name="exclamdown" format="2">
  <advance width="256.3411764705882"/>
  <unicode hex="00A1"/>
  <outline>
    <contour>
      <point x="162.01176470588234" y="282.1058823529412" type="line"/>
      <point x="94.32941176470588" y="282.1058823529412" type="line"/>
      <point x="85.76470588235294" y="104.11764705882354" type="line"/>
      <point x="85.76470588235294" y="-195.51764705882354" type="line"/>
      <point x="170.57647058823528" y="-195.51764705882354" type="line"/>
      <point x="170.57647058823528" y="104.11764705882354" type="line"/>
    </contour>
    <contour>
      <point x="139.50588235294117" y="493.1294117647059" type="curve" smooth="yes"/>
      <point x="117.83529411764705" y="493.1294117647059" type="line" smooth="yes"/>
      <point x="94.51764705882353" y="493.1294117647059"/>
      <point x="86.14117647058823" y="484.7529411764706"/>
      <point x="86.14117647058823" y="461.43529411764706" type="curve" smooth="yes"/>
      <point x="86.14117647058823" y="406.0" type="line" smooth="yes"/>
      <point x="86.14117647058823" y="382.6823529411765"/>
      <point x="94.51764705882353" y="375.0352941176471"/>
      <point x="117.83529411764705" y="375.0352941176471" type="curve" smooth="yes"/>
      <point x="139.50588235294117" y="375.0352941176471" type="line" smooth="yes"/>
      <point x="162.8235294117647" y="375.0352941176471"/>
      <point x="171.2" y="382.6823529411765"/>
      <point x="171.2" y="406.0" type="curve" smooth="yes"/>
      <point x="171.2" y="461.43529411764706" type="line" smooth="yes"/>
      <point x="171.2" y="484.7529411764706"/>
      <point x="162.8235294117647" y="493.1294117647059"/>
    </contour>
  </outline>
</glyph>
<glyph name="currency" format="2">
  <advance width="593.9764705882353"/>
  <unicode hex="00A4"/>
  <outline>
    <contour>
      <point x="296.3529411764706" y="496.74117647058824" type="curve" smooth="yes"/>
      <point x="374.0352941176471" y="496.74117647058824"/>
      <point x="439.09411764705885" y="432.1411764705882"/>
      <point x="439.09411764705885" y="352.0" type="curve" smooth="yes"/>
      <point x="439.09411764705885" y="271.8588235294118"/>
      <point x="374.0352941176471" y="206.52941176470588"/>
      <point x="296.3529411764706" y="207.52941176470588" type="curve" smooth="yes"/>
      <point x="216.94117647058823" y="206.52941176470588"/>
      <point x="151.88235294117646" y="271.8588235294118"/>
      <point x="151.88235294117646" y="352.0" type="curve" smooth="yes"/>
      <point x="151.88235294117646" y="432.1411764705882"/>
      <point x="216.94117647058823" y="496.74117647058824"/>
    </contour>
    <contour>
      <point x="106.02352941176471" y="579.9411764705883" type="line"/>
      <point x="68.68235294117648" y="542.3294117647059" type="line"/>
      <point x="151.87058823529412" y="459.1411764705882" type="line"/>
      <point x="189.48235294117646" y="495.7529411764706" type="line"/>
    </contour>
    <contour>
      <point x="488.4117647058824" y="579.9411764705883" type="line"/>
      <point x="406.9529411764706" y="498.4823529411765" type="line"/>
      <point x="443.56470588235294" y="461.1411764705882" type="line"/>
      <point x="525.7529411764706" y="542.3294117647059" type="line"/>
    </contour>
    <contour>
      <point x="155.14117647058822" y="251.7764705882353" type="line"/>
      <point x="66.2235294117647" y="162.85882352941178" type="line"/>
      <point x="106.02352941176471" y="123.32941176470588" type="line"/>
      <point x="194.6705882352941" y="212.24705882352941" type="line"/>
    </contour>
    <contour>
      <point x="438.1058823529412" y="246.85882352941178" type="line"/>
      <point x="400.7647058823529" y="209.51764705882354" type="line"/>
      <point x="487.6823529411765" y="122.6" type="line"/>
      <point x="526.0235294117647" y="159.94117647058823" type="line"/>
    </contour>
    <contour>
      <point x="296.3529411764706" y="548.1058823529412" type="curve" smooth="yes"/>
      <point x="187.43529411764706" y="548.1058823529412"/>
      <point x="99.51764705882353" y="460.18823529411765"/>
      <point x="99.51764705882353" y="351.2705882352941" type="curve" smooth="yes"/>
      <point x="99.51764705882353" y="243.35294117647058"/>
      <point x="187.43529411764706" y="155.43529411764706"/>
      <point x="296.3529411764706" y="155.43529411764706" type="curve" smooth="yes"/>
      <point x="404.2705882352941" y="155.43529411764706"/>
      <point x="492.18823529411765" y="243.35294117647058"/>
      <point x="492.18823529411765" y="351.2705882352941" type="curve" smooth="yes"/>
      <point x="492.18823529411765" y="460.18823529411765"/>
      <point x="405.2705882352941" y="548.1058823529412"/>
    </contour>
  </outline>
</glyph>
<glyph name="yen" format="2">
  <advance width="618.0470588235294"/>
  <unicode hex="00A5"/>
  <outline>
    <contour>
      <point x="581.5529411764705" y="690.0" type="line"/>
      <point x="490.09411764705885" y="690.0" type="line"/>
      <point x="345.91764705882355" y="414.4470588235294" type="line" smooth="yes"/>
      <point x="334.6470588235294" y="390.52941176470586"/>
      <point x="323.29411764705884" y="361.88235294117646"/>
      <point x="313.21176470588233" y="336.9647058823529" type="curve"/>
      <point x="306.0235294117647" y="336.9647058823529" type="line"/>
      <point x="295.21176470588233" y="361.88235294117646"/>
      <point x="284.5882352941176" y="390.52941176470586"/>
      <point x="272.3176470588235" y="414.71764705882356" type="curve" smooth="yes"/>
      <point x="127.41176470588235" y="690.0" type="line"/>
      <point x="35.95294117647059" y="690.0" type="line"/>
      <point x="269.38823529411764" y="255.2" type="line"/>
      <point x="349.11764705882354" y="255.2" type="line"/>
    </contour>
    <contour>
      <point x="353.11764705882354" y="316.83529411764704" type="line"/>
      <point x="265.38823529411764" y="316.83529411764704" type="line"/>
      <point x="265.38823529411764" y="0.0" type="line"/>
      <point x="353.11764705882354" y="0.0" type="line"/>
    </contour>
    <contour>
      <point x="531.4235294117647" y="209.85882352941178" type="line"/>
      <point x="91.3529411764706" y="209.85882352941178" type="line"/>
      <point x="92.08235294117647" y="159.2235294117647" type="line"/>
      <point x="531.4235294117647" y="159.2235294117647" type="line"/>
    </contour>
    <contour>
      <point x="531.4235294117647" y="322.77647058823527" type="line"/>
      <point x="90.62352941176471" y="322.77647058823527" type="line"/>
      <point x="92.08235294117647" y="271.4117647058824" type="line"/>
      <point x="531.4235294117647" y="271.4117647058824" type="line"/>
    </contour>
  </outline>
</glyph>
<glyph name="brokenbar" format="2">
  <advance width="248.4"/>
  <unicode hex="00A6"/>
  <outline>
    <contour>
      <point x="155.25882352941176" y="781.0" type="line"/>
      <point x="93.14117647058823" y="781.0" type="line"/>
      <point x="93.14117647058823" y="381.0" type="line"/>
      <point x="155.25882352941176" y="381.0" type="line"/>
    </contour>
    <contour>
      <point x="155.25882352941176" y="231.0" type="line"/>
      <point x="93.14117647058823" y="231.0" type="line"/>
      <point x="93.14117647058823" y="-169.0" type="line"/>
      <point x="155.25882352941176" y="-169.0" type="line"/>
    </contour>
  </outline>
</glyph>
<glyph name="section" format="2">
  <advance width="544.4588235294118"/>
  <unicode hex="00A7"/>
  <outline>
    <contour>
      <point x="140.09411764705882" y="388.28235294117644" type="curve"/>
      <point x="77.97647058823529" y="388.28235294117644" type="line"/>
      <point x="56.035294117647055" y="277.4470588235294"/>
      <point x="69.30588235294118" y="205.88235294117646"/>
      <point x="165.9764705882353" y="154.23529411764707" type="curve" smooth="yes"/>
      <point x="327.8" y="63.741176470588236" type="line" smooth="yes"/>
      <point x="364.77647058823527" y="43.11764705882353"/>
      <point x="394.4" y="18.788235294117648"/>
      <point x="392.21176470588233" y="-29.08235294117647" type="curve" smooth="yes"/>
      <point x="391.4823529411765" y="-88.71764705882353"/>
      <point x="341.52941176470586" y="-90.17647058823529"/>
      <point x="265.01176470588234" y="-89.90588235294118" type="curve" smooth="yes"/>
      <point x="192.36470588235295" y="-88.90588235294118"/>
      <point x="141.68235294117648" y="-87.36470588235294"/>
      <point x="74.62352941176471" y="-83.36470588235294" type="curve"/>
      <point x="67.97647058823529" y="-149.50588235294117" type="line"/>
      <point x="142.3294117647059" y="-157.23529411764707"/>
      <point x="225.3764705882353" y="-160.50588235294117"/>
      <point x="286.16470588235296" y="-161.50588235294117" type="curve" smooth="yes"/>
      <point x="403.8588235294118" y="-161.7764705882353"/>
      <point x="482.8588235294118" y="-148.56470588235294"/>
      <point x="482.8588235294118" y="-32.0" type="curve" smooth="yes"/>
      <point x="482.8588235294118" y="50.23529411764706"/>
      <point x="443.45882352941175" y="87.85882352941177"/>
      <point x="382.0470588235294" y="123.56470588235294" type="curve" smooth="yes"/>
      <point x="209.47058823529412" y="221.6235294117647" type="line" smooth="yes"/>
      <point x="145.74117647058824" y="257.6235294117647"/>
      <point x="132.74117647058824" y="301.84705882352944"/>
    </contour>
    <contour>
      <point x="259.7529411764706" y="702.7294117647059" type="curve" smooth="yes"/>
      <point x="133.9764705882353" y="703.0"/>
      <point x="62.32941176470588" y="682.435294117647"/>
      <point x="62.32941176470588" y="574.7647058823529" type="curve" smooth="yes"/>
      <point x="62.32941176470588" y="493.52941176470586"/>
      <point x="100.45882352941176" y="457.1764705882353"/>
      <point x="163.41176470588235" y="420.9294117647059" type="curve" smooth="yes"/>
      <point x="335.7176470588235" y="321.8705882352941" type="line" smooth="yes"/>
      <point x="397.90588235294115" y="286.4117647058824"/>
      <point x="412.4470588235294" y="239.3764705882353"/>
      <point x="405.09411764705885" y="153.6705882352941" type="curve"/>
      <point x="467.21176470588233" y="153.6705882352941" type="line"/>
      <point x="489.88235294117646" y="263.77647058823527"/>
      <point x="477.88235294117646" y="336.61176470588236"/>
      <point x="380.94117647058823" y="389.25882352941176" type="curve" smooth="yes"/>
      <point x="218.8470588235294" y="480.0235294117647" type="line" smooth="yes"/>
      <point x="179.87058823529412" y="501.91764705882355"/>
      <point x="151.51764705882354" y="524.9764705882353"/>
      <point x="152.9764705882353" y="572.5764705882353" type="curve" smooth="yes"/>
      <point x="154.43529411764706" y="629.1294117647059"/>
      <point x="203.8470588235294" y="631.4"/>
      <point x="281.63529411764705" y="630.4" type="curve" smooth="yes"/>
      <point x="376.2352941176471" y="630.1294117647059"/>
      <point x="411.8588235294118" y="628.5882352941177"/>
      <point x="471.29411764705884" y="624.5882352941177" type="curve"/>
      <point x="477.21176470588233" y="690.7294117647059" type="line"/>
      <point x="412.0235294117647" y="697.7294117647059"/>
      <point x="322.3529411764706" y="701.7294117647059"/>
    </contour>
  </outline>
</glyph>
<glyph name="dieresis" format="2">
  <advance width="411.07395294117646"/>
  <unicode hex="00A8"/>
  <anchor x="206.52604705882354" y="557.0576235294118" name="_top"/>
  <outline>
    <contour>
      <point x="309.0470588235294" y="692.6941176470589" type="curve" smooth="yes"/>
      <point x="280.81176470588235" y="692.6941176470589" type="line" smooth="yes"/>
      <point x="264.32941176470587" y="692.6941176470589"/>
      <point x="256.9529411764706" y="683.5882352941177"/>
      <point x="256.9529411764706" y="668.564705882353" type="curve" smooth="yes"/>
      <point x="256.9529411764706" y="614.0235294117647" type="line" smooth="yes"/>
      <point x="256.9529411764706" y="597.5411764705882"/>
      <point x="264.32941176470587" y="589.8941176470588"/>
      <point x="280.81176470588235" y="589.8941176470588" type="curve" smooth="yes"/>
      <point x="309.0470588235294" y="589.8941176470588" type="line" smooth="yes"/>
      <point x="324.0705882352941" y="589.8941176470588"/>
      <point x="332.90588235294115" y="597.5411764705882"/>
      <point x="332.90588235294115" y="614.0235294117647" type="curve" smooth="yes"/>
      <point x="332.90588235294115" y="668.564705882353" type="line" smooth="yes"/>
      <point x="332.90588235294115" y="683.5882352941177"/>
      <point x="324.0705882352941" y="692.6941176470589"/>
    </contour>
    <contour>
      <point x="132.04705882352943" y="692.6941176470589" type="curve" smooth="yes"/>
      <point x="103.08235294117647" y="692.6941176470589" type="line" smooth="yes"/>
      <point x="87.32941176470588" y="692.6941176470589"/>
      <point x="79.95294117647059" y="683.5882352941177"/>
      <point x="79.95294117647059" y="668.564705882353" type="curve" smooth="yes"/>
      <point x="79.95294117647059" y="614.0235294117647" type="line" smooth="yes"/>
      <point x="79.95294117647059" y="597.5411764705882"/>
      <point x="87.32941176470588" y="589.8941176470588"/>
      <point x="103.08235294117647" y="589.8941176470588" type="curve" smooth="yes"/>
      <point x="132.04705882352943" y="589.8941176470588" type="line" smooth="yes"/>
      <point x="147.8" y="589.8941176470588"/>
      <point x="155.1764705882353" y="597.5411764705882"/>
      <point x="155.1764705882353" y="614.0235294117647" type="curve" smooth="yes"/>
      <point x="155.1764705882353" y="668.564705882353" type="line" smooth="yes"/>
      <point x="155.1764705882353" y="683.5882352941177"/>
      <point x="147.8" y="692.6941176470589"/>
    </contour>
  </outline>
</glyph>
<glyph name="copyright" format="2">
  <advance width="836.1176470588235"/>
  <unicode hex="00A9"/>
  <outline>
    <contour>
      <point x="418.05882352941177" y="702.7294117647059" type="curve" smooth="yes"/>
      <point x="218.87058823529412" y="702.7294117647059"/>
      <point x="58.870588235294115" y="552.7294117647059"/>
      <point x="58.870588235294115" y="345.0" type="curve" smooth="yes"/>
      <point x="58.870588235294115" y="137.27058823529413"/>
      <point x="218.87058823529412" y="-12.729411764705882"/>
      <point x="418.05882352941177" y="-12.729411764705882" type="curve" smooth="yes"/>
      <point x="618.2470588235294" y="-12.729411764705882"/>
      <point x="777.2470588235294" y="137.27058823529413"/>
      <point x="777.2470588235294" y="345.0" type="curve" smooth="yes"/>
      <point x="777.2470588235294" y="552.7294117647059"/>
      <point x="618.2470588235294" y="702.7294117647059"/>
    </contour>
    <contour>
      <point x="423.05882352941177" y="567.6" type="curve" smooth="yes"/>
      <point x="279.78823529411767" y="567.6"/>
      <point x="228.05882352941177" y="508.5176470588235"/>
      <point x="228.05882352941177" y="347.2705882352941" type="curve" smooth="yes"/>
      <point x="228.05882352941177" y="185.2941176470588"/>
      <point x="279.78823529411767" y="126.94117647058823"/>
      <point x="423.05882352941177" y="126.94117647058823" type="curve" smooth="yes"/>
      <point x="488.05882352941177" y="126.94117647058823"/>
      <point x="527.0588235294117" y="131.6705882352941"/>
      <point x="567.7882352941176" y="141.85882352941178" type="curve"/>
      <point x="561.6" y="190.68235294117648" type="line"/>
      <point x="520.8705882352941" y="186.14117647058822"/>
      <point x="483.6" y="184.87058823529412"/>
      <point x="422.32941176470587" y="184.87058823529412" type="curve" smooth="yes"/>
      <point x="325.6941176470588" y="184.87058823529412"/>
      <point x="294.5529411764706" y="224.5529411764706"/>
      <point x="294.5529411764706" y="347.2705882352941" type="curve" smooth="yes"/>
      <point x="294.5529411764706" y="469.98823529411766"/>
      <point x="325.6941176470588" y="509.4"/>
      <point x="422.32941176470587" y="509.4" type="curve" smooth="yes"/>
      <point x="479.32941176470587" y="509.4"/>
      <point x="507.32941176470587" y="508.4"/>
      <point x="550.3294117647059" y="505.5882352941176" type="curve"/>
      <point x="557.5176470588235" y="554.1411764705882" type="line"/>
      <point x="517.7882352941176" y="563.8705882352941"/>
      <point x="485.5176470588235" y="567.6"/>
    </contour>
    <contour>
      <point x="418.05882352941177" y="656.9294117647058" type="curve" smooth="yes"/>
      <point x="589.9294117647058" y="656.9294117647058"/>
      <point x="729.9882352941177" y="525.1411764705882"/>
      <point x="729.9882352941177" y="345.0" type="curve" smooth="yes"/>
      <point x="729.9882352941177" y="164.85882352941178"/>
      <point x="589.9294117647058" y="33.07058823529412"/>
      <point x="418.05882352941177" y="33.07058823529412" type="curve" smooth="yes"/>
      <point x="247.18823529411765" y="33.07058823529412"/>
      <point x="106.12941176470588" y="164.85882352941178"/>
      <point x="106.12941176470588" y="345.0" type="curve" smooth="yes"/>
      <point x="106.12941176470588" y="525.1411764705882"/>
      <point x="247.18823529411765" y="656.9294117647058"/>
    </contour>
  </outline>
</glyph>
<glyph name="ordfeminine" format="2">
  <advance width="441.08235294117645"/>
  <unicode hex="00AA"/>
  <outline>
    <contour>
      <point x="253.6235294117647" y="607.2941176470588" type="curve" smooth="yes"/>
      <point x="189.18823529411765" y="607.2941176470588"/>
      <point x="126.6" y="599.2941176470588"/>
      <point x="79.14117647058823" y="592.564705882353" type="curve"/>
      <point x="85.78823529411764" y="545.2" type="line"/>
      <point x="137.9764705882353" y="549.0117647058823"/>
      <point x="194.78823529411764" y="553.0117647058823"/>
      <point x="240.68235294117648" y="553.0117647058823" type="curve" smooth="yes"/>
      <point x="288.74117647058824" y="553.0117647058823"/>
      <point x="303.8235294117647" y="531.9529411764706"/>
      <point x="303.8235294117647" y="499.9764705882353" type="curve" smooth="yes"/>
      <point x="303.8235294117647" y="351.83529411764704" type="line"/>
      <point x="307.47058823529414" y="343.91764705882355" type="line"/>
      <point x="316.84705882352944" y="272.18823529411765" type="line"/>
      <point x="368.1294117647059" y="272.18823529411765" type="line"/>
      <point x="368.1294117647059" y="499.2470588235294" type="line" smooth="yes"/>
      <point x="368.1294117647059" y="580.1058823529412"/>
      <point x="326.0235294117647" y="607.2941176470588"/>
    </contour>
    <contour>
      <point x="339.2705882352941" y="471.56470588235294" type="line"/>
      <point x="157.16470588235293" y="471.56470588235294" type="line" smooth="yes"/>
      <point x="98.05882352941177" y="471.56470588235294"/>
      <point x="63.68235294117647" y="441.3764705882353"/>
      <point x="63.68235294117647" y="391.18823529411765" type="curve" smooth="yes"/>
      <point x="63.68235294117647" y="353.1058823529412" type="line" smooth="yes"/>
      <point x="63.68235294117647" y="296.45882352941175"/>
      <point x="103.24705882352941" y="266.0"/>
      <point x="162.43529411764706" y="266.0" type="curve" smooth="yes"/>
      <point x="240.18823529411765" y="266.0"/>
      <point x="300.78823529411767" y="319.67058823529413"/>
      <point x="322.6823529411765" y="349.4" type="curve"/>
      <point x="322.6823529411765" y="387.09411764705885" type="line"/>
      <point x="290.5176470588235" y="353.74117647058824"/>
      <point x="229.18823529411765" y="320.74117647058824"/>
      <point x="182.21176470588236" y="321.01176470588234" type="curve" smooth="yes"/>
      <point x="145.69411764705882" y="321.2823529411765"/>
      <point x="126.8" y="332.8"/>
      <point x="126.8" y="366.50588235294117" type="curve" smooth="yes"/>
      <point x="126.8" y="385.3529411764706" type="line" smooth="yes"/>
      <point x="126.8" y="410.4117647058824"/>
      <point x="139.7764705882353" y="425.3058823529412"/>
      <point x="176.6705882352941" y="427.0352941176471" type="curve" smooth="yes"/>
      <point x="338.2705882352941" y="437.32941176470587" type="line"/>
    </contour>
  </outline>
</glyph>
<glyph name="logicalnot" format="2">
  <advance width="590.0823529411765"/>
  <unicode hex="00AC"/>
  <outline>
    <contour>
      <point x="511.7529411764706" y="329.61176470588236" type="line"/>
      <point x="73.6" y="329.61176470588236" type="line"/>
      <point x="73.6" y="265.3058823529412" type="line"/>
      <point x="511.7529411764706" y="265.3058823529412" type="line"/>
    </contour>
    <contour>
      <point x="511.7529411764706" y="320.98823529411766" type="line"/>
      <point x="446.4470588235294" y="320.98823529411766" type="line"/>
      <point x="446.4470588235294" y="131.91764705882352" type="line"/>
      <point x="511.7529411764706" y="131.91764705882352" type="line"/>
    </contour>
  </outline>
</glyph>
<glyph name="registered" format="2">
  <advance width="553.2823529411764"/>
  <unicode hex="00AE"/>
  <outline>
    <contour>
      <point x="277.1411764705882" y="701.7294117647059" type="curve" smooth="yes"/>
      <point x="153.14117647058822" y="701.7294117647059"/>
      <point x="54.141176470588235" y="602.7294117647059"/>
      <point x="54.141176470588235" y="479.7294117647059" type="curve" smooth="yes"/>
      <point x="54.141176470588235" y="355.7294117647059"/>
      <point x="153.14117647058822" y="256.7294117647059"/>
      <point x="277.1411764705882" y="256.7294117647059" type="curve" smooth="yes"/>
      <point x="400.1411764705882" y="256.7294117647059"/>
      <point x="499.1411764705882" y="355.7294117647059"/>
      <point x="499.1411764705882" y="479.7294117647059" type="curve" smooth="yes"/>
      <point x="499.1411764705882" y="602.7294117647059"/>
      <point x="400.1411764705882" y="701.7294117647059"/>
    </contour>
    <contour>
      <point x="216.75294117647059" y="609.5176470588235" type="line"/>
      <point x="176.87058823529412" y="609.5176470588235" type="line"/>
      <point x="176.87058823529412" y="351.3176470588235" type="line"/>
      <point x="216.75294117647059" y="351.3176470588235" type="line"/>
    </contour>
    <contour>
      <point x="277.1411764705882" y="672.6" type="curve" smooth="yes"/>
      <point x="381.84705882352944" y="672.6"/>
      <point x="468.01176470588234" y="586.435294117647"/>
      <point x="468.01176470588234" y="479.7294117647059" type="curve" smooth="yes"/>
      <point x="468.01176470588234" y="372.7529411764706"/>
      <point x="381.84705882352944" y="286.5882352941176"/>
      <point x="277.1411764705882" y="286.5882352941176" type="curve" smooth="yes"/>
      <point x="171.43529411764706" y="286.5882352941176"/>
      <point x="85.27058823529411" y="372.7529411764706"/>
      <point x="85.27058823529411" y="479.7294117647059" type="curve" smooth="yes"/>
      <point x="85.27058823529411" y="586.435294117647"/>
      <point x="171.43529411764706" y="672.6"/>
    </contour>
    <contour>
      <point x="285.9529411764706" y="612.5176470588235" type="curve" smooth="yes"/>
      <point x="234.68235294117648" y="612.5176470588235"/>
      <point x="211.41176470588235" y="612.5176470588235"/>
      <point x="176.87058823529412" y="609.5176470588235" type="curve"/>
      <point x="183.87058823529412" y="580.2" type="line"/>
      <point x="197.14117647058822" y="581.2"/>
      <point x="235.68235294117648" y="581.2"/>
      <point x="285.22352941176473" y="581.2" type="curve" smooth="yes"/>
      <point x="332.36470588235295" y="581.2"/>
      <point x="348.8" y="572.8470588235294"/>
      <point x="348.0705882352941" y="534.435294117647" type="curve" smooth="yes"/>
      <point x="348.8" y="498.7529411764706"/>
      <point x="332.36470588235295" y="488.4"/>
      <point x="285.22352941176473" y="487.4" type="curve" smooth="yes"/>
      <point x="182.87058823529412" y="487.4" type="line"/>
      <point x="181.87058823529412" y="459.3529411764706" type="line"/>
      <point x="198.24705882352941" y="458.3529411764706"/>
      <point x="229.49411764705883" y="458.08235294117645"/>
      <point x="287.0352941176471" y="458.08235294117645" type="curve" smooth="yes"/>
      <point x="307.6588235294118" y="458.08235294117645"/>
      <point x="320.5529411764706" y="451.0"/>
      <point x="328.63529411764705" y="430.56470588235294" type="curve" smooth="yes"/>
      <point x="356.61176470588236" y="351.3176470588235" type="line"/>
      <point x="399.22352941176473" y="351.3176470588235" type="line"/>
      <point x="368.78823529411767" y="432.56470588235294" type="line" smooth="yes"/>
      <point x="361.5176470588235" y="457.21176470588233"/>
      <point x="346.05882352941177" y="468.56470588235294"/>
      <point x="329.78823529411767" y="470.83529411764704" type="curve"/>
      <point x="329.78823529411767" y="472.83529411764704" type="line"/>
      <point x="372.6" y="478.1058823529412"/>
      <point x="388.6823529411765" y="498.83529411764704"/>
      <point x="388.6823529411765" y="538.3529411764706" type="curve" smooth="yes"/>
      <point x="388.6823529411765" y="595.9764705882353"/>
      <point x="359.22352941176473" y="612.5176470588235"/>
    </contour>
  </outline>
</glyph>
<glyph name="degree" format="2">
  <advance width="363.3058823529412"/>
  <unicode hex="00B0"/>
  <outline>
    <contour>
      <point x="181.78823529411764" y="702.7294117647059" type="curve" smooth="yes"/>
      <point x="110.14117647058823" y="702.7294117647059"/>
      <point x="51.95294117647059" y="645.2705882352941"/>
      <point x="51.95294117647059" y="576.0823529411765" type="curve" smooth="yes"/>
      <point x="51.95294117647059" y="505.8941176470588"/>
      <point x="110.87058823529412" y="447.70588235294116"/>
      <point x="181.78823529411764" y="447.70588235294116" type="curve" smooth="yes"/>
      <point x="252.43529411764706" y="447.70588235294116"/>
      <point x="311.3529411764706" y="505.8941176470588"/>
      <point x="311.3529411764706" y="576.0823529411765" type="curve" smooth="yes"/>
      <point x="311.3529411764706" y="646.0"/>
      <point x="251.7058823529412" y="702.7294117647059"/>
    </contour>
    <contour>
      <point x="181.78823529411764" y="650.635294117647" type="curve" smooth="yes"/>
      <point x="223.47058823529412" y="650.635294117647"/>
      <point x="257.0705882352941" y="619.9529411764706"/>
      <point x="257.0705882352941" y="576.0823529411765" type="curve" smooth="yes"/>
      <point x="257.0705882352941" y="532.7529411764706"/>
      <point x="222.74117647058824" y="499.8"/>
      <point x="181.78823529411764" y="499.8" type="curve" smooth="yes"/>
      <point x="139.83529411764707" y="499.8"/>
      <point x="106.23529411764706" y="532.7529411764706"/>
      <point x="106.23529411764706" y="576.0823529411765" type="curve" smooth="yes"/>
      <point x="106.23529411764706" y="619.9529411764706"/>
      <point x="139.83529411764707" y="650.635294117647"/>
    </contour>
  </outline>
</glyph>
<glyph name="plusminus" format="2">
  <advance width="588.0588235294117"/>
  <unicode hex="00B1"/>
  <outline>
    <contour>
      <point x="513.1058823529412" y="390.8235294117647" type="line"/>
      <point x="74.95294117647059" y="390.8235294117647" type="line"/>
      <point x="74.95294117647059" y="326.5176470588235" type="line"/>
      <point x="513.1058823529412" y="326.5176470588235" type="line"/>
    </contour>
    <contour>
      <point x="513.1058823529412" y="133.50588235294117" type="line"/>
      <point x="74.95294117647059" y="133.50588235294117" type="line"/>
      <point x="74.95294117647059" y="69.92941176470589" type="line"/>
      <point x="513.1058823529412" y="69.92941176470589" type="line"/>
    </contour>
    <contour>
      <point x="327.0470588235294" y="523.964705882353" type="line"/>
      <point x="261.01176470588234" y="523.964705882353" type="line"/>
      <point x="261.28235294117644" y="193.3764705882353" type="line"/>
      <point x="326.0470588235294" y="193.3764705882353" type="line"/>
    </contour>
  </outline>
</glyph>
<glyph name="twosuperior" format="2">
  <advance width="414.32941176470587"/>
  <unicode hex="00B2"/>
  <outline>
    <contour>
      <point x="200.48235294117646" y="773.4235294117647" type="curve" smooth="yes"/>
      <point x="167.75294117647059" y="773.4235294117647"/>
      <point x="122.83529411764705" y="770.8823529411765"/>
      <point x="62.082352941176474" y="758.0705882352942" type="curve"/>
      <point x="66.08235294117647" y="707.2470588235294" type="line"/>
      <point x="121.37647058823529" y="714.1411764705882"/>
      <point x="155.54117647058823" y="716.2235294117647"/>
      <point x="196.91764705882352" y="716.2235294117647" type="curve" smooth="yes"/>
      <point x="244.08235294117648" y="716.2235294117647"/>
      <point x="273.16470588235296" y="709.2470588235294"/>
      <point x="272.2470588235294" y="670.564705882353" type="curve" smooth="yes"/>
      <point x="271.32941176470587" y="633.6941176470589"/>
      <point x="245.95294117647057" y="598.9411764705883"/>
      <point x="193.14117647058822" y="546.964705882353" type="curve" smooth="yes"/>
      <point x="67.56470588235294" y="422.5176470588235" type="line" smooth="yes"/>
      <point x="59.72941176470588" y="414.6823529411765"/>
      <point x="57.0" y="406.11764705882354"/>
      <point x="57.0" y="394.8235294117647" type="curve" smooth="yes"/>
      <point x="57.0" y="358.6470588235294" type="line"/>
      <point x="362.01176470588234" y="358.6470588235294" type="line"/>
      <point x="362.74117647058824" y="417.49411764705883" type="line"/>
      <point x="209.51764705882354" y="418.22352941176473" type="line" smooth="yes"/>
      <point x="185.78823529411764" y="418.22352941176473"/>
      <point x="168.51764705882354" y="418.22352941176473"/>
      <point x="144.78823529411764" y="416.0352941176471" type="curve"/>
      <point x="264.6823529411765" y="534.9882352941177" type="line" smooth="yes"/>
      <point x="318.49411764705883" y="589.4235294117647"/>
      <point x="345.6588235294118" y="631.6117647058824"/>
      <point x="345.6588235294118" y="677.6705882352941" type="curve" smooth="yes"/>
      <point x="345.6588235294118" y="755.5294117647059"/>
      <point x="294.5529411764706" y="773.4235294117647"/>
    </contour>
  </outline>
</glyph>
<glyph name="threesuperior" format="2">
  <advance width="406.6941176470588"/>
  <unicode hex="00B3"/>
  <outline>
    <contour>
      <point x="193.69411764705882" y="774.1529411764706" type="curve" smooth="yes"/>
      <point x="150.94117647058823" y="774.1529411764706"/>
      <point x="107.02352941176471" y="769.3411764705883"/>
      <point x="63.0" y="761.2588235294118" type="curve"/>
      <point x="67.27058823529411" y="712.1647058823529" type="line"/>
      <point x="97.6470588235294" y="715.5176470588235"/>
      <point x="141.91764705882352" y="718.4117647058823"/>
      <point x="184.48235294117646" y="718.4117647058823" type="curve" smooth="yes"/>
      <point x="250.18823529411765" y="718.4117647058823"/>
      <point x="269.81176470588235" y="707.3294117647059"/>
      <point x="270.3529411764706" y="664.1882352941177" type="curve" smooth="yes"/>
      <point x="270.6235294117647" y="633.0235294117647"/>
      <point x="264.6235294117647" y="597.0705882352942"/>
      <point x="195.83529411764707" y="596.5294117647059" type="curve" smooth="yes"/>
      <point x="111.37647058823529" y="595.9882352941177" type="line"/>
      <point x="111.37647058823529" y="545.8941176470588" type="line"/>
      <point x="195.83529411764707" y="545.6235294117647" type="line" smooth="yes"/>
      <point x="266.16470588235296" y="545.3529411764706"/>
      <point x="278.16470588235296" y="515.8352941176471"/>
      <point x="278.16470588235296" y="479.77647058823527" type="curve" smooth="yes"/>
      <point x="278.16470588235296" y="425.09411764705885"/>
      <point x="254.0" y="406.6588235294118"/>
      <point x="185.45882352941177" y="406.6588235294118" type="curve" smooth="yes"/>
      <point x="143.27058823529413" y="406.6588235294118"/>
      <point x="105.75294117647059" y="408.74117647058824"/>
      <point x="60.62352941176471" y="413.09411764705885" type="curve"/>
      <point x="55.811764705882354" y="363.2705882352941" type="line"/>
      <point x="100.02352941176471" y="356.45882352941175"/>
      <point x="150.6705882352941" y="350.6470588235294"/>
      <point x="201.04705882352943" y="350.6470588235294" type="curve" smooth="yes"/>
      <point x="308.47058823529414" y="350.6470588235294"/>
      <point x="348.6588235294118" y="388.18823529411765"/>
      <point x="346.9294117647059" y="471.7529411764706" type="curve" smooth="yes"/>
      <point x="345.9294117647059" y="530.1294117647059"/>
      <point x="326.2" y="564.5882352941177"/>
      <point x="265.0705882352941" y="574.4" type="curve"/>
      <point x="265.0705882352941" y="576.4" type="line"/>
      <point x="320.38823529411764" y="586.4823529411765"/>
      <point x="336.2" y="625.1294117647059"/>
      <point x="336.2" y="679.7764705882353" type="curve" smooth="yes"/>
      <point x="336.2" y="751.1529411764706"/>
      <point x="297.9294117647059" y="774.1529411764706"/>
    </contour>
  </outline>
</glyph>
<glyph name="micro" format="2">
  <advance width="577.1058823529412"/>
  <unicode hex="00B5"/>
  <outline>
    <contour>
      <point x="162.49411764705883" y="486.56470588235294" type="line"/>
      <point x="78.2235294117647" y="486.56470588235294" type="line"/>
      <point x="78.2235294117647" y="132.85882352941178" type="line"/>
      <point x="78.2235294117647" y="35.10588235294118"/>
      <point x="143.45882352941177" y="-12.0"/>
      <point x="229.27058823529413" y="-12.0" type="curve" smooth="yes"/>
      <point x="313.3764705882353" y="-12.0"/>
      <point x="379.36470588235295" y="38.64705882352941"/>
      <point x="411.6941176470588" y="101.61176470588235" type="curve"/>
      <point x="408.6941176470588" y="262.6235294117647" type="line"/>
      <point x="407.15294117647056" y="155.6235294117647"/>
      <point x="333.43529411764706" y="65.70588235294117"/>
      <point x="242.85882352941178" y="65.70588235294117" type="curve" smooth="yes"/>
      <point x="189.28235294117647" y="65.70588235294117"/>
      <point x="162.49411764705883" y="84.65882352941176"/>
      <point x="162.49411764705883" y="154.09411764705882" type="curve" smooth="yes"/>
    </contour>
    <contour>
      <point x="161.76470588235293" y="84.45882352941176" type="line"/>
      <point x="78.2235294117647" y="181.14117647058822" type="line"/>
      <point x="78.2235294117647" y="-200.51764705882354" type="line"/>
      <point x="150.65882352941176" y="-200.51764705882354" type="line"/>
      <point x="161.03529411764706" y="-75.82352941176471" type="line"/>
    </contour>
    <contour>
      <point x="493.9647058823529" y="486.56470588235294" type="line"/>
      <point x="408.6941176470588" y="486.56470588235294" type="line"/>
      <point x="408.6941176470588" y="117.61176470588235" type="line"/>
      <point x="411.6941176470588" y="101.61176470588235" type="line"/>
      <point x="411.6941176470588" y="77.43529411764706" type="line" smooth="yes"/>
      <point x="411.6941176470588" y="17.95294117647059"/>
      <point x="437.38823529411764" y="-9.647058823529411"/>
      <point x="483.84705882352944" y="-9.647058823529411" type="curve" smooth="yes"/>
      <point x="507.6823529411765" y="-9.647058823529411"/>
      <point x="533.8941176470588" y="-4.729411764705882"/>
      <point x="560.0235294117647" y="3.647058823529412" type="curve"/>
      <point x="554.1058823529412" y="55.11764705882353" type="line"/>
      <point x="521.6705882352941" y="55.11764705882353" type="line" smooth="yes"/>
      <point x="496.61176470588236" y="55.11764705882353"/>
      <point x="493.9647058823529" y="74.88235294117646"/>
      <point x="493.9647058823529" y="108.23529411764706" type="curve" smooth="yes"/>
    </contour>
  </outline>
</glyph>
<glyph name="paragraph" format="2">
  <advance width="593.3529411764706"/>
  <unicode hex="00B6"/>
  <outline>
    <contour>
      <point x="345.70588235294116" y="702.0" type="curve" smooth="yes"/>
      <point x="126.32941176470588" y="702.0"/>
      <point x="40.141176470588235" y="635.0"/>
      <point x="40.141176470588235" y="450.0" type="curve" smooth="yes"/>
      <point x="40.141176470588235" y="284.0"/>
      <point x="108.41176470588235" y="213.0"/>
      <point x="279.22352941176473" y="200.0" type="curve"/>
      <point x="321.77647058823527" y="646.1764705882352" type="line"/>
      <point x="365.3176470588235" y="646.1764705882352"/>
      <point x="442.94117647058823" y="643.1764705882352"/>
      <point x="490.7529411764706" y="634.1764705882352" type="curve"/>
      <point x="496.7529411764706" y="685.0" type="line"/>
      <point x="450.3764705882353" y="698.0"/>
      <point x="386.81176470588235" y="702.0"/>
    </contour>
    <contour>
      <point x="333.61176470588236" y="685.0" type="line"/>
      <point x="269.22352941176473" y="685.0" type="line"/>
      <point x="269.22352941176473" y="-210.0" type="line"/>
      <point x="333.61176470588236" y="-210.0" type="line"/>
    </contour>
    <contour>
      <point x="496.7529411764706" y="685.0" type="line"/>
      <point x="431.63529411764705" y="685.0" type="line"/>
      <point x="431.63529411764705" y="0.0" type="line"/>
      <point x="496.7529411764706" y="0.0" type="line"/>
    </contour>
  </outline>
</glyph>
<glyph name="cedilla" format="2">
  <advance width="233.58823529411765"/>
  <unicode hex="00B8"/>
  <guideline x="57.305882352941175" y="-105.62352941176471" angle="56.408199999999965"/>
  <anchor x="132.72941176470587" y="0.0" name="_bottom"/>
  <outline>
    <contour>
      <point x="89.87058823529412" y="-43.16470588235294" type="curve"/>
      <point x="81.03529411764706" y="-83.4235294117647" type="line"/>
      <point x="128.68235294117648" y="-83.69411764705882"/>
      <point x="140.76470588235293" y="-90.85882352941177"/>
      <point x="140.03529411764706" y="-114.72941176470589" type="curve" smooth="yes"/>
      <point x="138.57647058823528" y="-155.9764705882353"/>
      <point x="101.68235294117648" y="-185.8470588235294"/>
      <point x="47.45882352941177" y="-184.30588235294118" type="curve"/>
      <point x="33.976470588235294" y="-229.21176470588236" type="line"/>
      <point x="129.18823529411765" y="-241.6705882352941"/>
      <point x="198.96470588235294" y="-192.6705882352941"/>
      <point x="201.42352941176472" y="-108.16470588235295" type="curve" smooth="yes"/>
      <point x="203.1529411764706" y="-47.76470588235294"/>
      <point x="167.12941176470588" y="-35.78823529411765"/>
    </contour>
  </outline>
</glyph>
<glyph name="onesuperior" format="2">
  <advance width="294.29411764705884"/>
  <unicode hex="00B9"/>
  <outline>
    <contour>
      <point x="210.03529411764706" y="766.6941176470589" type="line"/>
      <point x="143.54117647058823" y="766.6941176470589" type="line"/>
      <point x="30.08235294117647" y="724.6941176470589" type="line"/>
      <point x="38.45882352941177" y="678.3294117647059" type="line"/>
      <point x="146.27058823529413" y="707.035294117647" type="line"/>
      <point x="143.81176470588235" y="693.6588235294117"/>
      <point x="143.54117647058823" y="681.0117647058823"/>
      <point x="143.54117647058823" y="668.635294117647" type="curve" smooth="yes"/>
      <point x="143.54117647058823" y="358.6470588235294" type="line"/>
      <point x="210.03529411764706" y="358.6470588235294" type="line"/>
    </contour>
  </outline>
</glyph>
<glyph name="ordmasculine" format="2">
  <advance width="443.8941176470588"/>
  <unicode hex="00BA"/>
  <outline>
    <contour>
      <point x="221.81176470588235" y="607.2941176470588" type="curve" smooth="yes"/>
      <point x="101.6" y="607.2941176470588"/>
      <point x="58.95294117647059" y="561.564705882353"/>
      <point x="58.95294117647059" y="435.3764705882353" type="curve" smooth="yes"/>
      <point x="58.95294117647059" y="309.91764705882355"/>
      <point x="101.6" y="264.18823529411765"/>
      <point x="221.81176470588235" y="264.18823529411765" type="curve" smooth="yes"/>
      <point x="342.29411764705884" y="264.18823529411765"/>
      <point x="384.94117647058823" y="309.91764705882355"/>
      <point x="384.94117647058823" y="435.3764705882353" type="curve" smooth="yes"/>
      <point x="384.94117647058823" y="561.564705882353"/>
      <point x="342.29411764705884" y="607.2941176470588"/>
    </contour>
    <contour>
      <point x="221.81176470588235" y="554.0117647058823" type="curve" smooth="yes"/>
      <point x="293.6588235294118" y="554.0117647058823"/>
      <point x="317.1764705882353" y="527.4941176470588"/>
      <point x="317.1764705882353" y="435.3764705882353" type="curve" smooth="yes"/>
      <point x="317.1764705882353" y="344.25882352941176"/>
      <point x="293.6588235294118" y="317.74117647058824"/>
      <point x="221.81176470588235" y="317.74117647058824" type="curve" smooth="yes"/>
      <point x="149.96470588235294" y="317.74117647058824"/>
      <point x="126.44705882352942" y="344.25882352941176"/>
      <point x="125.71764705882353" y="435.3764705882353" type="curve" smooth="yes"/>
      <point x="126.44705882352942" y="527.4941176470588"/>
      <point x="149.96470588235294" y="554.0117647058823"/>
    </contour>
  </outline>
</glyph>
